%TF.GenerationSoftware,KiCad,Pcbnew,7.0.6*%
%TF.CreationDate,2024-06-28T04:54:33+09:00*%
%TF.ProjectId,artnet-neopixel,6172746e-6574-42d6-9e65-6f706978656c,rev?*%
%TF.SameCoordinates,Original*%
%TF.FileFunction,Legend,Top*%
%TF.FilePolarity,Positive*%
%FSLAX46Y46*%
G04 Gerber Fmt 4.6, Leading zero omitted, Abs format (unit mm)*
G04 Created by KiCad (PCBNEW 7.0.6) date 2024-06-28 04:54:33*
%MOMM*%
%LPD*%
G01*
G04 APERTURE LIST*
G04 Aperture macros list*
%AMRoundRect*
0 Rectangle with rounded corners*
0 $1 Rounding radius*
0 $2 $3 $4 $5 $6 $7 $8 $9 X,Y pos of 4 corners*
0 Add a 4 corners polygon primitive as box body*
4,1,4,$2,$3,$4,$5,$6,$7,$8,$9,$2,$3,0*
0 Add four circle primitives for the rounded corners*
1,1,$1+$1,$2,$3*
1,1,$1+$1,$4,$5*
1,1,$1+$1,$6,$7*
1,1,$1+$1,$8,$9*
0 Add four rect primitives between the rounded corners*
20,1,$1+$1,$2,$3,$4,$5,0*
20,1,$1+$1,$4,$5,$6,$7,0*
20,1,$1+$1,$6,$7,$8,$9,0*
20,1,$1+$1,$8,$9,$2,$3,0*%
G04 Aperture macros list end*
%ADD10C,0.150000*%
%ADD11C,0.200000*%
%ADD12C,0.120000*%
%ADD13R,0.450000X1.475000*%
%ADD14RoundRect,0.135000X-0.135000X-0.185000X0.135000X-0.185000X0.135000X0.185000X-0.135000X0.185000X0*%
%ADD15RoundRect,0.140000X-0.140000X-0.170000X0.140000X-0.170000X0.140000X0.170000X-0.140000X0.170000X0*%
%ADD16C,3.250000*%
%ADD17C,1.890000*%
%ADD18R,1.900000X1.900000*%
%ADD19C,1.900000*%
%ADD20C,2.600000*%
%ADD21R,3.000000X3.000000*%
%ADD22C,3.000000*%
%ADD23RoundRect,0.140000X-0.170000X0.140000X-0.170000X-0.140000X0.170000X-0.140000X0.170000X0.140000X0*%
%ADD24R,1.500000X2.000000*%
%ADD25R,3.800000X2.000000*%
%ADD26RoundRect,0.225000X0.250000X-0.225000X0.250000X0.225000X-0.250000X0.225000X-0.250000X-0.225000X0*%
%ADD27RoundRect,0.135000X0.185000X-0.135000X0.185000X0.135000X-0.185000X0.135000X-0.185000X-0.135000X0*%
%ADD28RoundRect,0.135000X0.135000X0.185000X-0.135000X0.185000X-0.135000X-0.185000X0.135000X-0.185000X0*%
%ADD29RoundRect,0.140000X0.170000X-0.140000X0.170000X0.140000X-0.170000X0.140000X-0.170000X-0.140000X0*%
%ADD30R,1.500000X2.300000*%
%ADD31O,1.500000X2.300000*%
%ADD32C,6.400000*%
%ADD33RoundRect,0.218750X-0.256250X0.218750X-0.256250X-0.218750X0.256250X-0.218750X0.256250X0.218750X0*%
%ADD34RoundRect,0.140000X0.140000X0.170000X-0.140000X0.170000X-0.140000X-0.170000X0.140000X-0.170000X0*%
%ADD35RoundRect,0.135000X-0.185000X0.135000X-0.185000X-0.135000X0.185000X-0.135000X0.185000X0.135000X0*%
%ADD36R,1.000000X1.000000*%
%ADD37O,1.000000X1.000000*%
%ADD38R,1.200000X1.400000*%
%ADD39RoundRect,0.225000X-0.225000X-0.250000X0.225000X-0.250000X0.225000X0.250000X-0.225000X0.250000X0*%
%ADD40R,0.750000X1.000000*%
%ADD41RoundRect,0.150000X0.150000X-0.512500X0.150000X0.512500X-0.150000X0.512500X-0.150000X-0.512500X0*%
%ADD42R,1.400000X1.200000*%
%ADD43RoundRect,0.225000X0.225000X0.250000X-0.225000X0.250000X-0.225000X-0.250000X0.225000X-0.250000X0*%
%ADD44RoundRect,0.075000X-0.075000X0.662500X-0.075000X-0.662500X0.075000X-0.662500X0.075000X0.662500X0*%
%ADD45RoundRect,0.075000X-0.662500X0.075000X-0.662500X-0.075000X0.662500X-0.075000X0.662500X0.075000X0*%
%ADD46RoundRect,0.075000X0.662500X0.075000X-0.662500X0.075000X-0.662500X-0.075000X0.662500X-0.075000X0*%
%ADD47RoundRect,0.075000X0.075000X0.662500X-0.075000X0.662500X-0.075000X-0.662500X0.075000X-0.662500X0*%
%ADD48RoundRect,0.250000X-1.000000X-0.650000X1.000000X-0.650000X1.000000X0.650000X-1.000000X0.650000X0*%
G04 APERTURE END LIST*
D10*
X79619048Y-51073866D02*
X80380953Y-51073866D01*
X59007200Y-58441541D02*
X59054819Y-58298684D01*
X59054819Y-58298684D02*
X59054819Y-58060589D01*
X59054819Y-58060589D02*
X59007200Y-57965351D01*
X59007200Y-57965351D02*
X58959580Y-57917732D01*
X58959580Y-57917732D02*
X58864342Y-57870113D01*
X58864342Y-57870113D02*
X58769104Y-57870113D01*
X58769104Y-57870113D02*
X58673866Y-57917732D01*
X58673866Y-57917732D02*
X58626247Y-57965351D01*
X58626247Y-57965351D02*
X58578628Y-58060589D01*
X58578628Y-58060589D02*
X58531009Y-58251065D01*
X58531009Y-58251065D02*
X58483390Y-58346303D01*
X58483390Y-58346303D02*
X58435771Y-58393922D01*
X58435771Y-58393922D02*
X58340533Y-58441541D01*
X58340533Y-58441541D02*
X58245295Y-58441541D01*
X58245295Y-58441541D02*
X58150057Y-58393922D01*
X58150057Y-58393922D02*
X58102438Y-58346303D01*
X58102438Y-58346303D02*
X58054819Y-58251065D01*
X58054819Y-58251065D02*
X58054819Y-58012970D01*
X58054819Y-58012970D02*
X58102438Y-57870113D01*
X58054819Y-57584398D02*
X58054819Y-57012970D01*
X59054819Y-57298684D02*
X58054819Y-57298684D01*
X58769104Y-56727255D02*
X58769104Y-56251065D01*
X59054819Y-56822493D02*
X58054819Y-56489160D01*
X58054819Y-56489160D02*
X59054819Y-56155827D01*
X58054819Y-55965350D02*
X58054819Y-55393922D01*
X59054819Y-55679636D02*
X58054819Y-55679636D01*
X58054819Y-55060588D02*
X58864342Y-55060588D01*
X58864342Y-55060588D02*
X58959580Y-55012969D01*
X58959580Y-55012969D02*
X59007200Y-54965350D01*
X59007200Y-54965350D02*
X59054819Y-54870112D01*
X59054819Y-54870112D02*
X59054819Y-54679636D01*
X59054819Y-54679636D02*
X59007200Y-54584398D01*
X59007200Y-54584398D02*
X58959580Y-54536779D01*
X58959580Y-54536779D02*
X58864342Y-54489160D01*
X58864342Y-54489160D02*
X58054819Y-54489160D01*
X59007200Y-54060588D02*
X59054819Y-53917731D01*
X59054819Y-53917731D02*
X59054819Y-53679636D01*
X59054819Y-53679636D02*
X59007200Y-53584398D01*
X59007200Y-53584398D02*
X58959580Y-53536779D01*
X58959580Y-53536779D02*
X58864342Y-53489160D01*
X58864342Y-53489160D02*
X58769104Y-53489160D01*
X58769104Y-53489160D02*
X58673866Y-53536779D01*
X58673866Y-53536779D02*
X58626247Y-53584398D01*
X58626247Y-53584398D02*
X58578628Y-53679636D01*
X58578628Y-53679636D02*
X58531009Y-53870112D01*
X58531009Y-53870112D02*
X58483390Y-53965350D01*
X58483390Y-53965350D02*
X58435771Y-54012969D01*
X58435771Y-54012969D02*
X58340533Y-54060588D01*
X58340533Y-54060588D02*
X58245295Y-54060588D01*
X58245295Y-54060588D02*
X58150057Y-54012969D01*
X58150057Y-54012969D02*
X58102438Y-53965350D01*
X58102438Y-53965350D02*
X58054819Y-53870112D01*
X58054819Y-53870112D02*
X58054819Y-53632017D01*
X58054819Y-53632017D02*
X58102438Y-53489160D01*
X50926133Y-57419048D02*
X50926133Y-58180953D01*
X50545180Y-57800000D02*
X51307085Y-57800000D01*
X51745180Y-58085714D02*
X51745180Y-57514286D01*
X51745180Y-57800000D02*
X52745180Y-57800000D01*
X52745180Y-57800000D02*
X52602323Y-57704762D01*
X52602323Y-57704762D02*
X52507085Y-57609524D01*
X52507085Y-57609524D02*
X52459466Y-57514286D01*
X91619048Y-51073866D02*
X92380953Y-51073866D01*
X92000000Y-51454819D02*
X92000000Y-50692914D01*
X50926133Y-91819048D02*
X50926133Y-92580953D01*
X52649942Y-75514286D02*
X52697561Y-75561905D01*
X52697561Y-75561905D02*
X52745180Y-75657143D01*
X52745180Y-75657143D02*
X52745180Y-75895238D01*
X52745180Y-75895238D02*
X52697561Y-75990476D01*
X52697561Y-75990476D02*
X52649942Y-76038095D01*
X52649942Y-76038095D02*
X52554704Y-76085714D01*
X52554704Y-76085714D02*
X52459466Y-76085714D01*
X52459466Y-76085714D02*
X52316609Y-76038095D01*
X52316609Y-76038095D02*
X51745180Y-75466667D01*
X51745180Y-75466667D02*
X51745180Y-76085714D01*
X99073866Y-57880951D02*
X99073866Y-57119047D01*
X60654819Y-58155826D02*
X59654819Y-58155826D01*
X59654819Y-58155826D02*
X59654819Y-57774874D01*
X59654819Y-57774874D02*
X59702438Y-57679636D01*
X59702438Y-57679636D02*
X59750057Y-57632017D01*
X59750057Y-57632017D02*
X59845295Y-57584398D01*
X59845295Y-57584398D02*
X59988152Y-57584398D01*
X59988152Y-57584398D02*
X60083390Y-57632017D01*
X60083390Y-57632017D02*
X60131009Y-57679636D01*
X60131009Y-57679636D02*
X60178628Y-57774874D01*
X60178628Y-57774874D02*
X60178628Y-58155826D01*
X59654819Y-56965350D02*
X59654819Y-56774874D01*
X59654819Y-56774874D02*
X59702438Y-56679636D01*
X59702438Y-56679636D02*
X59797676Y-56584398D01*
X59797676Y-56584398D02*
X59988152Y-56536779D01*
X59988152Y-56536779D02*
X60321485Y-56536779D01*
X60321485Y-56536779D02*
X60511961Y-56584398D01*
X60511961Y-56584398D02*
X60607200Y-56679636D01*
X60607200Y-56679636D02*
X60654819Y-56774874D01*
X60654819Y-56774874D02*
X60654819Y-56965350D01*
X60654819Y-56965350D02*
X60607200Y-57060588D01*
X60607200Y-57060588D02*
X60511961Y-57155826D01*
X60511961Y-57155826D02*
X60321485Y-57203445D01*
X60321485Y-57203445D02*
X59988152Y-57203445D01*
X59988152Y-57203445D02*
X59797676Y-57155826D01*
X59797676Y-57155826D02*
X59702438Y-57060588D01*
X59702438Y-57060588D02*
X59654819Y-56965350D01*
X59654819Y-56203445D02*
X60654819Y-55965350D01*
X60654819Y-55965350D02*
X59940533Y-55774874D01*
X59940533Y-55774874D02*
X60654819Y-55584398D01*
X60654819Y-55584398D02*
X59654819Y-55346303D01*
X60131009Y-54965350D02*
X60131009Y-54632017D01*
X60654819Y-54489160D02*
X60654819Y-54965350D01*
X60654819Y-54965350D02*
X59654819Y-54965350D01*
X59654819Y-54965350D02*
X59654819Y-54489160D01*
X60654819Y-53489160D02*
X60178628Y-53822493D01*
X60654819Y-54060588D02*
X59654819Y-54060588D01*
X59654819Y-54060588D02*
X59654819Y-53679636D01*
X59654819Y-53679636D02*
X59702438Y-53584398D01*
X59702438Y-53584398D02*
X59750057Y-53536779D01*
X59750057Y-53536779D02*
X59845295Y-53489160D01*
X59845295Y-53489160D02*
X59988152Y-53489160D01*
X59988152Y-53489160D02*
X60083390Y-53536779D01*
X60083390Y-53536779D02*
X60131009Y-53584398D01*
X60131009Y-53584398D02*
X60178628Y-53679636D01*
X60178628Y-53679636D02*
X60178628Y-54060588D01*
X99073866Y-92580951D02*
X99073866Y-91819047D01*
X99454819Y-92199999D02*
X98692914Y-92199999D01*
X99073866Y-76180951D02*
X99073866Y-75419047D01*
X76258456Y-99454819D02*
X76258456Y-98931009D01*
X76258456Y-98931009D02*
X76210837Y-98835771D01*
X76210837Y-98835771D02*
X76115599Y-98788152D01*
X76115599Y-98788152D02*
X75925123Y-98788152D01*
X75925123Y-98788152D02*
X75829885Y-98835771D01*
X76258456Y-99407200D02*
X76163218Y-99454819D01*
X76163218Y-99454819D02*
X75925123Y-99454819D01*
X75925123Y-99454819D02*
X75829885Y-99407200D01*
X75829885Y-99407200D02*
X75782266Y-99311961D01*
X75782266Y-99311961D02*
X75782266Y-99216723D01*
X75782266Y-99216723D02*
X75829885Y-99121485D01*
X75829885Y-99121485D02*
X75925123Y-99073866D01*
X75925123Y-99073866D02*
X76163218Y-99073866D01*
X76163218Y-99073866D02*
X76258456Y-99026247D01*
X76734647Y-99454819D02*
X76734647Y-98788152D01*
X76734647Y-98978628D02*
X76782266Y-98883390D01*
X76782266Y-98883390D02*
X76829885Y-98835771D01*
X76829885Y-98835771D02*
X76925123Y-98788152D01*
X76925123Y-98788152D02*
X77020361Y-98788152D01*
X77210838Y-98788152D02*
X77591790Y-98788152D01*
X77353695Y-98454819D02*
X77353695Y-99311961D01*
X77353695Y-99311961D02*
X77401314Y-99407200D01*
X77401314Y-99407200D02*
X77496552Y-99454819D01*
X77496552Y-99454819D02*
X77591790Y-99454819D01*
X77925124Y-98788152D02*
X77925124Y-99454819D01*
X77925124Y-98883390D02*
X77972743Y-98835771D01*
X77972743Y-98835771D02*
X78067981Y-98788152D01*
X78067981Y-98788152D02*
X78210838Y-98788152D01*
X78210838Y-98788152D02*
X78306076Y-98835771D01*
X78306076Y-98835771D02*
X78353695Y-98931009D01*
X78353695Y-98931009D02*
X78353695Y-99454819D01*
X79210838Y-99407200D02*
X79115600Y-99454819D01*
X79115600Y-99454819D02*
X78925124Y-99454819D01*
X78925124Y-99454819D02*
X78829886Y-99407200D01*
X78829886Y-99407200D02*
X78782267Y-99311961D01*
X78782267Y-99311961D02*
X78782267Y-98931009D01*
X78782267Y-98931009D02*
X78829886Y-98835771D01*
X78829886Y-98835771D02*
X78925124Y-98788152D01*
X78925124Y-98788152D02*
X79115600Y-98788152D01*
X79115600Y-98788152D02*
X79210838Y-98835771D01*
X79210838Y-98835771D02*
X79258457Y-98931009D01*
X79258457Y-98931009D02*
X79258457Y-99026247D01*
X79258457Y-99026247D02*
X78782267Y-99121485D01*
X79544172Y-98788152D02*
X79925124Y-98788152D01*
X79687029Y-98454819D02*
X79687029Y-99311961D01*
X79687029Y-99311961D02*
X79734648Y-99407200D01*
X79734648Y-99407200D02*
X79829886Y-99454819D01*
X79829886Y-99454819D02*
X79925124Y-99454819D01*
X80258458Y-99073866D02*
X81020363Y-99073866D01*
X81496553Y-98788152D02*
X81496553Y-99454819D01*
X81496553Y-98883390D02*
X81544172Y-98835771D01*
X81544172Y-98835771D02*
X81639410Y-98788152D01*
X81639410Y-98788152D02*
X81782267Y-98788152D01*
X81782267Y-98788152D02*
X81877505Y-98835771D01*
X81877505Y-98835771D02*
X81925124Y-98931009D01*
X81925124Y-98931009D02*
X81925124Y-99454819D01*
X82782267Y-99407200D02*
X82687029Y-99454819D01*
X82687029Y-99454819D02*
X82496553Y-99454819D01*
X82496553Y-99454819D02*
X82401315Y-99407200D01*
X82401315Y-99407200D02*
X82353696Y-99311961D01*
X82353696Y-99311961D02*
X82353696Y-98931009D01*
X82353696Y-98931009D02*
X82401315Y-98835771D01*
X82401315Y-98835771D02*
X82496553Y-98788152D01*
X82496553Y-98788152D02*
X82687029Y-98788152D01*
X82687029Y-98788152D02*
X82782267Y-98835771D01*
X82782267Y-98835771D02*
X82829886Y-98931009D01*
X82829886Y-98931009D02*
X82829886Y-99026247D01*
X82829886Y-99026247D02*
X82353696Y-99121485D01*
X83401315Y-99454819D02*
X83306077Y-99407200D01*
X83306077Y-99407200D02*
X83258458Y-99359580D01*
X83258458Y-99359580D02*
X83210839Y-99264342D01*
X83210839Y-99264342D02*
X83210839Y-98978628D01*
X83210839Y-98978628D02*
X83258458Y-98883390D01*
X83258458Y-98883390D02*
X83306077Y-98835771D01*
X83306077Y-98835771D02*
X83401315Y-98788152D01*
X83401315Y-98788152D02*
X83544172Y-98788152D01*
X83544172Y-98788152D02*
X83639410Y-98835771D01*
X83639410Y-98835771D02*
X83687029Y-98883390D01*
X83687029Y-98883390D02*
X83734648Y-98978628D01*
X83734648Y-98978628D02*
X83734648Y-99264342D01*
X83734648Y-99264342D02*
X83687029Y-99359580D01*
X83687029Y-99359580D02*
X83639410Y-99407200D01*
X83639410Y-99407200D02*
X83544172Y-99454819D01*
X83544172Y-99454819D02*
X83401315Y-99454819D01*
X84163220Y-98788152D02*
X84163220Y-99788152D01*
X84163220Y-98835771D02*
X84258458Y-98788152D01*
X84258458Y-98788152D02*
X84448934Y-98788152D01*
X84448934Y-98788152D02*
X84544172Y-98835771D01*
X84544172Y-98835771D02*
X84591791Y-98883390D01*
X84591791Y-98883390D02*
X84639410Y-98978628D01*
X84639410Y-98978628D02*
X84639410Y-99264342D01*
X84639410Y-99264342D02*
X84591791Y-99359580D01*
X84591791Y-99359580D02*
X84544172Y-99407200D01*
X84544172Y-99407200D02*
X84448934Y-99454819D01*
X84448934Y-99454819D02*
X84258458Y-99454819D01*
X84258458Y-99454819D02*
X84163220Y-99407200D01*
X85067982Y-99454819D02*
X85067982Y-98788152D01*
X85067982Y-98454819D02*
X85020363Y-98502438D01*
X85020363Y-98502438D02*
X85067982Y-98550057D01*
X85067982Y-98550057D02*
X85115601Y-98502438D01*
X85115601Y-98502438D02*
X85067982Y-98454819D01*
X85067982Y-98454819D02*
X85067982Y-98550057D01*
X85448934Y-99454819D02*
X85972743Y-98788152D01*
X85448934Y-98788152D02*
X85972743Y-99454819D01*
X86734648Y-99407200D02*
X86639410Y-99454819D01*
X86639410Y-99454819D02*
X86448934Y-99454819D01*
X86448934Y-99454819D02*
X86353696Y-99407200D01*
X86353696Y-99407200D02*
X86306077Y-99311961D01*
X86306077Y-99311961D02*
X86306077Y-98931009D01*
X86306077Y-98931009D02*
X86353696Y-98835771D01*
X86353696Y-98835771D02*
X86448934Y-98788152D01*
X86448934Y-98788152D02*
X86639410Y-98788152D01*
X86639410Y-98788152D02*
X86734648Y-98835771D01*
X86734648Y-98835771D02*
X86782267Y-98931009D01*
X86782267Y-98931009D02*
X86782267Y-99026247D01*
X86782267Y-99026247D02*
X86306077Y-99121485D01*
X87353696Y-99454819D02*
X87258458Y-99407200D01*
X87258458Y-99407200D02*
X87210839Y-99311961D01*
X87210839Y-99311961D02*
X87210839Y-98454819D01*
X88401316Y-98788152D02*
X88639411Y-99454819D01*
X88639411Y-99454819D02*
X88877506Y-98788152D01*
X89782268Y-99454819D02*
X89210840Y-99454819D01*
X89496554Y-99454819D02*
X89496554Y-98454819D01*
X89496554Y-98454819D02*
X89401316Y-98597676D01*
X89401316Y-98597676D02*
X89306078Y-98692914D01*
X89306078Y-98692914D02*
X89210840Y-98740533D01*
X90210840Y-99359580D02*
X90258459Y-99407200D01*
X90258459Y-99407200D02*
X90210840Y-99454819D01*
X90210840Y-99454819D02*
X90163221Y-99407200D01*
X90163221Y-99407200D02*
X90210840Y-99359580D01*
X90210840Y-99359580D02*
X90210840Y-99454819D01*
X90877506Y-98454819D02*
X90972744Y-98454819D01*
X90972744Y-98454819D02*
X91067982Y-98502438D01*
X91067982Y-98502438D02*
X91115601Y-98550057D01*
X91115601Y-98550057D02*
X91163220Y-98645295D01*
X91163220Y-98645295D02*
X91210839Y-98835771D01*
X91210839Y-98835771D02*
X91210839Y-99073866D01*
X91210839Y-99073866D02*
X91163220Y-99264342D01*
X91163220Y-99264342D02*
X91115601Y-99359580D01*
X91115601Y-99359580D02*
X91067982Y-99407200D01*
X91067982Y-99407200D02*
X90972744Y-99454819D01*
X90972744Y-99454819D02*
X90877506Y-99454819D01*
X90877506Y-99454819D02*
X90782268Y-99407200D01*
X90782268Y-99407200D02*
X90734649Y-99359580D01*
X90734649Y-99359580D02*
X90687030Y-99264342D01*
X90687030Y-99264342D02*
X90639411Y-99073866D01*
X90639411Y-99073866D02*
X90639411Y-98835771D01*
X90639411Y-98835771D02*
X90687030Y-98645295D01*
X90687030Y-98645295D02*
X90734649Y-98550057D01*
X90734649Y-98550057D02*
X90782268Y-98502438D01*
X90782268Y-98502438D02*
X90877506Y-98454819D01*
X99073866Y-74580951D02*
X99073866Y-73819047D01*
X99454819Y-74199999D02*
X98692914Y-74199999D01*
X97788152Y-92009523D02*
X98454819Y-92009523D01*
X97407200Y-92247618D02*
X98121485Y-92485713D01*
X98121485Y-92485713D02*
X98121485Y-91866666D01*
X50926133Y-73819048D02*
X50926133Y-74580953D01*
X97254819Y-74533332D02*
X97254819Y-73914285D01*
X97254819Y-73914285D02*
X97635771Y-74247618D01*
X97635771Y-74247618D02*
X97635771Y-74104761D01*
X97635771Y-74104761D02*
X97683390Y-74009523D01*
X97683390Y-74009523D02*
X97731009Y-73961904D01*
X97731009Y-73961904D02*
X97826247Y-73914285D01*
X97826247Y-73914285D02*
X98064342Y-73914285D01*
X98064342Y-73914285D02*
X98159580Y-73961904D01*
X98159580Y-73961904D02*
X98207200Y-74009523D01*
X98207200Y-74009523D02*
X98254819Y-74104761D01*
X98254819Y-74104761D02*
X98254819Y-74390475D01*
X98254819Y-74390475D02*
X98207200Y-74485713D01*
X98207200Y-74485713D02*
X98159580Y-74533332D01*
X50926133Y-75419048D02*
X50926133Y-76180953D01*
X50545180Y-75800000D02*
X51307085Y-75800000D01*
D11*
%TO.C,IC1*%
X83900000Y-75150000D02*
X83900000Y-78850000D01*
X83900000Y-78850000D02*
X76100000Y-78850000D01*
X76100000Y-78850000D02*
X76100000Y-75150000D01*
X76100000Y-75150000D02*
X83900000Y-75150000D01*
X84150000Y-73325000D02*
X84150000Y-74800000D01*
D12*
%TO.C,R28*%
X60646359Y-83820000D02*
X60953641Y-83820000D01*
X60646359Y-84580000D02*
X60953641Y-84580000D01*
%TO.C,C8*%
X89892164Y-96440000D02*
X90107836Y-96440000D01*
X89892164Y-97160000D02*
X90107836Y-97160000D01*
%TO.C,J7*%
X77675000Y-67370000D02*
X77675000Y-65370000D01*
X77475000Y-70960000D02*
X61525000Y-70960000D01*
X77475000Y-64680000D02*
X77475000Y-70960000D01*
X77475000Y-49040000D02*
X77475000Y-61480000D01*
X61525000Y-70960000D02*
X61525000Y-64680000D01*
X61525000Y-61480000D02*
X61525000Y-49040000D01*
X61525000Y-49040000D02*
X77475000Y-49040000D01*
%TO.C,J1*%
X91080000Y-57810000D02*
X91080000Y-50190000D01*
X91080000Y-50190000D02*
X80920000Y-50190000D01*
X80920000Y-57810000D02*
X91080000Y-57810000D01*
X80920000Y-51460000D02*
X91080000Y-51460000D01*
X80920000Y-50190000D02*
X80920000Y-57810000D01*
%TO.C,C20*%
X68360000Y-74292164D02*
X68360000Y-74507836D01*
X67640000Y-74292164D02*
X67640000Y-74507836D01*
%TO.C,C6*%
X83860000Y-96892164D02*
X83860000Y-97107836D01*
X83140000Y-96892164D02*
X83140000Y-97107836D01*
%TO.C,C13*%
X89892164Y-88040000D02*
X90107836Y-88040000D01*
X89892164Y-88760000D02*
X90107836Y-88760000D01*
%TO.C,C28*%
X64560000Y-89692164D02*
X64560000Y-89907836D01*
X63840000Y-89692164D02*
X63840000Y-89907836D01*
%TO.C,U2*%
X91410000Y-73400000D02*
X91410000Y-79410000D01*
X84590000Y-75650000D02*
X84590000Y-79410000D01*
X91410000Y-79410000D02*
X90150000Y-79410000D01*
X84590000Y-79410000D02*
X85850000Y-79410000D01*
%TO.C,J4*%
X92190000Y-91620000D02*
X92190000Y-76380000D01*
X98540000Y-91620000D02*
X98540000Y-76380000D01*
X99810000Y-91620000D02*
X92190000Y-91620000D01*
X99810000Y-91620000D02*
X99810000Y-76380000D01*
X99810000Y-76380000D02*
X92190000Y-76380000D01*
%TO.C,C7*%
X84860000Y-96892164D02*
X84860000Y-97107836D01*
X84140000Y-96892164D02*
X84140000Y-97107836D01*
%TO.C,C30*%
X63560000Y-89692164D02*
X63560000Y-89907836D01*
X62840000Y-89692164D02*
X62840000Y-89907836D01*
%TO.C,C1*%
X82490000Y-60140580D02*
X82490000Y-59859420D01*
X83510000Y-60140580D02*
X83510000Y-59859420D01*
%TO.C,R3*%
X60620000Y-89953641D02*
X60620000Y-89646359D01*
X61380000Y-89953641D02*
X61380000Y-89646359D01*
%TO.C,J3*%
X92190000Y-73620000D02*
X92190000Y-58380000D01*
X98540000Y-73620000D02*
X98540000Y-58380000D01*
X99810000Y-73620000D02*
X92190000Y-73620000D01*
X99810000Y-73620000D02*
X99810000Y-58380000D01*
X99810000Y-58380000D02*
X92190000Y-58380000D01*
%TO.C,R26*%
X74953641Y-81580000D02*
X74646359Y-81580000D01*
X74953641Y-80820000D02*
X74646359Y-80820000D01*
%TO.C,C17*%
X65860000Y-72292164D02*
X65860000Y-72507836D01*
X65140000Y-72292164D02*
X65140000Y-72507836D01*
%TO.C,R10*%
X66120000Y-72553641D02*
X66120000Y-72246359D01*
X66880000Y-72553641D02*
X66880000Y-72246359D01*
%TO.C,R1*%
X59820000Y-60663641D02*
X59820000Y-60356359D01*
X60580000Y-60663641D02*
X60580000Y-60356359D01*
%TO.C,R8*%
X74620000Y-74553641D02*
X74620000Y-74246359D01*
X75380000Y-74553641D02*
X75380000Y-74246359D01*
%TO.C,C24*%
X62640000Y-74507836D02*
X62640000Y-74292164D01*
X63360000Y-74507836D02*
X63360000Y-74292164D01*
%TO.C,R5*%
X90153641Y-94980000D02*
X89846359Y-94980000D01*
X90153641Y-94220000D02*
X89846359Y-94220000D01*
%TO.C,U1*%
X79442000Y-69767500D02*
X79442000Y-71007500D01*
X79442000Y-71007500D02*
X80682000Y-71007500D01*
X79682000Y-62147500D02*
X79682000Y-70767500D01*
X79682000Y-62147500D02*
X91403000Y-62147500D01*
X79682000Y-70767500D02*
X91403000Y-70767500D01*
X91403000Y-62147500D02*
X91403000Y-70767500D01*
%TO.C,D2*%
X60935000Y-50315000D02*
X59465000Y-50315000D01*
X59465000Y-50315000D02*
X59465000Y-52600000D01*
X60935000Y-52600000D02*
X60935000Y-50315000D01*
%TO.C,R14*%
X65620000Y-74553641D02*
X65620000Y-74246359D01*
X66380000Y-74553641D02*
X66380000Y-74246359D01*
%TO.C,R27*%
X74953641Y-80580000D02*
X74646359Y-80580000D01*
X74953641Y-79820000D02*
X74646359Y-79820000D01*
%TO.C,R2*%
X58220000Y-60663641D02*
X58220000Y-60356359D01*
X58980000Y-60663641D02*
X58980000Y-60356359D01*
%TO.C,R21*%
X74953641Y-79580000D02*
X74646359Y-79580000D01*
X74953641Y-78820000D02*
X74646359Y-78820000D01*
%TO.C,C26*%
X60907836Y-80560000D02*
X60692164Y-80560000D01*
X60907836Y-79840000D02*
X60692164Y-79840000D01*
%TO.C,C27*%
X60907836Y-82560000D02*
X60692164Y-82560000D01*
X60907836Y-81840000D02*
X60692164Y-81840000D01*
%TO.C,R13*%
X69620000Y-74553641D02*
X69620000Y-74246359D01*
X70380000Y-74553641D02*
X70380000Y-74246359D01*
%TO.C,R29*%
X64380000Y-74246359D02*
X64380000Y-74553641D01*
X63620000Y-74246359D02*
X63620000Y-74553641D01*
%TO.C,R16*%
X66620000Y-74553641D02*
X66620000Y-74246359D01*
X67380000Y-74553641D02*
X67380000Y-74246359D01*
%TO.C,J2*%
X72310000Y-94245000D02*
X72310000Y-95375000D01*
X71550000Y-94245000D02*
X72310000Y-94245000D01*
X70790000Y-94245000D02*
X65775000Y-94245000D01*
X70790000Y-94245000D02*
X70790000Y-94811529D01*
X65775000Y-94245000D02*
X65775000Y-95067470D01*
X65775000Y-95682530D02*
X65775000Y-96337470D01*
X70790000Y-95938471D02*
X70790000Y-96081529D01*
X72245000Y-96135000D02*
X72245000Y-96337470D01*
X72113471Y-96135000D02*
X72245000Y-96135000D01*
X70843471Y-96135000D02*
X70986529Y-96135000D01*
X72245000Y-96952530D02*
X72245000Y-97775000D01*
X65775000Y-96952530D02*
X65775000Y-97775000D01*
X72245000Y-97775000D02*
X65775000Y-97775000D01*
%TO.C,C4*%
X79040000Y-84107836D02*
X79040000Y-83892164D01*
X79760000Y-84107836D02*
X79760000Y-83892164D01*
%TO.C,C22*%
X70640000Y-74507836D02*
X70640000Y-74292164D01*
X71360000Y-74507836D02*
X71360000Y-74292164D01*
%TO.C,R23*%
X74953641Y-84580000D02*
X74646359Y-84580000D01*
X74953641Y-83820000D02*
X74646359Y-83820000D01*
%TO.C,Y1*%
X88350000Y-93000000D02*
X91650000Y-93000000D01*
X91650000Y-93000000D02*
X91650000Y-89000000D01*
%TO.C,C3*%
X89359420Y-71490000D02*
X89640580Y-71490000D01*
X89359420Y-72510000D02*
X89640580Y-72510000D01*
%TO.C,C12*%
X90107836Y-93960000D02*
X89892164Y-93960000D01*
X90107836Y-93240000D02*
X89892164Y-93240000D01*
%TO.C,SW1*%
X63000000Y-93250000D02*
X61000000Y-93250000D01*
X64300000Y-94250000D02*
X64750000Y-94700000D01*
X59700000Y-94250000D02*
X59250000Y-94700000D01*
X64750000Y-94700000D02*
X64750000Y-97300000D01*
X59250000Y-94700000D02*
X59250000Y-97300000D01*
X64300000Y-97750000D02*
X64750000Y-97300000D01*
X59700000Y-97750000D02*
X59250000Y-97300000D01*
X63000000Y-98750000D02*
X61000000Y-98750000D01*
%TO.C,C21*%
X71760000Y-89692164D02*
X71760000Y-89907836D01*
X71040000Y-89692164D02*
X71040000Y-89907836D01*
%TO.C,R4*%
X82880000Y-71846359D02*
X82880000Y-72153641D01*
X82120000Y-71846359D02*
X82120000Y-72153641D01*
%TO.C,C5*%
X75607836Y-93560000D02*
X75392164Y-93560000D01*
X75607836Y-92840000D02*
X75392164Y-92840000D01*
%TO.C,R6*%
X82880000Y-96846359D02*
X82880000Y-97153641D01*
X82120000Y-96846359D02*
X82120000Y-97153641D01*
%TO.C,C23*%
X64640000Y-74507836D02*
X64640000Y-74292164D01*
X65360000Y-74507836D02*
X65360000Y-74292164D01*
%TO.C,R19*%
X62380000Y-74246359D02*
X62380000Y-74553641D01*
X61620000Y-74246359D02*
X61620000Y-74553641D01*
%TO.C,R20*%
X65820000Y-89953641D02*
X65820000Y-89646359D01*
X66580000Y-89953641D02*
X66580000Y-89646359D01*
%TO.C,U3*%
X73440000Y-96000000D02*
X73440000Y-97800000D01*
X73440000Y-96000000D02*
X73440000Y-95200000D01*
X76560000Y-96000000D02*
X76560000Y-96800000D01*
X76560000Y-96000000D02*
X76560000Y-95200000D01*
%TO.C,Y2*%
X66800000Y-88150000D02*
X66800000Y-91450000D01*
X66800000Y-91450000D02*
X70800000Y-91450000D01*
%TO.C,C9*%
X89892164Y-95440000D02*
X90107836Y-95440000D01*
X89892164Y-96160000D02*
X90107836Y-96160000D01*
%TO.C,C10*%
X89892164Y-86840000D02*
X90107836Y-86840000D01*
X89892164Y-87560000D02*
X90107836Y-87560000D01*
%TO.C,C2*%
X86140580Y-72510000D02*
X85859420Y-72510000D01*
X86140580Y-71490000D02*
X85859420Y-71490000D01*
%TO.C,C18*%
X69860000Y-72292164D02*
X69860000Y-72507836D01*
X69140000Y-72292164D02*
X69140000Y-72507836D01*
%TO.C,C29*%
X60907836Y-78560000D02*
X60692164Y-78560000D01*
X60907836Y-77840000D02*
X60692164Y-77840000D01*
%TO.C,R17*%
X74953641Y-77580000D02*
X74646359Y-77580000D01*
X74953641Y-76820000D02*
X74646359Y-76820000D01*
%TO.C,C11*%
X59640000Y-89907836D02*
X59640000Y-89692164D01*
X60360000Y-89907836D02*
X60360000Y-89692164D01*
%TO.C,C31*%
X60692164Y-82840000D02*
X60907836Y-82840000D01*
X60692164Y-83560000D02*
X60907836Y-83560000D01*
%TO.C,C32*%
X60907836Y-81560000D02*
X60692164Y-81560000D01*
X60907836Y-80840000D02*
X60692164Y-80840000D01*
%TO.C,R15*%
X68620000Y-74553641D02*
X68620000Y-74246359D01*
X69380000Y-74553641D02*
X69380000Y-74246359D01*
%TO.C,R18*%
X74953641Y-78580000D02*
X74646359Y-78580000D01*
X74953641Y-77820000D02*
X74646359Y-77820000D01*
%TO.C,R9*%
X71620000Y-74553641D02*
X71620000Y-74246359D01*
X72380000Y-74553641D02*
X72380000Y-74246359D01*
%TO.C,C14*%
X83140000Y-72107836D02*
X83140000Y-71892164D01*
X83860000Y-72107836D02*
X83860000Y-71892164D01*
%TO.C,U5*%
X71410000Y-77790000D02*
X70960000Y-77790000D01*
X70960000Y-77790000D02*
X70960000Y-76500000D01*
X64190000Y-77790000D02*
X64640000Y-77790000D01*
X71410000Y-78240000D02*
X71410000Y-77790000D01*
X64190000Y-78240000D02*
X64190000Y-77790000D01*
X71410000Y-84560000D02*
X71410000Y-85010000D01*
X64190000Y-84560000D02*
X64190000Y-85010000D01*
X71410000Y-85010000D02*
X70960000Y-85010000D01*
X64190000Y-85010000D02*
X64640000Y-85010000D01*
%TO.C,C15*%
X84160000Y-81892164D02*
X84160000Y-82107836D01*
X83440000Y-81892164D02*
X83440000Y-82107836D01*
%TO.C,C16*%
X70860000Y-72292164D02*
X70860000Y-72507836D01*
X70140000Y-72292164D02*
X70140000Y-72507836D01*
%TO.C,D3*%
X59335000Y-50315000D02*
X57865000Y-50315000D01*
X57865000Y-50315000D02*
X57865000Y-52600000D01*
X59335000Y-52600000D02*
X59335000Y-50315000D01*
%TO.C,J5*%
X57810000Y-76380000D02*
X57810000Y-91620000D01*
X51460000Y-76380000D02*
X51460000Y-91620000D01*
X50190000Y-76380000D02*
X57810000Y-76380000D01*
X50190000Y-76380000D02*
X50190000Y-91620000D01*
X50190000Y-91620000D02*
X57810000Y-91620000D01*
%TO.C,R22*%
X61380000Y-74246359D02*
X61380000Y-74553641D01*
X60620000Y-74246359D02*
X60620000Y-74553641D01*
%TO.C,R12*%
X72620000Y-74553641D02*
X72620000Y-74246359D01*
X73380000Y-74553641D02*
X73380000Y-74246359D01*
%TO.C,C25*%
X60907836Y-79560000D02*
X60692164Y-79560000D01*
X60907836Y-78840000D02*
X60692164Y-78840000D01*
%TO.C,U4*%
X85610000Y-94110000D02*
X85610000Y-93660000D01*
X85610000Y-93660000D02*
X86900000Y-93660000D01*
X85610000Y-86890000D02*
X85610000Y-87340000D01*
X85160000Y-94110000D02*
X85610000Y-94110000D01*
X85160000Y-86890000D02*
X85610000Y-86890000D01*
X78840000Y-94110000D02*
X78390000Y-94110000D01*
X78840000Y-86890000D02*
X78390000Y-86890000D01*
X78390000Y-94110000D02*
X78390000Y-93660000D01*
X78390000Y-86890000D02*
X78390000Y-87340000D01*
%TO.C,D1*%
X83990000Y-58350000D02*
X83990000Y-61650000D01*
X83990000Y-58350000D02*
X89500000Y-58350000D01*
X83990000Y-61650000D02*
X89500000Y-61650000D01*
%TO.C,R11*%
X73620000Y-74553641D02*
X73620000Y-74246359D01*
X74380000Y-74553641D02*
X74380000Y-74246359D01*
%TO.C,C19*%
X64840000Y-89907836D02*
X64840000Y-89692164D01*
X65560000Y-89907836D02*
X65560000Y-89692164D01*
%TO.C,R25*%
X74953641Y-82580000D02*
X74646359Y-82580000D01*
X74953641Y-81820000D02*
X74646359Y-81820000D01*
%TO.C,J6*%
X57810000Y-58380000D02*
X57810000Y-73620000D01*
X51460000Y-58380000D02*
X51460000Y-73620000D01*
X50190000Y-58380000D02*
X57810000Y-58380000D01*
X50190000Y-58380000D02*
X50190000Y-73620000D01*
X50190000Y-73620000D02*
X57810000Y-73620000D01*
%TO.C,R24*%
X74953641Y-83580000D02*
X74646359Y-83580000D01*
X74953641Y-82820000D02*
X74646359Y-82820000D01*
%TO.C,R7*%
X83180000Y-81846359D02*
X83180000Y-82153641D01*
X82420000Y-81846359D02*
X82420000Y-82153641D01*
%TD*%
%LPC*%
D13*
%TO.C,IC1*%
X83575000Y-74062000D03*
X82925000Y-74062000D03*
X82275000Y-74062000D03*
X81625000Y-74062000D03*
X80975000Y-74062000D03*
X80325000Y-74062000D03*
X79675000Y-74062000D03*
X79025000Y-74062000D03*
X78375000Y-74062000D03*
X77725000Y-74062000D03*
X77075000Y-74062000D03*
X76425000Y-74062000D03*
X76425000Y-79938000D03*
X77075000Y-79938000D03*
X77725000Y-79938000D03*
X78375000Y-79938000D03*
X79025000Y-79938000D03*
X79675000Y-79938000D03*
X80325000Y-79938000D03*
X80975000Y-79938000D03*
X81625000Y-79938000D03*
X82275000Y-79938000D03*
X82925000Y-79938000D03*
X83575000Y-79938000D03*
%TD*%
D14*
%TO.C,R28*%
X60290000Y-84200000D03*
X61310000Y-84200000D03*
%TD*%
D15*
%TO.C,C8*%
X89520000Y-96800000D03*
X90480000Y-96800000D03*
%TD*%
D16*
%TO.C,J7*%
X75215000Y-60030000D03*
X63785000Y-60030000D03*
D17*
X63175000Y-56650000D03*
X65715000Y-55130000D03*
X73285000Y-56650000D03*
X75825000Y-55130000D03*
D18*
X73945000Y-66370000D03*
D19*
X72675000Y-68910000D03*
X71405000Y-66370000D03*
X70135000Y-68910000D03*
X68865000Y-66370000D03*
X67595000Y-68910000D03*
X66325000Y-66370000D03*
X65055000Y-68910000D03*
D20*
X77275000Y-63080000D03*
X61725000Y-63080000D03*
%TD*%
D21*
%TO.C,J1*%
X88540000Y-54000000D03*
D22*
X83460000Y-54000000D03*
%TD*%
D23*
%TO.C,C20*%
X68000000Y-73920000D03*
X68000000Y-74880000D03*
%TD*%
%TO.C,C6*%
X83500000Y-96520000D03*
X83500000Y-97480000D03*
%TD*%
D15*
%TO.C,C13*%
X89520000Y-88400000D03*
X90480000Y-88400000D03*
%TD*%
D23*
%TO.C,C28*%
X64200000Y-89320000D03*
X64200000Y-90280000D03*
%TD*%
D24*
%TO.C,U2*%
X90300000Y-74350000D03*
X88000000Y-74350000D03*
D25*
X88000000Y-80650000D03*
D24*
X85700000Y-74350000D03*
%TD*%
D21*
%TO.C,J4*%
X96000000Y-89080000D03*
D22*
X96000000Y-84000000D03*
X96000000Y-78920000D03*
%TD*%
D23*
%TO.C,C7*%
X84500000Y-96520000D03*
X84500000Y-97480000D03*
%TD*%
%TO.C,C30*%
X63200000Y-89320000D03*
X63200000Y-90280000D03*
%TD*%
D26*
%TO.C,C1*%
X83000000Y-60775000D03*
X83000000Y-59225000D03*
%TD*%
D27*
%TO.C,R3*%
X61000000Y-90310000D03*
X61000000Y-89290000D03*
%TD*%
D21*
%TO.C,J3*%
X96000000Y-71080000D03*
D22*
X96000000Y-66000000D03*
X96000000Y-60920000D03*
%TD*%
D28*
%TO.C,R26*%
X75310000Y-81200000D03*
X74290000Y-81200000D03*
%TD*%
D23*
%TO.C,C17*%
X65500000Y-71920000D03*
X65500000Y-72880000D03*
%TD*%
D27*
%TO.C,R10*%
X66500000Y-72910000D03*
X66500000Y-71890000D03*
%TD*%
%TO.C,R1*%
X60200000Y-61020000D03*
X60200000Y-60000000D03*
%TD*%
%TO.C,R8*%
X75000000Y-74910000D03*
X75000000Y-73890000D03*
%TD*%
D29*
%TO.C,C24*%
X63000000Y-74880000D03*
X63000000Y-73920000D03*
%TD*%
D28*
%TO.C,R5*%
X90510000Y-94600000D03*
X89490000Y-94600000D03*
%TD*%
D30*
%TO.C,U1*%
X83053000Y-68707500D03*
D31*
X85593000Y-68707500D03*
X88133000Y-68707500D03*
%TD*%
D32*
%TO.C,H1*%
X54500000Y-54500000D03*
%TD*%
D33*
%TO.C,D2*%
X60200000Y-51012500D03*
X60200000Y-52587500D03*
%TD*%
D27*
%TO.C,R14*%
X66000000Y-74910000D03*
X66000000Y-73890000D03*
%TD*%
D28*
%TO.C,R27*%
X75310000Y-80200000D03*
X74290000Y-80200000D03*
%TD*%
D27*
%TO.C,R2*%
X58600000Y-61020000D03*
X58600000Y-60000000D03*
%TD*%
D28*
%TO.C,R21*%
X75310000Y-79200000D03*
X74290000Y-79200000D03*
%TD*%
D34*
%TO.C,C26*%
X61280000Y-80200000D03*
X60320000Y-80200000D03*
%TD*%
%TO.C,C27*%
X61280000Y-82200000D03*
X60320000Y-82200000D03*
%TD*%
D27*
%TO.C,R13*%
X70000000Y-74910000D03*
X70000000Y-73890000D03*
%TD*%
D35*
%TO.C,R29*%
X64000000Y-73890000D03*
X64000000Y-74910000D03*
%TD*%
D27*
%TO.C,R16*%
X67000000Y-74910000D03*
X67000000Y-73890000D03*
%TD*%
D36*
%TO.C,J2*%
X71550000Y-95375000D03*
D37*
X71550000Y-96645000D03*
X70280000Y-95375000D03*
X70280000Y-96645000D03*
X69010000Y-95375000D03*
X69010000Y-96645000D03*
X67740000Y-95375000D03*
X67740000Y-96645000D03*
X66470000Y-95375000D03*
X66470000Y-96645000D03*
%TD*%
D29*
%TO.C,C4*%
X79400000Y-84480000D03*
X79400000Y-83520000D03*
%TD*%
%TO.C,C22*%
X71000000Y-74880000D03*
X71000000Y-73920000D03*
%TD*%
D28*
%TO.C,R23*%
X75310000Y-84200000D03*
X74290000Y-84200000D03*
%TD*%
D38*
%TO.C,Y1*%
X90850000Y-92100000D03*
X90850000Y-89900000D03*
X89150000Y-89900000D03*
X89150000Y-92100000D03*
%TD*%
D39*
%TO.C,C3*%
X88725000Y-72000000D03*
X90275000Y-72000000D03*
%TD*%
D34*
%TO.C,C12*%
X90480000Y-93600000D03*
X89520000Y-93600000D03*
%TD*%
D40*
%TO.C,SW1*%
X63875000Y-93000000D03*
X63875000Y-99000000D03*
X60125000Y-93000000D03*
X60125000Y-99000000D03*
%TD*%
D23*
%TO.C,C21*%
X71400000Y-89320000D03*
X71400000Y-90280000D03*
%TD*%
D35*
%TO.C,R4*%
X82500000Y-71490000D03*
X82500000Y-72510000D03*
%TD*%
D34*
%TO.C,C5*%
X75980000Y-93200000D03*
X75020000Y-93200000D03*
%TD*%
D35*
%TO.C,R6*%
X82500000Y-96490000D03*
X82500000Y-97510000D03*
%TD*%
D29*
%TO.C,C23*%
X65000000Y-74880000D03*
X65000000Y-73920000D03*
%TD*%
D32*
%TO.C,H4*%
X95500000Y-95500000D03*
%TD*%
D35*
%TO.C,R19*%
X62000000Y-73890000D03*
X62000000Y-74910000D03*
%TD*%
D27*
%TO.C,R20*%
X66200000Y-90310000D03*
X66200000Y-89290000D03*
%TD*%
D41*
%TO.C,U3*%
X74050000Y-97137500D03*
X75000000Y-97137500D03*
X75950000Y-97137500D03*
X75950000Y-94862500D03*
X75000000Y-94862500D03*
X74050000Y-94862500D03*
%TD*%
D42*
%TO.C,Y2*%
X67700000Y-90650000D03*
X69900000Y-90650000D03*
X69900000Y-88950000D03*
X67700000Y-88950000D03*
%TD*%
D15*
%TO.C,C9*%
X89520000Y-95800000D03*
X90480000Y-95800000D03*
%TD*%
%TO.C,C10*%
X89520000Y-87200000D03*
X90480000Y-87200000D03*
%TD*%
D43*
%TO.C,C2*%
X86775000Y-72000000D03*
X85225000Y-72000000D03*
%TD*%
D23*
%TO.C,C18*%
X69500000Y-71920000D03*
X69500000Y-72880000D03*
%TD*%
D34*
%TO.C,C29*%
X61280000Y-78200000D03*
X60320000Y-78200000D03*
%TD*%
D28*
%TO.C,R17*%
X75310000Y-77200000D03*
X74290000Y-77200000D03*
%TD*%
D29*
%TO.C,C11*%
X60000000Y-90280000D03*
X60000000Y-89320000D03*
%TD*%
D32*
%TO.C,H3*%
X54500000Y-95500000D03*
%TD*%
D15*
%TO.C,C31*%
X60320000Y-83200000D03*
X61280000Y-83200000D03*
%TD*%
D34*
%TO.C,C32*%
X61280000Y-81200000D03*
X60320000Y-81200000D03*
%TD*%
D27*
%TO.C,R15*%
X69000000Y-74910000D03*
X69000000Y-73890000D03*
%TD*%
D28*
%TO.C,R18*%
X75310000Y-78200000D03*
X74290000Y-78200000D03*
%TD*%
D27*
%TO.C,R9*%
X72000000Y-74910000D03*
X72000000Y-73890000D03*
%TD*%
D29*
%TO.C,C14*%
X83500000Y-72480000D03*
X83500000Y-71520000D03*
%TD*%
D32*
%TO.C,H2*%
X95500000Y-54500000D03*
%TD*%
D44*
%TO.C,U5*%
X70550000Y-77237500D03*
X70050000Y-77237500D03*
X69550000Y-77237500D03*
X69050000Y-77237500D03*
X68550000Y-77237500D03*
X68050000Y-77237500D03*
X67550000Y-77237500D03*
X67050000Y-77237500D03*
X66550000Y-77237500D03*
X66050000Y-77237500D03*
X65550000Y-77237500D03*
X65050000Y-77237500D03*
D45*
X63637500Y-78650000D03*
X63637500Y-79150000D03*
X63637500Y-79650000D03*
X63637500Y-80150000D03*
X63637500Y-80650000D03*
X63637500Y-81150000D03*
X63637500Y-81650000D03*
X63637500Y-82150000D03*
X63637500Y-82650000D03*
X63637500Y-83150000D03*
X63637500Y-83650000D03*
X63637500Y-84150000D03*
D44*
X65050000Y-85562500D03*
X65550000Y-85562500D03*
X66050000Y-85562500D03*
X66550000Y-85562500D03*
X67050000Y-85562500D03*
X67550000Y-85562500D03*
X68050000Y-85562500D03*
X68550000Y-85562500D03*
X69050000Y-85562500D03*
X69550000Y-85562500D03*
X70050000Y-85562500D03*
X70550000Y-85562500D03*
D45*
X71962500Y-84150000D03*
X71962500Y-83650000D03*
X71962500Y-83150000D03*
X71962500Y-82650000D03*
X71962500Y-82150000D03*
X71962500Y-81650000D03*
X71962500Y-81150000D03*
X71962500Y-80650000D03*
X71962500Y-80150000D03*
X71962500Y-79650000D03*
X71962500Y-79150000D03*
X71962500Y-78650000D03*
%TD*%
D23*
%TO.C,C15*%
X83800000Y-81520000D03*
X83800000Y-82480000D03*
%TD*%
%TO.C,C16*%
X70500000Y-71920000D03*
X70500000Y-72880000D03*
%TD*%
D33*
%TO.C,D3*%
X58600000Y-51012500D03*
X58600000Y-52587500D03*
%TD*%
D21*
%TO.C,J5*%
X54000000Y-78920000D03*
D22*
X54000000Y-84000000D03*
X54000000Y-89080000D03*
%TD*%
D35*
%TO.C,R22*%
X61000000Y-73890000D03*
X61000000Y-74910000D03*
%TD*%
D27*
%TO.C,R12*%
X73000000Y-74910000D03*
X73000000Y-73890000D03*
%TD*%
D34*
%TO.C,C25*%
X61280000Y-79200000D03*
X60320000Y-79200000D03*
%TD*%
D46*
%TO.C,U4*%
X86162500Y-93250000D03*
X86162500Y-92750000D03*
X86162500Y-92250000D03*
X86162500Y-91750000D03*
X86162500Y-91250000D03*
X86162500Y-90750000D03*
X86162500Y-90250000D03*
X86162500Y-89750000D03*
X86162500Y-89250000D03*
X86162500Y-88750000D03*
X86162500Y-88250000D03*
X86162500Y-87750000D03*
D47*
X84750000Y-86337500D03*
X84250000Y-86337500D03*
X83750000Y-86337500D03*
X83250000Y-86337500D03*
X82750000Y-86337500D03*
X82250000Y-86337500D03*
X81750000Y-86337500D03*
X81250000Y-86337500D03*
X80750000Y-86337500D03*
X80250000Y-86337500D03*
X79750000Y-86337500D03*
X79250000Y-86337500D03*
D46*
X77837500Y-87750000D03*
X77837500Y-88250000D03*
X77837500Y-88750000D03*
X77837500Y-89250000D03*
X77837500Y-89750000D03*
X77837500Y-90250000D03*
X77837500Y-90750000D03*
X77837500Y-91250000D03*
X77837500Y-91750000D03*
X77837500Y-92250000D03*
X77837500Y-92750000D03*
X77837500Y-93250000D03*
D47*
X79250000Y-94662500D03*
X79750000Y-94662500D03*
X80250000Y-94662500D03*
X80750000Y-94662500D03*
X81250000Y-94662500D03*
X81750000Y-94662500D03*
X82250000Y-94662500D03*
X82750000Y-94662500D03*
X83250000Y-94662500D03*
X83750000Y-94662500D03*
X84250000Y-94662500D03*
X84750000Y-94662500D03*
%TD*%
D48*
%TO.C,D1*%
X85500000Y-60000000D03*
X89500000Y-60000000D03*
%TD*%
D27*
%TO.C,R11*%
X74000000Y-74910000D03*
X74000000Y-73890000D03*
%TD*%
D29*
%TO.C,C19*%
X65200000Y-90280000D03*
X65200000Y-89320000D03*
%TD*%
D28*
%TO.C,R25*%
X75310000Y-82200000D03*
X74290000Y-82200000D03*
%TD*%
D21*
%TO.C,J6*%
X54000000Y-60920000D03*
D22*
X54000000Y-66000000D03*
X54000000Y-71080000D03*
%TD*%
D28*
%TO.C,R24*%
X75310000Y-83200000D03*
X74290000Y-83200000D03*
%TD*%
D35*
%TO.C,R7*%
X82800000Y-81490000D03*
X82800000Y-82510000D03*
%TD*%
%LPD*%
M02*
