%TF.GenerationSoftware,KiCad,Pcbnew,7.0.6*%
%TF.CreationDate,2024-06-28T04:54:33+09:00*%
%TF.ProjectId,artnet-neopixel,6172746e-6574-42d6-9e65-6f706978656c,rev?*%
%TF.SameCoordinates,Original*%
%TF.FileFunction,Soldermask,Bot*%
%TF.FilePolarity,Negative*%
%FSLAX46Y46*%
G04 Gerber Fmt 4.6, Leading zero omitted, Abs format (unit mm)*
G04 Created by KiCad (PCBNEW 7.0.6) date 2024-06-28 04:54:33*
%MOMM*%
%LPD*%
G01*
G04 APERTURE LIST*
%ADD10C,3.250000*%
%ADD11C,1.890000*%
%ADD12R,1.900000X1.900000*%
%ADD13C,1.900000*%
%ADD14C,2.600000*%
%ADD15R,3.000000X3.000000*%
%ADD16C,3.000000*%
%ADD17R,1.500000X2.300000*%
%ADD18O,1.500000X2.300000*%
%ADD19C,6.400000*%
%ADD20R,1.000000X1.000000*%
%ADD21O,1.000000X1.000000*%
%ADD22R,1.500000X1.000000*%
G04 APERTURE END LIST*
D10*
%TO.C,J7*%
X75215000Y-60030000D03*
X63785000Y-60030000D03*
D11*
X63175000Y-56650000D03*
X65715000Y-55130000D03*
X73285000Y-56650000D03*
X75825000Y-55130000D03*
D12*
X73945000Y-66370000D03*
D13*
X72675000Y-68910000D03*
X71405000Y-66370000D03*
X70135000Y-68910000D03*
X68865000Y-66370000D03*
X67595000Y-68910000D03*
X66325000Y-66370000D03*
X65055000Y-68910000D03*
D14*
X77275000Y-63080000D03*
X61725000Y-63080000D03*
%TD*%
D15*
%TO.C,J1*%
X88540000Y-54000000D03*
D16*
X83460000Y-54000000D03*
%TD*%
D15*
%TO.C,J4*%
X96000000Y-89080000D03*
D16*
X96000000Y-84000000D03*
X96000000Y-78920000D03*
%TD*%
D15*
%TO.C,J3*%
X96000000Y-71080000D03*
D16*
X96000000Y-66000000D03*
X96000000Y-60920000D03*
%TD*%
D17*
%TO.C,U1*%
X83053000Y-68707500D03*
D18*
X85593000Y-68707500D03*
X88133000Y-68707500D03*
%TD*%
D19*
%TO.C,H1*%
X54500000Y-54500000D03*
%TD*%
D20*
%TO.C,J2*%
X71550000Y-95375000D03*
D21*
X71550000Y-96645000D03*
X70280000Y-95375000D03*
X70280000Y-96645000D03*
X69010000Y-95375000D03*
X69010000Y-96645000D03*
X67740000Y-95375000D03*
X67740000Y-96645000D03*
X66470000Y-95375000D03*
X66470000Y-96645000D03*
%TD*%
D19*
%TO.C,H4*%
X95500000Y-95500000D03*
%TD*%
%TO.C,H3*%
X54500000Y-95500000D03*
%TD*%
%TO.C,H2*%
X95500000Y-54500000D03*
%TD*%
D15*
%TO.C,J5*%
X54000000Y-78920000D03*
D16*
X54000000Y-84000000D03*
X54000000Y-89080000D03*
%TD*%
D15*
%TO.C,J6*%
X54000000Y-60920000D03*
D16*
X54000000Y-66000000D03*
X54000000Y-71080000D03*
%TD*%
D22*
%TO.C,JP8*%
X82800000Y-86950000D03*
X82800000Y-88250000D03*
%TD*%
%TO.C,JP7*%
X85400000Y-86950000D03*
X85400000Y-88250000D03*
%TD*%
%TO.C,JP3*%
X85400000Y-80050000D03*
X85400000Y-78750000D03*
%TD*%
%TO.C,JP5*%
X90600000Y-86950000D03*
X90600000Y-88250000D03*
%TD*%
%TO.C,JP2*%
X88000000Y-80050000D03*
X88000000Y-78750000D03*
%TD*%
%TO.C,JP4*%
X82800000Y-80050000D03*
X82800000Y-78750000D03*
%TD*%
%TO.C,JP6*%
X88000000Y-86950000D03*
X88000000Y-88250000D03*
%TD*%
%TO.C,JP1*%
X90600000Y-80050000D03*
X90600000Y-78750000D03*
%TD*%
M02*
