M48
; DRILL file {KiCad 7.0.6} date Fri Jun 28 04:54:33 2024
; FORMAT={-:-/ absolute / inch / decimal}
; #@! TF.CreationDate,2024-06-28T04:54:33+09:00
; #@! TF.GenerationSoftware,Kicad,Pcbnew,7.0.6
; #@! TF.FileFunction,Plated,1,4,PTH
FMAT,2
INCH
; #@! TA.AperFunction,Plated,PTH,ViaDrill
T1C0.0157
; #@! TA.AperFunction,Plated,PTH,ComponentDrill
T2C0.0256
; #@! TA.AperFunction,Plated,PTH,ComponentDrill
T3C0.0350
; #@! TA.AperFunction,Plated,PTH,ComponentDrill
T4C0.0354
; #@! TA.AperFunction,Plated,PTH,ComponentDrill
T5C0.0394
; #@! TA.AperFunction,Plated,PTH,ComponentDrill
T6C0.0598
; #@! TA.AperFunction,Plated,PTH,ComponentDrill
T7C0.0630
; #@! TA.AperFunction,Plated,PTH,ComponentDrill
T8C0.1260
%
G90
G05
T1
X2.3071Y-3.4685
X2.3671Y-3.7795
X2.4173Y-3.3583
X2.4449Y-3.5354
X2.4488Y-3.0787
X2.4646Y-1.9882
X2.4882Y-3.4764
X2.5394Y-2.874
X2.5591Y-3.2441
X2.5807Y-3.0965
X2.6496Y-2.8504
X2.6535Y-3.0984
X2.6693Y-3.2047
X2.6772Y-2.8799
X2.685Y-2.9764
X2.7047Y-2.8504
X2.7185Y-3.0984
X2.7756Y-2.7992
X2.815Y-2.874
X2.8465Y-3.5354
X2.8898Y-3.4252
X2.9449Y-3.4803
X2.9449Y-3.4252
X2.9528Y-2.9803
X2.9764Y-3.5039
X2.9921Y-3.4252
X3.0Y-3.315
X3.0079Y-3.5276
X3.0079Y-3.5925
X3.0236Y-2.8622
X3.0394Y-3.7047
X3.0394Y-3.7992
X3.0394Y-3.8425
X3.0551Y-2.9764
X3.0551Y-3.0236
X3.0984Y-3.3504
X3.1102Y-2.815
X3.1417Y-2.9764
X3.1417Y-3.0236
X3.1417Y-3.7874
X3.1811Y-3.0709
X3.1969Y-3.7874
X3.2283Y-3.563
X3.2992Y-3.2835
X3.3307Y-3.2283
X3.3346Y-3.5531
X3.3386Y-3.2835
X3.3622Y-3.7874
X3.3622Y-3.8425
X3.378Y-3.2835
X3.4173Y-3.2835
X3.4567Y-3.2835
X3.4646Y-3.0512
X3.4882Y-3.811
X3.4961Y-3.2835
X3.5236Y-3.3386
X3.5827Y-3.3386
X3.5984Y-3.7717
T2
X2.6169Y-3.7549
X2.6169Y-3.8049
X2.6669Y-3.7549
X2.6669Y-3.8049
X2.7169Y-3.7549
X2.7169Y-3.8049
X2.7669Y-3.7549
X2.7669Y-3.8049
X2.8169Y-3.7549
X2.8169Y-3.8049
T3
X2.4872Y-2.2303
X2.5872Y-2.1705
X2.8852Y-2.2303
X2.9852Y-2.1705
T4
X2.5612Y-2.713
X2.6112Y-2.613
X2.6612Y-2.713
X2.7112Y-2.613
X2.7612Y-2.713
X2.8112Y-2.613
X2.8612Y-2.713
X2.9112Y-2.613
T5
X3.2698Y-2.705
X3.3698Y-2.705
X3.4698Y-2.705
T6
X2.126Y-2.3984
X2.126Y-2.5984
X2.126Y-2.7984
X2.126Y-3.1071
X2.126Y-3.3071
X2.126Y-3.5071
X3.2858Y-2.126
X3.4858Y-2.126
X3.7795Y-2.3984
X3.7795Y-2.5984
X3.7795Y-2.7984
X3.7795Y-3.1071
X3.7795Y-3.3071
X3.7795Y-3.5071
T7
X2.4301Y-2.4835
X3.0423Y-2.4835
T8
X2.1457Y-2.1457
X2.1457Y-3.7598
X3.7598Y-2.1457
X3.7598Y-3.7598
T0
M30
