%TF.GenerationSoftware,KiCad,Pcbnew,7.0.6*%
%TF.CreationDate,2024-06-28T04:54:33+09:00*%
%TF.ProjectId,artnet-neopixel,6172746e-6574-42d6-9e65-6f706978656c,rev?*%
%TF.SameCoordinates,Original*%
%TF.FileFunction,Legend,Bot*%
%TF.FilePolarity,Positive*%
%FSLAX46Y46*%
G04 Gerber Fmt 4.6, Leading zero omitted, Abs format (unit mm)*
G04 Created by KiCad (PCBNEW 7.0.6) date 2024-06-28 04:54:33*
%MOMM*%
%LPD*%
G01*
G04 APERTURE LIST*
%ADD10C,0.150000*%
%ADD11C,0.120000*%
%ADD12C,3.250000*%
%ADD13C,1.890000*%
%ADD14R,1.900000X1.900000*%
%ADD15C,1.900000*%
%ADD16C,2.600000*%
%ADD17R,3.000000X3.000000*%
%ADD18C,3.000000*%
%ADD19R,1.500000X2.300000*%
%ADD20O,1.500000X2.300000*%
%ADD21C,6.400000*%
%ADD22R,1.000000X1.000000*%
%ADD23O,1.000000X1.000000*%
%ADD24R,1.500000X1.000000*%
G04 APERTURE END LIST*
D10*
X88544173Y-98978628D02*
X88591792Y-98931009D01*
X88591792Y-98931009D02*
X88687030Y-98883390D01*
X88687030Y-98883390D02*
X88782268Y-98883390D01*
X88782268Y-98883390D02*
X88877506Y-98931009D01*
X88877506Y-98931009D02*
X88925125Y-98978628D01*
X88925125Y-98978628D02*
X88972744Y-99073866D01*
X88972744Y-99073866D02*
X88972744Y-99169104D01*
X88972744Y-99169104D02*
X88925125Y-99264342D01*
X88925125Y-99264342D02*
X88877506Y-99311961D01*
X88877506Y-99311961D02*
X88782268Y-99359580D01*
X88782268Y-99359580D02*
X88687030Y-99359580D01*
X88687030Y-99359580D02*
X88591792Y-99311961D01*
X88591792Y-99311961D02*
X88544173Y-99264342D01*
X88544173Y-98883390D02*
X88544173Y-99264342D01*
X88544173Y-99264342D02*
X88496554Y-99311961D01*
X88496554Y-99311961D02*
X88448935Y-99311961D01*
X88448935Y-99311961D02*
X88353696Y-99264342D01*
X88353696Y-99264342D02*
X88306077Y-99169104D01*
X88306077Y-99169104D02*
X88306077Y-98931009D01*
X88306077Y-98931009D02*
X88401316Y-98788152D01*
X88401316Y-98788152D02*
X88544173Y-98692914D01*
X88544173Y-98692914D02*
X88734649Y-98645295D01*
X88734649Y-98645295D02*
X88925125Y-98692914D01*
X88925125Y-98692914D02*
X89067982Y-98788152D01*
X89067982Y-98788152D02*
X89163220Y-98931009D01*
X89163220Y-98931009D02*
X89210839Y-99121485D01*
X89210839Y-99121485D02*
X89163220Y-99311961D01*
X89163220Y-99311961D02*
X89067982Y-99454819D01*
X89067982Y-99454819D02*
X88925125Y-99550057D01*
X88925125Y-99550057D02*
X88734649Y-99597676D01*
X88734649Y-99597676D02*
X88544173Y-99550057D01*
X88544173Y-99550057D02*
X88401316Y-99454819D01*
X87877506Y-99454819D02*
X87877506Y-98454819D01*
X87782268Y-99073866D02*
X87496554Y-99454819D01*
X87496554Y-98788152D02*
X87877506Y-99169104D01*
X86687030Y-99407200D02*
X86782268Y-99454819D01*
X86782268Y-99454819D02*
X86972744Y-99454819D01*
X86972744Y-99454819D02*
X87067982Y-99407200D01*
X87067982Y-99407200D02*
X87115601Y-99311961D01*
X87115601Y-99311961D02*
X87115601Y-98931009D01*
X87115601Y-98931009D02*
X87067982Y-98835771D01*
X87067982Y-98835771D02*
X86972744Y-98788152D01*
X86972744Y-98788152D02*
X86782268Y-98788152D01*
X86782268Y-98788152D02*
X86687030Y-98835771D01*
X86687030Y-98835771D02*
X86639411Y-98931009D01*
X86639411Y-98931009D02*
X86639411Y-99026247D01*
X86639411Y-99026247D02*
X87115601Y-99121485D01*
X86210839Y-98788152D02*
X86210839Y-99454819D01*
X86210839Y-98883390D02*
X86163220Y-98835771D01*
X86163220Y-98835771D02*
X86067982Y-98788152D01*
X86067982Y-98788152D02*
X85925125Y-98788152D01*
X85925125Y-98788152D02*
X85829887Y-98835771D01*
X85829887Y-98835771D02*
X85782268Y-98931009D01*
X85782268Y-98931009D02*
X85782268Y-99454819D01*
X85401315Y-98788152D02*
X85163220Y-99454819D01*
X84925125Y-98788152D02*
X85163220Y-99454819D01*
X85163220Y-99454819D02*
X85258458Y-99692914D01*
X85258458Y-99692914D02*
X85306077Y-99740533D01*
X85306077Y-99740533D02*
X85401315Y-99788152D01*
X84401315Y-99454819D02*
X84496553Y-99407200D01*
X84496553Y-99407200D02*
X84544172Y-99359580D01*
X84544172Y-99359580D02*
X84591791Y-99264342D01*
X84591791Y-99264342D02*
X84591791Y-98978628D01*
X84591791Y-98978628D02*
X84544172Y-98883390D01*
X84544172Y-98883390D02*
X84496553Y-98835771D01*
X84496553Y-98835771D02*
X84401315Y-98788152D01*
X84401315Y-98788152D02*
X84258458Y-98788152D01*
X84258458Y-98788152D02*
X84163220Y-98835771D01*
X84163220Y-98835771D02*
X84115601Y-98883390D01*
X84115601Y-98883390D02*
X84067982Y-98978628D01*
X84067982Y-98978628D02*
X84067982Y-99264342D01*
X84067982Y-99264342D02*
X84115601Y-99359580D01*
X84115601Y-99359580D02*
X84163220Y-99407200D01*
X84163220Y-99407200D02*
X84258458Y-99454819D01*
X84258458Y-99454819D02*
X84401315Y-99454819D01*
X83687029Y-99407200D02*
X83591791Y-99454819D01*
X83591791Y-99454819D02*
X83401315Y-99454819D01*
X83401315Y-99454819D02*
X83306077Y-99407200D01*
X83306077Y-99407200D02*
X83258458Y-99311961D01*
X83258458Y-99311961D02*
X83258458Y-99264342D01*
X83258458Y-99264342D02*
X83306077Y-99169104D01*
X83306077Y-99169104D02*
X83401315Y-99121485D01*
X83401315Y-99121485D02*
X83544172Y-99121485D01*
X83544172Y-99121485D02*
X83639410Y-99073866D01*
X83639410Y-99073866D02*
X83687029Y-98978628D01*
X83687029Y-98978628D02*
X83687029Y-98931009D01*
X83687029Y-98931009D02*
X83639410Y-98835771D01*
X83639410Y-98835771D02*
X83544172Y-98788152D01*
X83544172Y-98788152D02*
X83401315Y-98788152D01*
X83401315Y-98788152D02*
X83306077Y-98835771D01*
X82829886Y-99454819D02*
X82829886Y-98454819D01*
X82401315Y-99454819D02*
X82401315Y-98931009D01*
X82401315Y-98931009D02*
X82448934Y-98835771D01*
X82448934Y-98835771D02*
X82544172Y-98788152D01*
X82544172Y-98788152D02*
X82687029Y-98788152D01*
X82687029Y-98788152D02*
X82782267Y-98835771D01*
X82782267Y-98835771D02*
X82829886Y-98883390D01*
X81925124Y-99454819D02*
X81925124Y-98788152D01*
X81925124Y-98454819D02*
X81972743Y-98502438D01*
X81972743Y-98502438D02*
X81925124Y-98550057D01*
X81925124Y-98550057D02*
X81877505Y-98502438D01*
X81877505Y-98502438D02*
X81925124Y-98454819D01*
X81925124Y-98454819D02*
X81925124Y-98550057D01*
X81544172Y-98788152D02*
X81020363Y-98788152D01*
X81020363Y-98788152D02*
X81544172Y-99454819D01*
X81544172Y-99454819D02*
X81020363Y-99454819D01*
X80496553Y-99454819D02*
X80591791Y-99407200D01*
X80591791Y-99407200D02*
X80639410Y-99359580D01*
X80639410Y-99359580D02*
X80687029Y-99264342D01*
X80687029Y-99264342D02*
X80687029Y-98978628D01*
X80687029Y-98978628D02*
X80639410Y-98883390D01*
X80639410Y-98883390D02*
X80591791Y-98835771D01*
X80591791Y-98835771D02*
X80496553Y-98788152D01*
X80496553Y-98788152D02*
X80353696Y-98788152D01*
X80353696Y-98788152D02*
X80258458Y-98835771D01*
X80258458Y-98835771D02*
X80210839Y-98883390D01*
X80210839Y-98883390D02*
X80163220Y-98978628D01*
X80163220Y-98978628D02*
X80163220Y-99264342D01*
X80163220Y-99264342D02*
X80210839Y-99359580D01*
X80210839Y-99359580D02*
X80258458Y-99407200D01*
X80258458Y-99407200D02*
X80353696Y-99454819D01*
X80353696Y-99454819D02*
X80496553Y-99454819D01*
X79353696Y-99407200D02*
X79448934Y-99454819D01*
X79448934Y-99454819D02*
X79639410Y-99454819D01*
X79639410Y-99454819D02*
X79734648Y-99407200D01*
X79734648Y-99407200D02*
X79782267Y-99311961D01*
X79782267Y-99311961D02*
X79782267Y-98931009D01*
X79782267Y-98931009D02*
X79734648Y-98835771D01*
X79734648Y-98835771D02*
X79639410Y-98788152D01*
X79639410Y-98788152D02*
X79448934Y-98788152D01*
X79448934Y-98788152D02*
X79353696Y-98835771D01*
X79353696Y-98835771D02*
X79306077Y-98931009D01*
X79306077Y-98931009D02*
X79306077Y-99026247D01*
X79306077Y-99026247D02*
X79782267Y-99121485D01*
X81263220Y-79854819D02*
X81263220Y-78854819D01*
X81263220Y-78854819D02*
X80691792Y-79854819D01*
X80691792Y-79854819D02*
X80691792Y-78854819D01*
X79834649Y-79807200D02*
X79929887Y-79854819D01*
X79929887Y-79854819D02*
X80120363Y-79854819D01*
X80120363Y-79854819D02*
X80215601Y-79807200D01*
X80215601Y-79807200D02*
X80263220Y-79711961D01*
X80263220Y-79711961D02*
X80263220Y-79331009D01*
X80263220Y-79331009D02*
X80215601Y-79235771D01*
X80215601Y-79235771D02*
X80120363Y-79188152D01*
X80120363Y-79188152D02*
X79929887Y-79188152D01*
X79929887Y-79188152D02*
X79834649Y-79235771D01*
X79834649Y-79235771D02*
X79787030Y-79331009D01*
X79787030Y-79331009D02*
X79787030Y-79426247D01*
X79787030Y-79426247D02*
X80263220Y-79521485D01*
X79501315Y-79188152D02*
X79120363Y-79188152D01*
X79358458Y-78854819D02*
X79358458Y-79711961D01*
X79358458Y-79711961D02*
X79310839Y-79807200D01*
X79310839Y-79807200D02*
X79215601Y-79854819D01*
X79215601Y-79854819D02*
X79120363Y-79854819D01*
X81310839Y-88007200D02*
X81167982Y-88054819D01*
X81167982Y-88054819D02*
X80929887Y-88054819D01*
X80929887Y-88054819D02*
X80834649Y-88007200D01*
X80834649Y-88007200D02*
X80787030Y-87959580D01*
X80787030Y-87959580D02*
X80739411Y-87864342D01*
X80739411Y-87864342D02*
X80739411Y-87769104D01*
X80739411Y-87769104D02*
X80787030Y-87673866D01*
X80787030Y-87673866D02*
X80834649Y-87626247D01*
X80834649Y-87626247D02*
X80929887Y-87578628D01*
X80929887Y-87578628D02*
X81120363Y-87531009D01*
X81120363Y-87531009D02*
X81215601Y-87483390D01*
X81215601Y-87483390D02*
X81263220Y-87435771D01*
X81263220Y-87435771D02*
X81310839Y-87340533D01*
X81310839Y-87340533D02*
X81310839Y-87245295D01*
X81310839Y-87245295D02*
X81263220Y-87150057D01*
X81263220Y-87150057D02*
X81215601Y-87102438D01*
X81215601Y-87102438D02*
X81120363Y-87054819D01*
X81120363Y-87054819D02*
X80882268Y-87054819D01*
X80882268Y-87054819D02*
X80739411Y-87102438D01*
X79882268Y-87388152D02*
X79882268Y-88054819D01*
X80310839Y-87388152D02*
X80310839Y-87911961D01*
X80310839Y-87911961D02*
X80263220Y-88007200D01*
X80263220Y-88007200D02*
X80167982Y-88054819D01*
X80167982Y-88054819D02*
X80025125Y-88054819D01*
X80025125Y-88054819D02*
X79929887Y-88007200D01*
X79929887Y-88007200D02*
X79882268Y-87959580D01*
X79406077Y-88054819D02*
X79406077Y-87054819D01*
X79406077Y-87435771D02*
X79310839Y-87388152D01*
X79310839Y-87388152D02*
X79120363Y-87388152D01*
X79120363Y-87388152D02*
X79025125Y-87435771D01*
X79025125Y-87435771D02*
X78977506Y-87483390D01*
X78977506Y-87483390D02*
X78929887Y-87578628D01*
X78929887Y-87578628D02*
X78929887Y-87864342D01*
X78929887Y-87864342D02*
X78977506Y-87959580D01*
X78977506Y-87959580D02*
X79025125Y-88007200D01*
X79025125Y-88007200D02*
X79120363Y-88054819D01*
X79120363Y-88054819D02*
X79310839Y-88054819D01*
X79310839Y-88054819D02*
X79406077Y-88007200D01*
X78501315Y-88054819D02*
X78501315Y-87054819D01*
X78501315Y-87054819D02*
X77929887Y-88054819D01*
X77929887Y-88054819D02*
X77929887Y-87054819D01*
X77072744Y-88007200D02*
X77167982Y-88054819D01*
X77167982Y-88054819D02*
X77358458Y-88054819D01*
X77358458Y-88054819D02*
X77453696Y-88007200D01*
X77453696Y-88007200D02*
X77501315Y-87911961D01*
X77501315Y-87911961D02*
X77501315Y-87531009D01*
X77501315Y-87531009D02*
X77453696Y-87435771D01*
X77453696Y-87435771D02*
X77358458Y-87388152D01*
X77358458Y-87388152D02*
X77167982Y-87388152D01*
X77167982Y-87388152D02*
X77072744Y-87435771D01*
X77072744Y-87435771D02*
X77025125Y-87531009D01*
X77025125Y-87531009D02*
X77025125Y-87626247D01*
X77025125Y-87626247D02*
X77501315Y-87721485D01*
X76739410Y-87388152D02*
X76358458Y-87388152D01*
X76596553Y-87054819D02*
X76596553Y-87911961D01*
X76596553Y-87911961D02*
X76548934Y-88007200D01*
X76548934Y-88007200D02*
X76453696Y-88054819D01*
X76453696Y-88054819D02*
X76358458Y-88054819D01*
%TO.C,G\u002A\u002A\u002A*%
G36*
X90584645Y-98273629D02*
G01*
X90648173Y-98283165D01*
X90709910Y-98297968D01*
X90734313Y-98305461D01*
X90794976Y-98328292D01*
X90853277Y-98356328D01*
X90908905Y-98389332D01*
X90961545Y-98427067D01*
X91010884Y-98469294D01*
X91056610Y-98515778D01*
X91098410Y-98566282D01*
X91135970Y-98620568D01*
X91158201Y-98658290D01*
X91187005Y-98716633D01*
X91210432Y-98777025D01*
X91228430Y-98839189D01*
X91240949Y-98902847D01*
X91247940Y-98967721D01*
X91249350Y-99033533D01*
X91245131Y-99100006D01*
X91235231Y-99166860D01*
X91222077Y-99222678D01*
X91202464Y-99282118D01*
X91177488Y-99340182D01*
X91147396Y-99396412D01*
X91112435Y-99450350D01*
X91072852Y-99501538D01*
X91028895Y-99549517D01*
X91027077Y-99551335D01*
X90978632Y-99595685D01*
X90927252Y-99635017D01*
X90872730Y-99669461D01*
X90814862Y-99699146D01*
X90753443Y-99724204D01*
X90740197Y-99728303D01*
X90722432Y-99730940D01*
X90708193Y-99728963D01*
X90697410Y-99722358D01*
X90690012Y-99711110D01*
X90689271Y-99709186D01*
X90688140Y-99705084D01*
X90687282Y-99699679D01*
X90686678Y-99692318D01*
X90686309Y-99682352D01*
X90686155Y-99669131D01*
X90686197Y-99652002D01*
X90686415Y-99630316D01*
X90686790Y-99603423D01*
X90687518Y-99554925D01*
X90713156Y-99558900D01*
X90726373Y-99560412D01*
X90748832Y-99561411D01*
X90773585Y-99561067D01*
X90798634Y-99559423D01*
X90821977Y-99556522D01*
X90833109Y-99554328D01*
X90858799Y-99546183D01*
X90882463Y-99534446D01*
X90902898Y-99519783D01*
X90918897Y-99502864D01*
X90922761Y-99497164D01*
X90929617Y-99485437D01*
X90936902Y-99471499D01*
X90943572Y-99457279D01*
X90948377Y-99446683D01*
X90963225Y-99418445D01*
X90979074Y-99395114D01*
X90996454Y-99375980D01*
X91015894Y-99360333D01*
X91023135Y-99355071D01*
X91034322Y-99345608D01*
X91043142Y-99336451D01*
X91048735Y-99328541D01*
X91050237Y-99322820D01*
X91048932Y-99319477D01*
X91042388Y-99314327D01*
X91030901Y-99311718D01*
X91014740Y-99311732D01*
X91006785Y-99312653D01*
X90983395Y-99319085D01*
X90960289Y-99330732D01*
X90938122Y-99347139D01*
X90917549Y-99367846D01*
X90899224Y-99392397D01*
X90891462Y-99403845D01*
X90873079Y-99426400D01*
X90853595Y-99443960D01*
X90832387Y-99457129D01*
X90830640Y-99458004D01*
X90822564Y-99461907D01*
X90815871Y-99464527D01*
X90809111Y-99466115D01*
X90800838Y-99466917D01*
X90789601Y-99467184D01*
X90773953Y-99467163D01*
X90756398Y-99466857D01*
X90739897Y-99465787D01*
X90725781Y-99463670D01*
X90712197Y-99460215D01*
X90697290Y-99455131D01*
X90693902Y-99453841D01*
X90688726Y-99451199D01*
X90685465Y-99447433D01*
X90683077Y-99441008D01*
X90680520Y-99430386D01*
X90676822Y-99416551D01*
X90665300Y-99388362D01*
X90649362Y-99363584D01*
X90638016Y-99349230D01*
X90663500Y-99345736D01*
X90691283Y-99341348D01*
X90734953Y-99331635D01*
X90774689Y-99318861D01*
X90811319Y-99302740D01*
X90845669Y-99282988D01*
X90861194Y-99272155D01*
X90888308Y-99248547D01*
X90911743Y-99221190D01*
X90931660Y-99189813D01*
X90948219Y-99154146D01*
X90961579Y-99113917D01*
X90971901Y-99068855D01*
X90972628Y-99064549D01*
X90974616Y-99047436D01*
X90976015Y-99026763D01*
X90976807Y-99004094D01*
X90976974Y-98980992D01*
X90976500Y-98959019D01*
X90975364Y-98939739D01*
X90973551Y-98924715D01*
X90968286Y-98900484D01*
X90955424Y-98862263D01*
X90937574Y-98826715D01*
X90914980Y-98794380D01*
X90901971Y-98778410D01*
X90909321Y-98753694D01*
X90909363Y-98753552D01*
X90912991Y-98739901D01*
X90915255Y-98727133D01*
X90916444Y-98713007D01*
X90916847Y-98695283D01*
X90916758Y-98682356D01*
X90915698Y-98662535D01*
X90913192Y-98644119D01*
X90908891Y-98624870D01*
X90902450Y-98602551D01*
X90899944Y-98594634D01*
X90896779Y-98585904D01*
X90893970Y-98580907D01*
X90890769Y-98578467D01*
X90886427Y-98577410D01*
X90878997Y-98576821D01*
X90860436Y-98578276D01*
X90838278Y-98583176D01*
X90813120Y-98591293D01*
X90785556Y-98602398D01*
X90756180Y-98616262D01*
X90725586Y-98632656D01*
X90694371Y-98651352D01*
X90692220Y-98652504D01*
X90688028Y-98653517D01*
X90681977Y-98653319D01*
X90672795Y-98651825D01*
X90659211Y-98648948D01*
X90659195Y-98648944D01*
X90597885Y-98638005D01*
X90536161Y-98632204D01*
X90474816Y-98631550D01*
X90414642Y-98636050D01*
X90356430Y-98645713D01*
X90349114Y-98647295D01*
X90334376Y-98650440D01*
X90323667Y-98652364D01*
X90315754Y-98652967D01*
X90309402Y-98652153D01*
X90303378Y-98649822D01*
X90296447Y-98645878D01*
X90287374Y-98640220D01*
X90279901Y-98635671D01*
X90249819Y-98618868D01*
X90219062Y-98603881D01*
X90189260Y-98591460D01*
X90162043Y-98582358D01*
X90150018Y-98579673D01*
X90136908Y-98577884D01*
X90124442Y-98577110D01*
X90114308Y-98577454D01*
X90108194Y-98579021D01*
X90107395Y-98579771D01*
X90104239Y-98585522D01*
X90100371Y-98595601D01*
X90096140Y-98608935D01*
X90091896Y-98624451D01*
X90087986Y-98641078D01*
X90086263Y-98650511D01*
X90083958Y-98674411D01*
X90083832Y-98700102D01*
X90085778Y-98725737D01*
X90089688Y-98749472D01*
X90095455Y-98769460D01*
X90095782Y-98770344D01*
X90096813Y-98774921D01*
X90095823Y-98779396D01*
X90092193Y-98785266D01*
X90085303Y-98794031D01*
X90071142Y-98813049D01*
X90051189Y-98847573D01*
X90036227Y-98884937D01*
X90026448Y-98924715D01*
X90026415Y-98924907D01*
X90024427Y-98941594D01*
X90023296Y-98962496D01*
X90022991Y-98986056D01*
X90023481Y-99010719D01*
X90024736Y-99034928D01*
X90026726Y-99057127D01*
X90029419Y-99075760D01*
X90030075Y-99079201D01*
X90038230Y-99113099D01*
X90049102Y-99146153D01*
X90062173Y-99177117D01*
X90076923Y-99204746D01*
X90092833Y-99227795D01*
X90104092Y-99240629D01*
X90127934Y-99262603D01*
X90155947Y-99283096D01*
X90187055Y-99301358D01*
X90220186Y-99316641D01*
X90221744Y-99317257D01*
X90241020Y-99323956D01*
X90264044Y-99330637D01*
X90288905Y-99336820D01*
X90313694Y-99342027D01*
X90336499Y-99345781D01*
X90361983Y-99349230D01*
X90350637Y-99363584D01*
X90343339Y-99373683D01*
X90329398Y-99399438D01*
X90319426Y-99428294D01*
X90319191Y-99429228D01*
X90318028Y-99434919D01*
X90317034Y-99442077D01*
X90316187Y-99451248D01*
X90315461Y-99462985D01*
X90314833Y-99477834D01*
X90314278Y-99496347D01*
X90313774Y-99519071D01*
X90313295Y-99546557D01*
X90312818Y-99579353D01*
X90311016Y-99711884D01*
X90301542Y-99721353D01*
X90295172Y-99726545D01*
X90286643Y-99730173D01*
X90276268Y-99731038D01*
X90263244Y-99729089D01*
X90246771Y-99724273D01*
X90226046Y-99716541D01*
X90221094Y-99714551D01*
X90160004Y-99686768D01*
X90102636Y-99654480D01*
X90048930Y-99617639D01*
X89998827Y-99576197D01*
X89952267Y-99530103D01*
X89909191Y-99479309D01*
X89869539Y-99423766D01*
X89862084Y-99412155D01*
X89830422Y-99356510D01*
X89803988Y-99298515D01*
X89782709Y-99237968D01*
X89766513Y-99174667D01*
X89755326Y-99108410D01*
X89754218Y-99097478D01*
X89753058Y-99078822D01*
X89752263Y-99056753D01*
X89751837Y-99032594D01*
X89751778Y-99007667D01*
X89752087Y-98983297D01*
X89752766Y-98960805D01*
X89753815Y-98941515D01*
X89755235Y-98926751D01*
X89756399Y-98918296D01*
X89767695Y-98855567D01*
X89783345Y-98796090D01*
X89803609Y-98739006D01*
X89828747Y-98683452D01*
X89845424Y-98652104D01*
X89879957Y-98596480D01*
X89918919Y-98544332D01*
X89962006Y-98495913D01*
X90008913Y-98451478D01*
X90059336Y-98411281D01*
X90112969Y-98375578D01*
X90169509Y-98344621D01*
X90228650Y-98318667D01*
X90290089Y-98297968D01*
X90328127Y-98288167D01*
X90391066Y-98276630D01*
X90455316Y-98270362D01*
X90520100Y-98269362D01*
X90584645Y-98273629D01*
G37*
D11*
%TO.C,JP8*%
X83800000Y-86200000D02*
X81800000Y-86200000D01*
X81800000Y-86200000D02*
X81800000Y-89000000D01*
X83800000Y-89000000D02*
X83800000Y-86200000D01*
X81800000Y-89000000D02*
X83800000Y-89000000D01*
%TO.C,JP7*%
X86400000Y-86200000D02*
X84400000Y-86200000D01*
X84400000Y-86200000D02*
X84400000Y-89000000D01*
X86400000Y-89000000D02*
X86400000Y-86200000D01*
X84400000Y-89000000D02*
X86400000Y-89000000D01*
%TO.C,JP3*%
X84400000Y-80800000D02*
X86400000Y-80800000D01*
X86400000Y-80800000D02*
X86400000Y-78000000D01*
X84400000Y-78000000D02*
X84400000Y-80800000D01*
X86400000Y-78000000D02*
X84400000Y-78000000D01*
%TO.C,JP5*%
X91600000Y-86200000D02*
X89600000Y-86200000D01*
X89600000Y-86200000D02*
X89600000Y-89000000D01*
X91600000Y-89000000D02*
X91600000Y-86200000D01*
X89600000Y-89000000D02*
X91600000Y-89000000D01*
%TO.C,JP2*%
X87000000Y-80800000D02*
X89000000Y-80800000D01*
X89000000Y-80800000D02*
X89000000Y-78000000D01*
X87000000Y-78000000D02*
X87000000Y-80800000D01*
X89000000Y-78000000D02*
X87000000Y-78000000D01*
%TO.C,JP4*%
X81800000Y-80800000D02*
X83800000Y-80800000D01*
X83800000Y-80800000D02*
X83800000Y-78000000D01*
X81800000Y-78000000D02*
X81800000Y-80800000D01*
X83800000Y-78000000D02*
X81800000Y-78000000D01*
%TO.C,JP6*%
X89000000Y-86200000D02*
X87000000Y-86200000D01*
X87000000Y-86200000D02*
X87000000Y-89000000D01*
X89000000Y-89000000D02*
X89000000Y-86200000D01*
X87000000Y-89000000D02*
X89000000Y-89000000D01*
%TO.C,JP1*%
X89600000Y-80800000D02*
X91600000Y-80800000D01*
X91600000Y-80800000D02*
X91600000Y-78000000D01*
X89600000Y-78000000D02*
X89600000Y-80800000D01*
X91600000Y-78000000D02*
X89600000Y-78000000D01*
%TD*%
%LPC*%
D12*
%TO.C,J7*%
X75215000Y-60030000D03*
X63785000Y-60030000D03*
D13*
X63175000Y-56650000D03*
X65715000Y-55130000D03*
X73285000Y-56650000D03*
X75825000Y-55130000D03*
D14*
X73945000Y-66370000D03*
D15*
X72675000Y-68910000D03*
X71405000Y-66370000D03*
X70135000Y-68910000D03*
X68865000Y-66370000D03*
X67595000Y-68910000D03*
X66325000Y-66370000D03*
X65055000Y-68910000D03*
D16*
X77275000Y-63080000D03*
X61725000Y-63080000D03*
%TD*%
D17*
%TO.C,J1*%
X88540000Y-54000000D03*
D18*
X83460000Y-54000000D03*
%TD*%
D17*
%TO.C,J4*%
X96000000Y-89080000D03*
D18*
X96000000Y-84000000D03*
X96000000Y-78920000D03*
%TD*%
D17*
%TO.C,J3*%
X96000000Y-71080000D03*
D18*
X96000000Y-66000000D03*
X96000000Y-60920000D03*
%TD*%
D19*
%TO.C,U1*%
X83053000Y-68707500D03*
D20*
X85593000Y-68707500D03*
X88133000Y-68707500D03*
%TD*%
D21*
%TO.C,H1*%
X54500000Y-54500000D03*
%TD*%
D22*
%TO.C,J2*%
X71550000Y-95375000D03*
D23*
X71550000Y-96645000D03*
X70280000Y-95375000D03*
X70280000Y-96645000D03*
X69010000Y-95375000D03*
X69010000Y-96645000D03*
X67740000Y-95375000D03*
X67740000Y-96645000D03*
X66470000Y-95375000D03*
X66470000Y-96645000D03*
%TD*%
D21*
%TO.C,H4*%
X95500000Y-95500000D03*
%TD*%
%TO.C,H3*%
X54500000Y-95500000D03*
%TD*%
%TO.C,H2*%
X95500000Y-54500000D03*
%TD*%
D17*
%TO.C,J5*%
X54000000Y-78920000D03*
D18*
X54000000Y-84000000D03*
X54000000Y-89080000D03*
%TD*%
D17*
%TO.C,J6*%
X54000000Y-60920000D03*
D18*
X54000000Y-66000000D03*
X54000000Y-71080000D03*
%TD*%
D24*
%TO.C,JP8*%
X82800000Y-86950000D03*
X82800000Y-88250000D03*
%TD*%
%TO.C,JP7*%
X85400000Y-86950000D03*
X85400000Y-88250000D03*
%TD*%
%TO.C,JP3*%
X85400000Y-80050000D03*
X85400000Y-78750000D03*
%TD*%
%TO.C,JP5*%
X90600000Y-86950000D03*
X90600000Y-88250000D03*
%TD*%
%TO.C,JP2*%
X88000000Y-80050000D03*
X88000000Y-78750000D03*
%TD*%
%TO.C,JP4*%
X82800000Y-80050000D03*
X82800000Y-78750000D03*
%TD*%
%TO.C,JP6*%
X88000000Y-86950000D03*
X88000000Y-88250000D03*
%TD*%
%TO.C,JP1*%
X90600000Y-80050000D03*
X90600000Y-78750000D03*
%TD*%
%LPD*%
M02*
