%TF.GenerationSoftware,KiCad,Pcbnew,7.0.6*%
%TF.CreationDate,2024-06-28T04:54:33+09:00*%
%TF.ProjectId,artnet-neopixel,6172746e-6574-42d6-9e65-6f706978656c,rev?*%
%TF.SameCoordinates,Original*%
%TF.FileFunction,Paste,Top*%
%TF.FilePolarity,Positive*%
%FSLAX46Y46*%
G04 Gerber Fmt 4.6, Leading zero omitted, Abs format (unit mm)*
G04 Created by KiCad (PCBNEW 7.0.6) date 2024-06-28 04:54:33*
%MOMM*%
%LPD*%
G01*
G04 APERTURE LIST*
G04 Aperture macros list*
%AMRoundRect*
0 Rectangle with rounded corners*
0 $1 Rounding radius*
0 $2 $3 $4 $5 $6 $7 $8 $9 X,Y pos of 4 corners*
0 Add a 4 corners polygon primitive as box body*
4,1,4,$2,$3,$4,$5,$6,$7,$8,$9,$2,$3,0*
0 Add four circle primitives for the rounded corners*
1,1,$1+$1,$2,$3*
1,1,$1+$1,$4,$5*
1,1,$1+$1,$6,$7*
1,1,$1+$1,$8,$9*
0 Add four rect primitives between the rounded corners*
20,1,$1+$1,$2,$3,$4,$5,0*
20,1,$1+$1,$4,$5,$6,$7,0*
20,1,$1+$1,$6,$7,$8,$9,0*
20,1,$1+$1,$8,$9,$2,$3,0*%
G04 Aperture macros list end*
%ADD10R,0.450000X1.475000*%
%ADD11RoundRect,0.135000X-0.135000X-0.185000X0.135000X-0.185000X0.135000X0.185000X-0.135000X0.185000X0*%
%ADD12RoundRect,0.140000X-0.140000X-0.170000X0.140000X-0.170000X0.140000X0.170000X-0.140000X0.170000X0*%
%ADD13RoundRect,0.140000X-0.170000X0.140000X-0.170000X-0.140000X0.170000X-0.140000X0.170000X0.140000X0*%
%ADD14R,1.500000X2.000000*%
%ADD15R,3.800000X2.000000*%
%ADD16RoundRect,0.225000X0.250000X-0.225000X0.250000X0.225000X-0.250000X0.225000X-0.250000X-0.225000X0*%
%ADD17RoundRect,0.135000X0.185000X-0.135000X0.185000X0.135000X-0.185000X0.135000X-0.185000X-0.135000X0*%
%ADD18RoundRect,0.135000X0.135000X0.185000X-0.135000X0.185000X-0.135000X-0.185000X0.135000X-0.185000X0*%
%ADD19RoundRect,0.140000X0.170000X-0.140000X0.170000X0.140000X-0.170000X0.140000X-0.170000X-0.140000X0*%
%ADD20RoundRect,0.218750X-0.256250X0.218750X-0.256250X-0.218750X0.256250X-0.218750X0.256250X0.218750X0*%
%ADD21RoundRect,0.140000X0.140000X0.170000X-0.140000X0.170000X-0.140000X-0.170000X0.140000X-0.170000X0*%
%ADD22RoundRect,0.135000X-0.185000X0.135000X-0.185000X-0.135000X0.185000X-0.135000X0.185000X0.135000X0*%
%ADD23R,1.200000X1.400000*%
%ADD24RoundRect,0.225000X-0.225000X-0.250000X0.225000X-0.250000X0.225000X0.250000X-0.225000X0.250000X0*%
%ADD25R,0.750000X1.000000*%
%ADD26RoundRect,0.150000X0.150000X-0.512500X0.150000X0.512500X-0.150000X0.512500X-0.150000X-0.512500X0*%
%ADD27R,1.400000X1.200000*%
%ADD28RoundRect,0.225000X0.225000X0.250000X-0.225000X0.250000X-0.225000X-0.250000X0.225000X-0.250000X0*%
%ADD29RoundRect,0.075000X-0.075000X0.662500X-0.075000X-0.662500X0.075000X-0.662500X0.075000X0.662500X0*%
%ADD30RoundRect,0.075000X-0.662500X0.075000X-0.662500X-0.075000X0.662500X-0.075000X0.662500X0.075000X0*%
%ADD31RoundRect,0.075000X0.662500X0.075000X-0.662500X0.075000X-0.662500X-0.075000X0.662500X-0.075000X0*%
%ADD32RoundRect,0.075000X0.075000X0.662500X-0.075000X0.662500X-0.075000X-0.662500X0.075000X-0.662500X0*%
%ADD33RoundRect,0.250000X-1.000000X-0.650000X1.000000X-0.650000X1.000000X0.650000X-1.000000X0.650000X0*%
G04 APERTURE END LIST*
D10*
%TO.C,IC1*%
X83575000Y-74062000D03*
X82925000Y-74062000D03*
X82275000Y-74062000D03*
X81625000Y-74062000D03*
X80975000Y-74062000D03*
X80325000Y-74062000D03*
X79675000Y-74062000D03*
X79025000Y-74062000D03*
X78375000Y-74062000D03*
X77725000Y-74062000D03*
X77075000Y-74062000D03*
X76425000Y-74062000D03*
X76425000Y-79938000D03*
X77075000Y-79938000D03*
X77725000Y-79938000D03*
X78375000Y-79938000D03*
X79025000Y-79938000D03*
X79675000Y-79938000D03*
X80325000Y-79938000D03*
X80975000Y-79938000D03*
X81625000Y-79938000D03*
X82275000Y-79938000D03*
X82925000Y-79938000D03*
X83575000Y-79938000D03*
%TD*%
D11*
%TO.C,R28*%
X60290000Y-84200000D03*
X61310000Y-84200000D03*
%TD*%
D12*
%TO.C,C8*%
X89520000Y-96800000D03*
X90480000Y-96800000D03*
%TD*%
D13*
%TO.C,C20*%
X68000000Y-73920000D03*
X68000000Y-74880000D03*
%TD*%
%TO.C,C6*%
X83500000Y-96520000D03*
X83500000Y-97480000D03*
%TD*%
D12*
%TO.C,C13*%
X89520000Y-88400000D03*
X90480000Y-88400000D03*
%TD*%
D13*
%TO.C,C28*%
X64200000Y-89320000D03*
X64200000Y-90280000D03*
%TD*%
D14*
%TO.C,U2*%
X90300000Y-74350000D03*
X88000000Y-74350000D03*
D15*
X88000000Y-80650000D03*
D14*
X85700000Y-74350000D03*
%TD*%
D13*
%TO.C,C7*%
X84500000Y-96520000D03*
X84500000Y-97480000D03*
%TD*%
%TO.C,C30*%
X63200000Y-89320000D03*
X63200000Y-90280000D03*
%TD*%
D16*
%TO.C,C1*%
X83000000Y-60775000D03*
X83000000Y-59225000D03*
%TD*%
D17*
%TO.C,R3*%
X61000000Y-90310000D03*
X61000000Y-89290000D03*
%TD*%
D18*
%TO.C,R26*%
X75310000Y-81200000D03*
X74290000Y-81200000D03*
%TD*%
D13*
%TO.C,C17*%
X65500000Y-71920000D03*
X65500000Y-72880000D03*
%TD*%
D17*
%TO.C,R10*%
X66500000Y-72910000D03*
X66500000Y-71890000D03*
%TD*%
%TO.C,R1*%
X60200000Y-61020000D03*
X60200000Y-60000000D03*
%TD*%
%TO.C,R8*%
X75000000Y-74910000D03*
X75000000Y-73890000D03*
%TD*%
D19*
%TO.C,C24*%
X63000000Y-74880000D03*
X63000000Y-73920000D03*
%TD*%
D18*
%TO.C,R5*%
X90510000Y-94600000D03*
X89490000Y-94600000D03*
%TD*%
D20*
%TO.C,D2*%
X60200000Y-51012500D03*
X60200000Y-52587500D03*
%TD*%
D17*
%TO.C,R14*%
X66000000Y-74910000D03*
X66000000Y-73890000D03*
%TD*%
D18*
%TO.C,R27*%
X75310000Y-80200000D03*
X74290000Y-80200000D03*
%TD*%
D17*
%TO.C,R2*%
X58600000Y-61020000D03*
X58600000Y-60000000D03*
%TD*%
D18*
%TO.C,R21*%
X75310000Y-79200000D03*
X74290000Y-79200000D03*
%TD*%
D21*
%TO.C,C26*%
X61280000Y-80200000D03*
X60320000Y-80200000D03*
%TD*%
%TO.C,C27*%
X61280000Y-82200000D03*
X60320000Y-82200000D03*
%TD*%
D17*
%TO.C,R13*%
X70000000Y-74910000D03*
X70000000Y-73890000D03*
%TD*%
D22*
%TO.C,R29*%
X64000000Y-73890000D03*
X64000000Y-74910000D03*
%TD*%
D17*
%TO.C,R16*%
X67000000Y-74910000D03*
X67000000Y-73890000D03*
%TD*%
D19*
%TO.C,C4*%
X79400000Y-84480000D03*
X79400000Y-83520000D03*
%TD*%
%TO.C,C22*%
X71000000Y-74880000D03*
X71000000Y-73920000D03*
%TD*%
D18*
%TO.C,R23*%
X75310000Y-84200000D03*
X74290000Y-84200000D03*
%TD*%
D23*
%TO.C,Y1*%
X90850000Y-92100000D03*
X90850000Y-89900000D03*
X89150000Y-89900000D03*
X89150000Y-92100000D03*
%TD*%
D24*
%TO.C,C3*%
X88725000Y-72000000D03*
X90275000Y-72000000D03*
%TD*%
D21*
%TO.C,C12*%
X90480000Y-93600000D03*
X89520000Y-93600000D03*
%TD*%
D25*
%TO.C,SW1*%
X63875000Y-93000000D03*
X63875000Y-99000000D03*
X60125000Y-93000000D03*
X60125000Y-99000000D03*
%TD*%
D13*
%TO.C,C21*%
X71400000Y-89320000D03*
X71400000Y-90280000D03*
%TD*%
D22*
%TO.C,R4*%
X82500000Y-71490000D03*
X82500000Y-72510000D03*
%TD*%
D21*
%TO.C,C5*%
X75980000Y-93200000D03*
X75020000Y-93200000D03*
%TD*%
D22*
%TO.C,R6*%
X82500000Y-96490000D03*
X82500000Y-97510000D03*
%TD*%
D19*
%TO.C,C23*%
X65000000Y-74880000D03*
X65000000Y-73920000D03*
%TD*%
D22*
%TO.C,R19*%
X62000000Y-73890000D03*
X62000000Y-74910000D03*
%TD*%
D17*
%TO.C,R20*%
X66200000Y-90310000D03*
X66200000Y-89290000D03*
%TD*%
D26*
%TO.C,U3*%
X74050000Y-97137500D03*
X75000000Y-97137500D03*
X75950000Y-97137500D03*
X75950000Y-94862500D03*
X75000000Y-94862500D03*
X74050000Y-94862500D03*
%TD*%
D27*
%TO.C,Y2*%
X67700000Y-90650000D03*
X69900000Y-90650000D03*
X69900000Y-88950000D03*
X67700000Y-88950000D03*
%TD*%
D12*
%TO.C,C9*%
X89520000Y-95800000D03*
X90480000Y-95800000D03*
%TD*%
%TO.C,C10*%
X89520000Y-87200000D03*
X90480000Y-87200000D03*
%TD*%
D28*
%TO.C,C2*%
X86775000Y-72000000D03*
X85225000Y-72000000D03*
%TD*%
D13*
%TO.C,C18*%
X69500000Y-71920000D03*
X69500000Y-72880000D03*
%TD*%
D21*
%TO.C,C29*%
X61280000Y-78200000D03*
X60320000Y-78200000D03*
%TD*%
D18*
%TO.C,R17*%
X75310000Y-77200000D03*
X74290000Y-77200000D03*
%TD*%
D19*
%TO.C,C11*%
X60000000Y-90280000D03*
X60000000Y-89320000D03*
%TD*%
D12*
%TO.C,C31*%
X60320000Y-83200000D03*
X61280000Y-83200000D03*
%TD*%
D21*
%TO.C,C32*%
X61280000Y-81200000D03*
X60320000Y-81200000D03*
%TD*%
D17*
%TO.C,R15*%
X69000000Y-74910000D03*
X69000000Y-73890000D03*
%TD*%
D18*
%TO.C,R18*%
X75310000Y-78200000D03*
X74290000Y-78200000D03*
%TD*%
D17*
%TO.C,R9*%
X72000000Y-74910000D03*
X72000000Y-73890000D03*
%TD*%
D19*
%TO.C,C14*%
X83500000Y-72480000D03*
X83500000Y-71520000D03*
%TD*%
D29*
%TO.C,U5*%
X70550000Y-77237500D03*
X70050000Y-77237500D03*
X69550000Y-77237500D03*
X69050000Y-77237500D03*
X68550000Y-77237500D03*
X68050000Y-77237500D03*
X67550000Y-77237500D03*
X67050000Y-77237500D03*
X66550000Y-77237500D03*
X66050000Y-77237500D03*
X65550000Y-77237500D03*
X65050000Y-77237500D03*
D30*
X63637500Y-78650000D03*
X63637500Y-79150000D03*
X63637500Y-79650000D03*
X63637500Y-80150000D03*
X63637500Y-80650000D03*
X63637500Y-81150000D03*
X63637500Y-81650000D03*
X63637500Y-82150000D03*
X63637500Y-82650000D03*
X63637500Y-83150000D03*
X63637500Y-83650000D03*
X63637500Y-84150000D03*
D29*
X65050000Y-85562500D03*
X65550000Y-85562500D03*
X66050000Y-85562500D03*
X66550000Y-85562500D03*
X67050000Y-85562500D03*
X67550000Y-85562500D03*
X68050000Y-85562500D03*
X68550000Y-85562500D03*
X69050000Y-85562500D03*
X69550000Y-85562500D03*
X70050000Y-85562500D03*
X70550000Y-85562500D03*
D30*
X71962500Y-84150000D03*
X71962500Y-83650000D03*
X71962500Y-83150000D03*
X71962500Y-82650000D03*
X71962500Y-82150000D03*
X71962500Y-81650000D03*
X71962500Y-81150000D03*
X71962500Y-80650000D03*
X71962500Y-80150000D03*
X71962500Y-79650000D03*
X71962500Y-79150000D03*
X71962500Y-78650000D03*
%TD*%
D13*
%TO.C,C15*%
X83800000Y-81520000D03*
X83800000Y-82480000D03*
%TD*%
%TO.C,C16*%
X70500000Y-71920000D03*
X70500000Y-72880000D03*
%TD*%
D20*
%TO.C,D3*%
X58600000Y-51012500D03*
X58600000Y-52587500D03*
%TD*%
D22*
%TO.C,R22*%
X61000000Y-73890000D03*
X61000000Y-74910000D03*
%TD*%
D17*
%TO.C,R12*%
X73000000Y-74910000D03*
X73000000Y-73890000D03*
%TD*%
D21*
%TO.C,C25*%
X61280000Y-79200000D03*
X60320000Y-79200000D03*
%TD*%
D31*
%TO.C,U4*%
X86162500Y-93250000D03*
X86162500Y-92750000D03*
X86162500Y-92250000D03*
X86162500Y-91750000D03*
X86162500Y-91250000D03*
X86162500Y-90750000D03*
X86162500Y-90250000D03*
X86162500Y-89750000D03*
X86162500Y-89250000D03*
X86162500Y-88750000D03*
X86162500Y-88250000D03*
X86162500Y-87750000D03*
D32*
X84750000Y-86337500D03*
X84250000Y-86337500D03*
X83750000Y-86337500D03*
X83250000Y-86337500D03*
X82750000Y-86337500D03*
X82250000Y-86337500D03*
X81750000Y-86337500D03*
X81250000Y-86337500D03*
X80750000Y-86337500D03*
X80250000Y-86337500D03*
X79750000Y-86337500D03*
X79250000Y-86337500D03*
D31*
X77837500Y-87750000D03*
X77837500Y-88250000D03*
X77837500Y-88750000D03*
X77837500Y-89250000D03*
X77837500Y-89750000D03*
X77837500Y-90250000D03*
X77837500Y-90750000D03*
X77837500Y-91250000D03*
X77837500Y-91750000D03*
X77837500Y-92250000D03*
X77837500Y-92750000D03*
X77837500Y-93250000D03*
D32*
X79250000Y-94662500D03*
X79750000Y-94662500D03*
X80250000Y-94662500D03*
X80750000Y-94662500D03*
X81250000Y-94662500D03*
X81750000Y-94662500D03*
X82250000Y-94662500D03*
X82750000Y-94662500D03*
X83250000Y-94662500D03*
X83750000Y-94662500D03*
X84250000Y-94662500D03*
X84750000Y-94662500D03*
%TD*%
D33*
%TO.C,D1*%
X85500000Y-60000000D03*
X89500000Y-60000000D03*
%TD*%
D17*
%TO.C,R11*%
X74000000Y-74910000D03*
X74000000Y-73890000D03*
%TD*%
D19*
%TO.C,C19*%
X65200000Y-90280000D03*
X65200000Y-89320000D03*
%TD*%
D18*
%TO.C,R25*%
X75310000Y-82200000D03*
X74290000Y-82200000D03*
%TD*%
%TO.C,R24*%
X75310000Y-83200000D03*
X74290000Y-83200000D03*
%TD*%
D22*
%TO.C,R7*%
X82800000Y-81490000D03*
X82800000Y-82510000D03*
%TD*%
M02*
