%TF.GenerationSoftware,KiCad,Pcbnew,7.0.6*%
%TF.CreationDate,2024-06-28T04:54:33+09:00*%
%TF.ProjectId,artnet-neopixel,6172746e-6574-42d6-9e65-6f706978656c,rev?*%
%TF.SameCoordinates,Original*%
%TF.FileFunction,Copper,L4,Bot*%
%TF.FilePolarity,Positive*%
%FSLAX46Y46*%
G04 Gerber Fmt 4.6, Leading zero omitted, Abs format (unit mm)*
G04 Created by KiCad (PCBNEW 7.0.6) date 2024-06-28 04:54:33*
%MOMM*%
%LPD*%
G01*
G04 APERTURE LIST*
%TA.AperFunction,ComponentPad*%
%ADD10C,1.890000*%
%TD*%
%TA.AperFunction,ComponentPad*%
%ADD11R,1.900000X1.900000*%
%TD*%
%TA.AperFunction,ComponentPad*%
%ADD12C,1.900000*%
%TD*%
%TA.AperFunction,ComponentPad*%
%ADD13C,2.600000*%
%TD*%
%TA.AperFunction,ComponentPad*%
%ADD14R,3.000000X3.000000*%
%TD*%
%TA.AperFunction,ComponentPad*%
%ADD15C,3.000000*%
%TD*%
%TA.AperFunction,ComponentPad*%
%ADD16R,1.500000X2.300000*%
%TD*%
%TA.AperFunction,ComponentPad*%
%ADD17O,1.500000X2.300000*%
%TD*%
%TA.AperFunction,ComponentPad*%
%ADD18C,6.400000*%
%TD*%
%TA.AperFunction,ComponentPad*%
%ADD19R,1.000000X1.000000*%
%TD*%
%TA.AperFunction,ComponentPad*%
%ADD20O,1.000000X1.000000*%
%TD*%
%TA.AperFunction,SMDPad,CuDef*%
%ADD21R,1.500000X1.000000*%
%TD*%
%TA.AperFunction,ViaPad*%
%ADD22C,0.800000*%
%TD*%
%TA.AperFunction,Conductor*%
%ADD23C,0.150000*%
%TD*%
G04 APERTURE END LIST*
D10*
%TO.P,J7,L1,LEDY_A*%
%TO.N,+3.3V*%
X63175000Y-56650000D03*
%TO.P,J7,L2,LEDY_K*%
%TO.N,Net-(J7-LEDY_K)*%
X65715000Y-55130000D03*
%TO.P,J7,L3,LEDG_K*%
%TO.N,Net-(J7-LEDG_K)*%
X73285000Y-56650000D03*
%TO.P,J7,L4,LEDG_A*%
%TO.N,+3.3V*%
X75825000Y-55130000D03*
D11*
%TO.P,J7,R1,TD+*%
%TO.N,Net-(J7-TD+)*%
X73945000Y-66370000D03*
D12*
%TO.P,J7,R2,TD-*%
%TO.N,Net-(J7-TD-)*%
X72675000Y-68910000D03*
%TO.P,J7,R3,RD+*%
%TO.N,Net-(J7-RD+)*%
X71405000Y-66370000D03*
%TO.P,J7,R4,TCT*%
%TO.N,Net-(J7-TCT)*%
X70135000Y-68910000D03*
%TO.P,J7,R5,RCT*%
%TO.N,Net-(J7-RCT)*%
X68865000Y-66370000D03*
%TO.P,J7,R6,RD-*%
%TO.N,Net-(J7-RD-)*%
X67595000Y-68910000D03*
%TO.P,J7,R7,NC*%
%TO.N,unconnected-(J7-NC-PadR7)*%
X66325000Y-66370000D03*
%TO.P,J7,R8,GND*%
%TO.N,GND*%
X65055000Y-68910000D03*
D13*
%TO.P,J7,SH,SHIELD*%
%TO.N,unconnected-(J7-SHIELD-PadSH)*%
X77275000Y-63080000D03*
X61725000Y-63080000D03*
%TD*%
D14*
%TO.P,J1,1,Pin_1*%
%TO.N,+24V*%
X88540000Y-54000000D03*
D15*
%TO.P,J1,2,Pin_2*%
%TO.N,GND*%
X83460000Y-54000000D03*
%TD*%
D14*
%TO.P,J4,1,Pin_1*%
%TO.N,+24V*%
X96000000Y-89080000D03*
D15*
%TO.P,J4,2,Pin_2*%
%TO.N,Net-(IC1-A6)*%
X96000000Y-84000000D03*
%TO.P,J4,3,Pin_3*%
%TO.N,GND*%
X96000000Y-78920000D03*
%TD*%
D14*
%TO.P,J3,1,Pin_1*%
%TO.N,+24V*%
X96000000Y-71080000D03*
D15*
%TO.P,J3,2,Pin_2*%
%TO.N,Net-(IC1-A5)*%
X96000000Y-66000000D03*
%TO.P,J3,3,Pin_3*%
%TO.N,GND*%
X96000000Y-60920000D03*
%TD*%
D16*
%TO.P,U1,1,IN*%
%TO.N,Net-(D1-K)*%
X83053000Y-68707500D03*
D17*
%TO.P,U1,2,GND*%
%TO.N,GND*%
X85593000Y-68707500D03*
%TO.P,U1,3,OUT*%
%TO.N,+5V*%
X88133000Y-68707500D03*
%TD*%
D18*
%TO.P,H1,1*%
%TO.N,N/C*%
X54500000Y-54500000D03*
%TD*%
D19*
%TO.P,J2,1,Pin_1*%
%TO.N,+3.3V*%
X71550000Y-95375000D03*
D20*
%TO.P,J2,2,Pin_2*%
%TO.N,SWDIO*%
X71550000Y-96645000D03*
%TO.P,J2,3,Pin_3*%
%TO.N,GND*%
X70280000Y-95375000D03*
%TO.P,J2,4,Pin_4*%
%TO.N,SWCLK*%
X70280000Y-96645000D03*
%TO.P,J2,5,Pin_5*%
%TO.N,GND*%
X69010000Y-95375000D03*
%TO.P,J2,6,Pin_6*%
%TO.N,unconnected-(J2-Pin_6-Pad6)*%
X69010000Y-96645000D03*
%TO.P,J2,7,Pin_7*%
%TO.N,unconnected-(J2-Pin_7-Pad7)*%
X67740000Y-95375000D03*
%TO.P,J2,8,Pin_8*%
%TO.N,unconnected-(J2-Pin_8-Pad8)*%
X67740000Y-96645000D03*
%TO.P,J2,9,Pin_9*%
%TO.N,unconnected-(J2-Pin_9-Pad9)*%
X66470000Y-95375000D03*
%TO.P,J2,10,Pin_10*%
%TO.N,NRST*%
X66470000Y-96645000D03*
%TD*%
D18*
%TO.P,H4,1*%
%TO.N,N/C*%
X95500000Y-95500000D03*
%TD*%
%TO.P,H3,1*%
%TO.N,N/C*%
X54500000Y-95500000D03*
%TD*%
%TO.P,H2,1*%
%TO.N,N/C*%
X95500000Y-54500000D03*
%TD*%
D14*
%TO.P,J5,1,Pin_1*%
%TO.N,+24V*%
X54000000Y-78920000D03*
D15*
%TO.P,J5,2,Pin_2*%
%TO.N,Net-(IC1-A7)*%
X54000000Y-84000000D03*
%TO.P,J5,3,Pin_3*%
%TO.N,GND*%
X54000000Y-89080000D03*
%TD*%
D14*
%TO.P,J6,1,Pin_1*%
%TO.N,+24V*%
X54000000Y-60920000D03*
D15*
%TO.P,J6,2,Pin_2*%
%TO.N,Net-(IC1-A8)*%
X54000000Y-66000000D03*
%TO.P,J6,3,Pin_3*%
%TO.N,GND*%
X54000000Y-71080000D03*
%TD*%
D21*
%TO.P,JP8,1,A*%
%TO.N,JP8*%
X82800000Y-86950000D03*
%TO.P,JP8,2,B*%
%TO.N,GND*%
X82800000Y-88250000D03*
%TD*%
%TO.P,JP7,1,A*%
%TO.N,JP7*%
X85400000Y-86950000D03*
%TO.P,JP7,2,B*%
%TO.N,GND*%
X85400000Y-88250000D03*
%TD*%
%TO.P,JP3,1,A*%
%TO.N,JP3*%
X85400000Y-80050000D03*
%TO.P,JP3,2,B*%
%TO.N,GND*%
X85400000Y-78750000D03*
%TD*%
%TO.P,JP5,1,A*%
%TO.N,JP5*%
X90600000Y-86950000D03*
%TO.P,JP5,2,B*%
%TO.N,GND*%
X90600000Y-88250000D03*
%TD*%
%TO.P,JP2,1,A*%
%TO.N,JP2*%
X88000000Y-80050000D03*
%TO.P,JP2,2,B*%
%TO.N,GND*%
X88000000Y-78750000D03*
%TD*%
%TO.P,JP4,1,A*%
%TO.N,JP4*%
X82800000Y-80050000D03*
%TO.P,JP4,2,B*%
%TO.N,GND*%
X82800000Y-78750000D03*
%TD*%
%TO.P,JP6,1,A*%
%TO.N,JP6*%
X88000000Y-86950000D03*
%TO.P,JP6,2,B*%
%TO.N,GND*%
X88000000Y-88250000D03*
%TD*%
%TO.P,JP1,1,A*%
%TO.N,JP1*%
X90600000Y-80050000D03*
%TO.P,JP1,2,B*%
%TO.N,GND*%
X90600000Y-78750000D03*
%TD*%
D22*
%TO.N,+3.3V*%
X79000000Y-71500000D03*
%TO.N,GND*%
X67800000Y-81400000D03*
X60125000Y-96000000D03*
X68199972Y-75599972D03*
X91000000Y-84800000D03*
X77200000Y-96500000D03*
X61400000Y-85300000D03*
X84600000Y-82000000D03*
X68700000Y-72400000D03*
X80800000Y-78000000D03*
X85400000Y-97600000D03*
X76800000Y-72700016D03*
X62100000Y-89800000D03*
X76200000Y-84200000D03*
X91400000Y-95800000D03*
X82000000Y-90500000D03*
X71500000Y-73000000D03*
X64500006Y-73000000D03*
X62600000Y-50500000D03*
X72300000Y-89800000D03*
%TO.N,NRST*%
X77200000Y-97600000D03*
X84700000Y-90250000D03*
%TO.N,+3.3V*%
X75000000Y-75700000D03*
X88600000Y-96800000D03*
X67400000Y-78700000D03*
X78700019Y-85099981D03*
X88000000Y-77500000D03*
X77200000Y-94100000D03*
X67300044Y-72400000D03*
X65000000Y-82400000D03*
X89499990Y-84800000D03*
X69050000Y-78700000D03*
X85400000Y-96200020D03*
X65549967Y-78650049D03*
X63200000Y-88300000D03*
X62200000Y-78200000D03*
%TO.N,Net-(J7-RD+)*%
X70500000Y-71100000D03*
%TO.N,Net-(J7-RCT)*%
X68000000Y-73150003D03*
%TO.N,SCLK*%
X73400008Y-87000000D03*
X74799936Y-88400000D03*
%TO.N,MISO*%
X75600000Y-89000000D03*
X74800000Y-87000000D03*
%TO.N,RUN_LED*%
X76400000Y-91250000D03*
X58600000Y-88100000D03*
%TO.N,Net-(IC1-A5)*%
X79800000Y-75600000D03*
%TO.N,Net-(IC1-A6)*%
X79800000Y-76800000D03*
%TO.N,Net-(IC1-A7)*%
X77600000Y-76800000D03*
%TO.N,Net-(IC1-A8)*%
X77600000Y-75599992D03*
%TO.N,MOSI*%
X76400000Y-89600000D03*
X76000000Y-87000000D03*
%TO.N,JP1*%
X88800000Y-83400000D03*
%TO.N,JP2*%
X87800000Y-83400000D03*
%TO.N,JP3*%
X86800000Y-83400000D03*
%TO.N,JP4*%
X85800000Y-83400000D03*
%TO.N,JP5*%
X84800000Y-83400000D03*
%TO.N,JP6*%
X83800000Y-83400000D03*
%TO.N,JP7*%
X79800000Y-96200000D03*
%TO.N,JP8*%
X81200000Y-96200000D03*
%TD*%
D23*
%TO.N,GND*%
X90600000Y-88250000D02*
X91500000Y-88250000D01*
X88000000Y-78750000D02*
X85400000Y-78750000D01*
X91500000Y-88250000D02*
X91575000Y-88175000D01*
X85400000Y-88250000D02*
X88000000Y-88250000D01*
X81550000Y-78750000D02*
X80800000Y-78000000D01*
X90600000Y-78750000D02*
X88000000Y-78750000D01*
X91575000Y-88175000D02*
X91575000Y-85375000D01*
X82800000Y-88250000D02*
X85400000Y-88250000D01*
X91575000Y-85375000D02*
X91000000Y-84800000D01*
X88000000Y-88250000D02*
X90600000Y-88250000D01*
X82800000Y-78750000D02*
X81550000Y-78750000D01*
X85400000Y-78750000D02*
X82800000Y-78750000D01*
%TO.N,NRST*%
X83800000Y-97800000D02*
X77400000Y-97800000D01*
X84700000Y-90250000D02*
X84700000Y-96900000D01*
X77400000Y-97800000D02*
X77200000Y-97600000D01*
X84700000Y-96900000D02*
X83800000Y-97800000D01*
%TO.N,Net-(J7-RD+)*%
X71405000Y-66370000D02*
X71405000Y-70195000D01*
X71405000Y-70195000D02*
X70500000Y-71100000D01*
%TO.N,Net-(J7-RCT)*%
X68865000Y-69335000D02*
X68865000Y-66370000D01*
X68000000Y-73150003D02*
X68000000Y-70200000D01*
X68000000Y-70200000D02*
X68865000Y-69335000D01*
%TO.N,SCLK*%
X73400008Y-87000072D02*
X73400008Y-87000000D01*
X74799936Y-88400000D02*
X73400008Y-87000072D01*
%TO.N,MISO*%
X75600000Y-87800000D02*
X74800000Y-87000000D01*
X75600000Y-89000000D02*
X75600000Y-87800000D01*
%TO.N,RUN_LED*%
X61750000Y-91250000D02*
X58600000Y-88100000D01*
X76400000Y-91250000D02*
X61750000Y-91250000D01*
%TO.N,unconnected-(J7-SHIELD-PadSH)*%
X61725000Y-63080000D02*
X77275000Y-63080000D01*
%TO.N,Net-(IC1-A5)*%
X80600000Y-76400000D02*
X85600000Y-76400000D01*
X85600000Y-76400000D02*
X96000000Y-66000000D01*
X79800000Y-75600000D02*
X80600000Y-76400000D01*
%TO.N,Net-(IC1-A6)*%
X96000000Y-81400000D02*
X96000000Y-84000000D01*
X79800000Y-76800000D02*
X91400000Y-76800000D01*
X91400000Y-76800000D02*
X96000000Y-81400000D01*
%TO.N,Net-(IC1-A7)*%
X54000000Y-84000000D02*
X61200000Y-76800000D01*
X61200000Y-76800000D02*
X77600000Y-76800000D01*
%TO.N,Net-(IC1-A8)*%
X54000000Y-66000000D02*
X64450000Y-76450000D01*
X64450000Y-76450000D02*
X76749992Y-76450000D01*
X76749992Y-76450000D02*
X77600000Y-75599992D01*
%TO.N,MOSI*%
X76400000Y-89600000D02*
X76400000Y-87400000D01*
X76400000Y-87400000D02*
X76000000Y-87000000D01*
%TO.N,JP1*%
X90600000Y-80050000D02*
X90600000Y-81600000D01*
X90600000Y-81600000D02*
X88800000Y-83400000D01*
%TO.N,JP2*%
X87800000Y-83400000D02*
X88000000Y-83200000D01*
X88000000Y-83200000D02*
X88000000Y-80050000D01*
%TO.N,JP3*%
X86800000Y-83400000D02*
X86800000Y-81450000D01*
X86800000Y-81450000D02*
X85400000Y-80050000D01*
%TO.N,JP4*%
X85800000Y-82150000D02*
X83700000Y-80050000D01*
X85800000Y-83400000D02*
X85800000Y-82150000D01*
X83700000Y-80050000D02*
X82800000Y-80050000D01*
%TO.N,JP5*%
X90600000Y-86950000D02*
X87850000Y-84200000D01*
X87850000Y-84200000D02*
X85600000Y-84200000D01*
X85600000Y-84200000D02*
X84800000Y-83400000D01*
%TO.N,JP6*%
X88000000Y-86950000D02*
X88000000Y-84800000D01*
X85000000Y-84600000D02*
X83800000Y-83400000D01*
X88000000Y-84800000D02*
X87800000Y-84600000D01*
X87800000Y-84600000D02*
X85000000Y-84600000D01*
%TO.N,JP7*%
X81825000Y-86225000D02*
X84675000Y-86225000D01*
X80200000Y-87850000D02*
X81825000Y-86225000D01*
X79800000Y-96200000D02*
X80200000Y-95800000D01*
X80200000Y-95800000D02*
X80200000Y-87850000D01*
X84675000Y-86225000D02*
X85400000Y-86950000D01*
%TO.N,JP8*%
X81200000Y-96200000D02*
X80800000Y-95800000D01*
X80800000Y-88050000D02*
X81900000Y-86950000D01*
X80800000Y-95800000D02*
X80800000Y-88050000D01*
X81900000Y-86950000D02*
X82800000Y-86950000D01*
%TD*%
%TA.AperFunction,Conductor*%
%TO.N,GND*%
G36*
X82993039Y-88019685D02*
G01*
X83038794Y-88072489D01*
X83050000Y-88124000D01*
X83050000Y-89250000D01*
X83597828Y-89250000D01*
X83597844Y-89249999D01*
X83657372Y-89243598D01*
X83657379Y-89243596D01*
X83792086Y-89193354D01*
X83792093Y-89193350D01*
X83907187Y-89107190D01*
X83907190Y-89107187D01*
X83998669Y-88984989D01*
X84000728Y-88986530D01*
X84040570Y-88946687D01*
X84108843Y-88931834D01*
X84174308Y-88956249D01*
X84200045Y-88985951D01*
X84201331Y-88984989D01*
X84292809Y-89107187D01*
X84407121Y-89192762D01*
X84448991Y-89248696D01*
X84453975Y-89318387D01*
X84420489Y-89379710D01*
X84383246Y-89405307D01*
X84247267Y-89465850D01*
X84247265Y-89465851D01*
X84094129Y-89577111D01*
X83967466Y-89717785D01*
X83872821Y-89881715D01*
X83872818Y-89881722D01*
X83814327Y-90061740D01*
X83814326Y-90061744D01*
X83794540Y-90250000D01*
X83814326Y-90438256D01*
X83814327Y-90438259D01*
X83872818Y-90618277D01*
X83872821Y-90618284D01*
X83967467Y-90782216D01*
X84092650Y-90921245D01*
X84122880Y-90984236D01*
X84124500Y-91004217D01*
X84124500Y-96610258D01*
X84104815Y-96677297D01*
X84088181Y-96697939D01*
X83597939Y-97188181D01*
X83536616Y-97221666D01*
X83510258Y-97224500D01*
X81696271Y-97224500D01*
X81629232Y-97204815D01*
X81583477Y-97152011D01*
X81573533Y-97082853D01*
X81602558Y-97019297D01*
X81645832Y-96987221D01*
X81652730Y-96984151D01*
X81805871Y-96872888D01*
X81932533Y-96732216D01*
X82027179Y-96568284D01*
X82085674Y-96388256D01*
X82105460Y-96200000D01*
X82085674Y-96011744D01*
X82027187Y-95831742D01*
X82027181Y-95831722D01*
X82027180Y-95831721D01*
X82027179Y-95831716D01*
X81932533Y-95667784D01*
X81805871Y-95527112D01*
X81769931Y-95501000D01*
X81652734Y-95415851D01*
X81652729Y-95415848D01*
X81479807Y-95338857D01*
X81479800Y-95338854D01*
X81473714Y-95337561D01*
X81412233Y-95304366D01*
X81378459Y-95243201D01*
X81375500Y-95216272D01*
X81375500Y-89054602D01*
X81395185Y-88987563D01*
X81447989Y-88941808D01*
X81517147Y-88931864D01*
X81580703Y-88960889D01*
X81600577Y-88985553D01*
X81601331Y-88984989D01*
X81692809Y-89107187D01*
X81692812Y-89107190D01*
X81807906Y-89193350D01*
X81807913Y-89193354D01*
X81942620Y-89243596D01*
X81942627Y-89243598D01*
X82002155Y-89249999D01*
X82002172Y-89250000D01*
X82550000Y-89250000D01*
X82550000Y-88124000D01*
X82569685Y-88056961D01*
X82622489Y-88011206D01*
X82674000Y-88000000D01*
X82926000Y-88000000D01*
X82993039Y-88019685D01*
G37*
%TD.AperFunction*%
%TA.AperFunction,Conductor*%
G36*
X96001423Y-50000566D02*
G01*
X96040986Y-50002394D01*
X96172950Y-50008495D01*
X96372549Y-50018302D01*
X96378048Y-50018819D01*
X96563357Y-50044668D01*
X96749828Y-50072329D01*
X96754871Y-50073294D01*
X96939341Y-50116681D01*
X97120221Y-50161989D01*
X97124797Y-50163327D01*
X97305568Y-50223916D01*
X97480339Y-50286450D01*
X97484471Y-50288100D01*
X97542986Y-50313936D01*
X97659474Y-50365370D01*
X97826973Y-50444592D01*
X97830601Y-50446457D01*
X97998128Y-50539770D01*
X97998142Y-50539778D01*
X98156964Y-50634972D01*
X98160119Y-50636996D01*
X98318603Y-50745559D01*
X98467377Y-50855897D01*
X98470001Y-50857957D01*
X98618027Y-50980876D01*
X98755321Y-51105314D01*
X98757514Y-51107402D01*
X98892596Y-51242484D01*
X98894695Y-51244688D01*
X99019129Y-51381980D01*
X99142034Y-51529989D01*
X99144109Y-51532632D01*
X99254443Y-51681400D01*
X99363002Y-51839879D01*
X99365032Y-51843044D01*
X99460221Y-52001857D01*
X99553527Y-52169371D01*
X99555410Y-52173034D01*
X99634638Y-52340547D01*
X99711899Y-52515527D01*
X99713558Y-52519685D01*
X99776093Y-52694459D01*
X99836662Y-52875173D01*
X99838018Y-52879812D01*
X99883317Y-53060654D01*
X99926696Y-53245090D01*
X99927672Y-53250189D01*
X99955337Y-53436689D01*
X99981177Y-53621933D01*
X99981697Y-53627459D01*
X99991512Y-53827238D01*
X99999434Y-53998575D01*
X99999500Y-54001439D01*
X99999500Y-95998560D01*
X99999434Y-96001424D01*
X99991512Y-96172761D01*
X99981697Y-96372539D01*
X99981177Y-96378065D01*
X99955337Y-96563310D01*
X99927672Y-96749809D01*
X99926696Y-96754908D01*
X99883317Y-96939345D01*
X99838018Y-97120186D01*
X99836662Y-97124825D01*
X99776093Y-97305540D01*
X99713557Y-97480314D01*
X99711899Y-97484470D01*
X99634638Y-97659452D01*
X99555410Y-97826964D01*
X99553527Y-97830627D01*
X99460221Y-97998142D01*
X99365032Y-98156954D01*
X99363002Y-98160118D01*
X99254437Y-98318608D01*
X99144121Y-98467350D01*
X99142021Y-98470025D01*
X99019132Y-98618016D01*
X98894695Y-98755310D01*
X98892596Y-98757514D01*
X98757514Y-98892596D01*
X98755310Y-98894695D01*
X98618016Y-99019132D01*
X98470025Y-99142021D01*
X98467350Y-99144121D01*
X98318608Y-99254437D01*
X98160118Y-99363002D01*
X98156954Y-99365032D01*
X97998142Y-99460221D01*
X97830627Y-99553527D01*
X97826964Y-99555410D01*
X97659452Y-99634638D01*
X97484470Y-99711899D01*
X97480314Y-99713557D01*
X97305540Y-99776093D01*
X97124825Y-99836662D01*
X97120186Y-99838018D01*
X96939345Y-99883317D01*
X96754908Y-99926696D01*
X96749809Y-99927672D01*
X96563310Y-99955337D01*
X96378065Y-99981177D01*
X96372539Y-99981697D01*
X96172761Y-99991512D01*
X96001424Y-99999434D01*
X95998560Y-99999500D01*
X54001440Y-99999500D01*
X53998576Y-99999434D01*
X53827238Y-99991512D01*
X53627459Y-99981697D01*
X53621933Y-99981177D01*
X53436689Y-99955337D01*
X53250189Y-99927672D01*
X53245090Y-99926696D01*
X53060654Y-99883317D01*
X52879812Y-99838018D01*
X52875173Y-99836662D01*
X52694459Y-99776093D01*
X52519685Y-99713558D01*
X52515527Y-99711899D01*
X52340547Y-99634638D01*
X52173034Y-99555410D01*
X52169371Y-99553527D01*
X52001857Y-99460221D01*
X51843044Y-99365032D01*
X51839879Y-99363002D01*
X51730371Y-99287989D01*
X51681392Y-99254437D01*
X51532632Y-99144109D01*
X51529989Y-99142034D01*
X51381980Y-99019129D01*
X51244688Y-98894695D01*
X51242484Y-98892596D01*
X51107402Y-98757514D01*
X51105314Y-98755321D01*
X50980867Y-98618016D01*
X50857957Y-98470001D01*
X50855897Y-98467377D01*
X50745559Y-98318603D01*
X50653009Y-98183496D01*
X50636996Y-98160119D01*
X50634966Y-98156954D01*
X50620137Y-98132214D01*
X50539778Y-97998142D01*
X50529403Y-97979516D01*
X50446457Y-97830601D01*
X50444588Y-97826964D01*
X50365361Y-97659452D01*
X50288100Y-97484471D01*
X50286450Y-97480339D01*
X50223906Y-97305540D01*
X50163327Y-97124797D01*
X50161989Y-97120221D01*
X50116675Y-96939315D01*
X50111402Y-96916895D01*
X50073294Y-96754871D01*
X50072329Y-96749828D01*
X50044662Y-96563310D01*
X50018819Y-96378048D01*
X50018302Y-96372549D01*
X50008487Y-96172761D01*
X50000566Y-96001423D01*
X50000500Y-95998560D01*
X50000500Y-95500000D01*
X50794422Y-95500000D01*
X50814722Y-95887339D01*
X50875397Y-96270427D01*
X50875397Y-96270429D01*
X50975788Y-96645094D01*
X51114787Y-97007197D01*
X51290877Y-97352793D01*
X51502122Y-97678082D01*
X51591342Y-97788259D01*
X51746219Y-97979516D01*
X52020484Y-98253781D01*
X52100520Y-98318593D01*
X52321917Y-98497877D01*
X52506915Y-98618016D01*
X52647211Y-98709125D01*
X52992806Y-98885214D01*
X53354913Y-99024214D01*
X53729567Y-99124602D01*
X54112662Y-99185278D01*
X54478576Y-99204455D01*
X54499999Y-99205578D01*
X54500000Y-99205578D01*
X54500001Y-99205578D01*
X54520300Y-99204514D01*
X54887338Y-99185278D01*
X55270433Y-99124602D01*
X55645087Y-99024214D01*
X56007194Y-98885214D01*
X56352789Y-98709125D01*
X56678084Y-98497876D01*
X56979516Y-98253781D01*
X57253781Y-97979516D01*
X57497876Y-97678084D01*
X57709125Y-97352789D01*
X57885214Y-97007194D01*
X58024214Y-96645087D01*
X58024237Y-96645000D01*
X65464659Y-96645000D01*
X65483975Y-96841129D01*
X65541188Y-97029733D01*
X65634086Y-97203532D01*
X65634090Y-97203539D01*
X65759116Y-97355883D01*
X65911460Y-97480909D01*
X65911467Y-97480913D01*
X66085266Y-97573811D01*
X66085269Y-97573811D01*
X66085273Y-97573814D01*
X66273868Y-97631024D01*
X66470000Y-97650341D01*
X66666132Y-97631024D01*
X66854727Y-97573814D01*
X67028538Y-97480910D01*
X67028544Y-97480904D01*
X67033607Y-97477523D01*
X67034703Y-97479164D01*
X67090639Y-97455405D01*
X67159507Y-97467194D01*
X67176148Y-97477888D01*
X67176393Y-97477523D01*
X67181458Y-97480907D01*
X67181462Y-97480910D01*
X67355273Y-97573814D01*
X67543868Y-97631024D01*
X67740000Y-97650341D01*
X67936132Y-97631024D01*
X68124727Y-97573814D01*
X68298538Y-97480910D01*
X68298544Y-97480904D01*
X68303607Y-97477523D01*
X68304703Y-97479164D01*
X68360639Y-97455405D01*
X68429507Y-97467194D01*
X68446148Y-97477888D01*
X68446393Y-97477523D01*
X68451458Y-97480907D01*
X68451462Y-97480910D01*
X68625273Y-97573814D01*
X68813868Y-97631024D01*
X69010000Y-97650341D01*
X69206132Y-97631024D01*
X69394727Y-97573814D01*
X69568538Y-97480910D01*
X69568544Y-97480904D01*
X69573607Y-97477523D01*
X69574703Y-97479164D01*
X69630639Y-97455405D01*
X69699507Y-97467194D01*
X69716148Y-97477888D01*
X69716393Y-97477523D01*
X69721458Y-97480907D01*
X69721462Y-97480910D01*
X69895273Y-97573814D01*
X70083868Y-97631024D01*
X70280000Y-97650341D01*
X70476132Y-97631024D01*
X70664727Y-97573814D01*
X70838538Y-97480910D01*
X70838544Y-97480904D01*
X70843607Y-97477523D01*
X70844703Y-97479164D01*
X70900639Y-97455405D01*
X70969507Y-97467194D01*
X70986148Y-97477888D01*
X70986393Y-97477523D01*
X70991458Y-97480907D01*
X70991462Y-97480910D01*
X71165273Y-97573814D01*
X71353868Y-97631024D01*
X71550000Y-97650341D01*
X71746132Y-97631024D01*
X71848404Y-97600000D01*
X76294540Y-97600000D01*
X76314326Y-97788256D01*
X76314327Y-97788259D01*
X76372818Y-97968277D01*
X76372821Y-97968284D01*
X76467467Y-98132216D01*
X76537912Y-98210453D01*
X76594129Y-98272888D01*
X76747265Y-98384148D01*
X76747270Y-98384151D01*
X76920192Y-98461142D01*
X76920197Y-98461144D01*
X77105354Y-98500500D01*
X77105355Y-98500500D01*
X77294644Y-98500500D01*
X77294646Y-98500500D01*
X77479803Y-98461144D01*
X77594141Y-98410237D01*
X77648082Y-98386221D01*
X77698518Y-98375500D01*
X83758219Y-98375500D01*
X83766317Y-98376030D01*
X83786734Y-98378718D01*
X83799999Y-98380465D01*
X83800000Y-98380465D01*
X83835785Y-98375754D01*
X83835809Y-98375751D01*
X83837715Y-98375500D01*
X83837720Y-98375500D01*
X83950236Y-98360687D01*
X84090233Y-98302698D01*
X84090232Y-98302697D01*
X84188358Y-98227405D01*
X84188370Y-98227394D01*
X84210449Y-98210453D01*
X84210451Y-98210451D01*
X84231138Y-98183489D01*
X84236480Y-98177398D01*
X85077398Y-97336480D01*
X85083489Y-97331138D01*
X85110451Y-97310451D01*
X85114220Y-97305540D01*
X85127394Y-97288370D01*
X85127405Y-97288358D01*
X85192488Y-97203539D01*
X85202698Y-97190233D01*
X85208151Y-97177067D01*
X85251990Y-97122665D01*
X85318284Y-97100599D01*
X85322712Y-97100520D01*
X85494644Y-97100520D01*
X85494646Y-97100520D01*
X85679803Y-97061164D01*
X85852730Y-96984171D01*
X86005871Y-96872908D01*
X86071518Y-96800000D01*
X87694540Y-96800000D01*
X87714326Y-96988256D01*
X87714327Y-96988259D01*
X87772818Y-97168277D01*
X87772821Y-97168284D01*
X87867467Y-97332216D01*
X87939071Y-97411740D01*
X87994129Y-97472888D01*
X88147265Y-97584148D01*
X88147270Y-97584151D01*
X88320192Y-97661142D01*
X88320197Y-97661144D01*
X88505354Y-97700500D01*
X88505355Y-97700500D01*
X88694644Y-97700500D01*
X88694646Y-97700500D01*
X88879803Y-97661144D01*
X89052730Y-97584151D01*
X89205871Y-97472888D01*
X89332533Y-97332216D01*
X89427179Y-97168284D01*
X89485674Y-96988256D01*
X89505460Y-96800000D01*
X89485674Y-96611744D01*
X89427179Y-96431716D01*
X89332533Y-96267784D01*
X89205871Y-96127112D01*
X89203486Y-96125379D01*
X89052734Y-96015851D01*
X89052729Y-96015848D01*
X88879807Y-95938857D01*
X88879802Y-95938855D01*
X88734001Y-95907865D01*
X88694646Y-95899500D01*
X88505354Y-95899500D01*
X88472897Y-95906398D01*
X88320197Y-95938855D01*
X88320192Y-95938857D01*
X88147270Y-96015848D01*
X88147265Y-96015851D01*
X87994129Y-96127111D01*
X87867466Y-96267785D01*
X87772821Y-96431715D01*
X87772818Y-96431722D01*
X87714809Y-96610258D01*
X87714326Y-96611744D01*
X87694540Y-96800000D01*
X86071518Y-96800000D01*
X86132533Y-96732236D01*
X86227179Y-96568304D01*
X86285674Y-96388276D01*
X86305460Y-96200020D01*
X86285674Y-96011764D01*
X86227179Y-95831736D01*
X86132533Y-95667804D01*
X86005871Y-95527132D01*
X86005870Y-95527131D01*
X85968527Y-95500000D01*
X91794422Y-95500000D01*
X91814722Y-95887339D01*
X91875397Y-96270427D01*
X91875397Y-96270429D01*
X91975788Y-96645094D01*
X92114787Y-97007197D01*
X92290877Y-97352793D01*
X92502122Y-97678082D01*
X92591342Y-97788259D01*
X92746219Y-97979516D01*
X93020484Y-98253781D01*
X93100520Y-98318593D01*
X93321917Y-98497877D01*
X93506915Y-98618016D01*
X93647211Y-98709125D01*
X93992806Y-98885214D01*
X94354913Y-99024214D01*
X94729567Y-99124602D01*
X95112662Y-99185278D01*
X95478576Y-99204455D01*
X95499999Y-99205578D01*
X95500000Y-99205578D01*
X95500001Y-99205578D01*
X95520301Y-99204514D01*
X95887338Y-99185278D01*
X96270433Y-99124602D01*
X96645087Y-99024214D01*
X97007194Y-98885214D01*
X97352789Y-98709125D01*
X97678084Y-98497876D01*
X97979516Y-98253781D01*
X98253781Y-97979516D01*
X98497876Y-97678084D01*
X98709125Y-97352789D01*
X98885214Y-97007194D01*
X99024214Y-96645087D01*
X99124602Y-96270433D01*
X99185278Y-95887338D01*
X99205578Y-95500000D01*
X99185278Y-95112662D01*
X99124602Y-94729567D01*
X99024214Y-94354913D01*
X98885214Y-93992806D01*
X98709125Y-93647211D01*
X98566191Y-93427112D01*
X98497877Y-93321917D01*
X98253784Y-93020488D01*
X98253781Y-93020484D01*
X97979516Y-92746219D01*
X97678084Y-92502124D01*
X97678082Y-92502122D01*
X97352793Y-92290877D01*
X97007197Y-92114787D01*
X96645094Y-91975788D01*
X96645087Y-91975786D01*
X96270433Y-91875398D01*
X96270429Y-91875397D01*
X96270428Y-91875397D01*
X95887339Y-91814722D01*
X95500001Y-91794422D01*
X95499999Y-91794422D01*
X95112660Y-91814722D01*
X94729572Y-91875397D01*
X94729570Y-91875397D01*
X94354905Y-91975788D01*
X93992802Y-92114787D01*
X93647206Y-92290877D01*
X93321917Y-92502122D01*
X93020488Y-92746215D01*
X93020480Y-92746222D01*
X92746222Y-93020480D01*
X92746215Y-93020488D01*
X92502122Y-93321917D01*
X92290877Y-93647206D01*
X92114787Y-93992802D01*
X91975788Y-94354905D01*
X91875397Y-94729570D01*
X91875397Y-94729572D01*
X91814722Y-95112660D01*
X91794422Y-95499999D01*
X91794422Y-95500000D01*
X85968527Y-95500000D01*
X85852734Y-95415871D01*
X85852729Y-95415868D01*
X85679807Y-95338877D01*
X85679802Y-95338875D01*
X85524497Y-95305865D01*
X85494646Y-95299520D01*
X85399500Y-95299520D01*
X85332461Y-95279835D01*
X85286706Y-95227031D01*
X85275500Y-95175520D01*
X85275500Y-91004217D01*
X85295185Y-90937178D01*
X85307350Y-90921245D01*
X85432533Y-90782216D01*
X85521645Y-90627870D01*
X93999500Y-90627870D01*
X93999501Y-90627876D01*
X94005908Y-90687483D01*
X94056202Y-90822328D01*
X94056206Y-90822335D01*
X94142452Y-90937544D01*
X94142455Y-90937547D01*
X94257664Y-91023793D01*
X94257671Y-91023797D01*
X94392517Y-91074091D01*
X94392516Y-91074091D01*
X94399444Y-91074835D01*
X94452127Y-91080500D01*
X97547872Y-91080499D01*
X97607483Y-91074091D01*
X97742331Y-91023796D01*
X97857546Y-90937546D01*
X97943796Y-90822331D01*
X97994091Y-90687483D01*
X98000500Y-90627873D01*
X98000499Y-87532128D01*
X97994091Y-87472517D01*
X97993467Y-87470845D01*
X97943797Y-87337671D01*
X97943793Y-87337664D01*
X97857547Y-87222455D01*
X97857544Y-87222452D01*
X97742335Y-87136206D01*
X97742328Y-87136202D01*
X97607482Y-87085908D01*
X97607483Y-87085908D01*
X97547883Y-87079501D01*
X97547881Y-87079500D01*
X97547873Y-87079500D01*
X97547864Y-87079500D01*
X94452129Y-87079500D01*
X94452123Y-87079501D01*
X94392516Y-87085908D01*
X94257671Y-87136202D01*
X94257664Y-87136206D01*
X94142455Y-87222452D01*
X94142452Y-87222455D01*
X94056206Y-87337664D01*
X94056202Y-87337671D01*
X94005908Y-87472517D01*
X93999501Y-87532116D01*
X93999500Y-87532127D01*
X93999500Y-90627870D01*
X85521645Y-90627870D01*
X85527179Y-90618284D01*
X85585674Y-90438256D01*
X85605460Y-90250000D01*
X85585674Y-90061744D01*
X85527179Y-89881716D01*
X85432533Y-89717784D01*
X85305871Y-89577112D01*
X85305870Y-89577111D01*
X85147473Y-89462029D01*
X85148439Y-89460698D01*
X85105894Y-89416085D01*
X85092666Y-89347479D01*
X85118628Y-89282612D01*
X85128425Y-89271574D01*
X85150000Y-89249999D01*
X85150000Y-88124000D01*
X85169685Y-88056961D01*
X85222489Y-88011206D01*
X85274000Y-88000000D01*
X85526000Y-88000000D01*
X85593039Y-88019685D01*
X85638794Y-88072489D01*
X85650000Y-88124000D01*
X85650000Y-89250000D01*
X86197828Y-89250000D01*
X86197844Y-89249999D01*
X86257372Y-89243598D01*
X86257379Y-89243596D01*
X86392086Y-89193354D01*
X86392093Y-89193350D01*
X86507187Y-89107190D01*
X86507190Y-89107187D01*
X86598669Y-88984989D01*
X86600728Y-88986530D01*
X86640570Y-88946687D01*
X86708843Y-88931834D01*
X86774308Y-88956249D01*
X86800045Y-88985951D01*
X86801331Y-88984989D01*
X86892809Y-89107187D01*
X86892812Y-89107190D01*
X87007906Y-89193350D01*
X87007913Y-89193354D01*
X87142620Y-89243596D01*
X87142627Y-89243598D01*
X87202155Y-89249999D01*
X87202172Y-89250000D01*
X87750000Y-89250000D01*
X87750000Y-88124000D01*
X87769685Y-88056961D01*
X87822489Y-88011206D01*
X87874000Y-88000000D01*
X88126000Y-88000000D01*
X88193039Y-88019685D01*
X88238794Y-88072489D01*
X88250000Y-88124000D01*
X88250000Y-89250000D01*
X88797828Y-89250000D01*
X88797844Y-89249999D01*
X88857372Y-89243598D01*
X88857379Y-89243596D01*
X88992086Y-89193354D01*
X88992093Y-89193350D01*
X89107187Y-89107190D01*
X89107190Y-89107187D01*
X89198669Y-88984989D01*
X89200728Y-88986530D01*
X89240570Y-88946687D01*
X89308843Y-88931834D01*
X89374308Y-88956249D01*
X89400045Y-88985951D01*
X89401331Y-88984989D01*
X89492809Y-89107187D01*
X89492812Y-89107190D01*
X89607906Y-89193350D01*
X89607913Y-89193354D01*
X89742620Y-89243596D01*
X89742627Y-89243598D01*
X89802155Y-89249999D01*
X89802172Y-89250000D01*
X90350000Y-89250000D01*
X90350000Y-88500000D01*
X90850000Y-88500000D01*
X90850000Y-89250000D01*
X91397828Y-89250000D01*
X91397844Y-89249999D01*
X91457372Y-89243598D01*
X91457379Y-89243596D01*
X91592086Y-89193354D01*
X91592093Y-89193350D01*
X91707187Y-89107190D01*
X91707190Y-89107187D01*
X91793350Y-88992093D01*
X91793354Y-88992086D01*
X91843596Y-88857379D01*
X91843598Y-88857372D01*
X91849999Y-88797844D01*
X91850000Y-88797827D01*
X91850000Y-88500000D01*
X90850000Y-88500000D01*
X90350000Y-88500000D01*
X90350000Y-88124000D01*
X90369685Y-88056961D01*
X90422489Y-88011206D01*
X90474000Y-88000000D01*
X91850000Y-88000000D01*
X91850000Y-87702172D01*
X91849999Y-87702155D01*
X91843598Y-87642627D01*
X91841814Y-87635076D01*
X91843459Y-87634687D01*
X91839143Y-87574361D01*
X91844058Y-87557619D01*
X91844091Y-87557481D01*
X91850500Y-87497873D01*
X91850499Y-86402128D01*
X91844091Y-86342517D01*
X91839872Y-86331206D01*
X91793797Y-86207671D01*
X91793793Y-86207664D01*
X91707547Y-86092455D01*
X91707544Y-86092452D01*
X91592335Y-86006206D01*
X91592328Y-86006202D01*
X91457482Y-85955908D01*
X91457483Y-85955908D01*
X91397883Y-85949501D01*
X91397881Y-85949500D01*
X91397873Y-85949500D01*
X91397865Y-85949500D01*
X90464742Y-85949500D01*
X90397703Y-85929815D01*
X90377061Y-85913181D01*
X90108951Y-85645071D01*
X90075466Y-85583748D01*
X90080450Y-85514056D01*
X90104483Y-85474417D01*
X90105857Y-85472890D01*
X90105861Y-85472888D01*
X90232523Y-85332216D01*
X90327169Y-85168284D01*
X90385664Y-84988256D01*
X90405450Y-84800000D01*
X90385664Y-84611744D01*
X90327169Y-84431716D01*
X90232523Y-84267784D01*
X90105861Y-84127112D01*
X90105860Y-84127111D01*
X89952724Y-84015851D01*
X89952719Y-84015848D01*
X89779797Y-83938857D01*
X89779792Y-83938855D01*
X89719903Y-83926126D01*
X89658421Y-83892934D01*
X89624645Y-83831771D01*
X89627753Y-83766518D01*
X89644633Y-83714566D01*
X89685674Y-83588256D01*
X89705460Y-83400000D01*
X89702932Y-83375947D01*
X89715502Y-83307218D01*
X89738569Y-83275309D01*
X90977398Y-82036480D01*
X90983489Y-82031138D01*
X91010451Y-82010451D01*
X91023508Y-81993435D01*
X91027394Y-81988370D01*
X91027405Y-81988358D01*
X91102698Y-81890233D01*
X91111997Y-81867784D01*
X91160687Y-81750236D01*
X91163731Y-81727112D01*
X91175500Y-81637720D01*
X91175499Y-81637719D01*
X91176700Y-81628604D01*
X91176700Y-81628590D01*
X91180465Y-81600001D01*
X91180465Y-81600000D01*
X91176030Y-81566317D01*
X91175499Y-81558214D01*
X91175500Y-81174499D01*
X91195185Y-81107459D01*
X91247989Y-81061704D01*
X91299500Y-81050499D01*
X91397871Y-81050499D01*
X91397872Y-81050499D01*
X91457483Y-81044091D01*
X91592331Y-80993796D01*
X91707546Y-80907546D01*
X91793796Y-80792331D01*
X91844091Y-80657483D01*
X91850500Y-80597873D01*
X91850499Y-79502128D01*
X91844091Y-79442517D01*
X91844091Y-79442516D01*
X91842307Y-79434966D01*
X91843559Y-79434669D01*
X91839145Y-79372924D01*
X91843132Y-79359346D01*
X91843598Y-79357375D01*
X91849999Y-79297844D01*
X91850000Y-79297827D01*
X91850000Y-79000000D01*
X90474000Y-79000000D01*
X90406961Y-78980315D01*
X90361206Y-78927511D01*
X90350000Y-78876000D01*
X90350000Y-77750000D01*
X89802155Y-77750000D01*
X89742627Y-77756401D01*
X89742620Y-77756403D01*
X89607913Y-77806645D01*
X89607906Y-77806649D01*
X89492812Y-77892809D01*
X89492809Y-77892812D01*
X89401331Y-78015011D01*
X89399272Y-78013469D01*
X89359418Y-78053318D01*
X89291143Y-78068164D01*
X89225681Y-78043742D01*
X89199952Y-78014049D01*
X89198669Y-78015011D01*
X89107190Y-77892812D01*
X89107187Y-77892809D01*
X88992092Y-77806648D01*
X88967742Y-77797566D01*
X88911810Y-77755694D01*
X88887394Y-77690229D01*
X88887756Y-77668439D01*
X88905460Y-77500000D01*
X88905460Y-77499996D01*
X88905460Y-77499500D01*
X88905541Y-77499223D01*
X88906139Y-77493536D01*
X88907179Y-77493645D01*
X88925145Y-77432461D01*
X88977949Y-77386706D01*
X89029460Y-77375500D01*
X91110258Y-77375500D01*
X91177297Y-77395185D01*
X91197939Y-77411819D01*
X91324439Y-77538319D01*
X91357924Y-77599642D01*
X91352940Y-77669334D01*
X91311068Y-77725267D01*
X91245604Y-77749684D01*
X91236758Y-77750000D01*
X90850000Y-77750000D01*
X90850000Y-78500000D01*
X91850000Y-78500000D01*
X91850000Y-78363241D01*
X91869685Y-78296202D01*
X91922489Y-78250447D01*
X91991647Y-78240503D01*
X92055203Y-78269528D01*
X92061666Y-78275546D01*
X93790167Y-80004047D01*
X95388181Y-81602061D01*
X95421666Y-81663384D01*
X95424500Y-81689742D01*
X95424500Y-81993435D01*
X95404815Y-82060474D01*
X95352011Y-82106229D01*
X95343834Y-82109617D01*
X95166833Y-82175635D01*
X94915690Y-82312770D01*
X94915682Y-82312775D01*
X94686612Y-82484254D01*
X94686594Y-82484270D01*
X94484270Y-82686594D01*
X94484254Y-82686612D01*
X94312775Y-82915682D01*
X94312770Y-82915690D01*
X94175635Y-83166833D01*
X94075628Y-83434962D01*
X94014804Y-83714566D01*
X93994390Y-83999998D01*
X93994390Y-84000001D01*
X94014804Y-84285433D01*
X94075628Y-84565037D01*
X94075630Y-84565043D01*
X94075631Y-84565046D01*
X94137789Y-84731697D01*
X94175635Y-84833166D01*
X94312770Y-85084309D01*
X94312774Y-85084315D01*
X94484254Y-85313387D01*
X94484270Y-85313405D01*
X94686594Y-85515729D01*
X94686612Y-85515745D01*
X94915682Y-85687224D01*
X94915690Y-85687229D01*
X95166833Y-85824364D01*
X95166832Y-85824364D01*
X95166836Y-85824365D01*
X95166839Y-85824367D01*
X95434954Y-85924369D01*
X95434960Y-85924370D01*
X95434962Y-85924371D01*
X95714566Y-85985195D01*
X95714568Y-85985195D01*
X95714572Y-85985196D01*
X95968220Y-86003337D01*
X95999999Y-86005610D01*
X96000000Y-86005610D01*
X96000001Y-86005610D01*
X96028595Y-86003564D01*
X96285428Y-85985196D01*
X96449521Y-85949500D01*
X96565037Y-85924371D01*
X96565037Y-85924370D01*
X96565046Y-85924369D01*
X96833161Y-85824367D01*
X97084315Y-85687226D01*
X97313395Y-85515739D01*
X97515739Y-85313395D01*
X97687226Y-85084315D01*
X97824367Y-84833161D01*
X97924369Y-84565046D01*
X97978582Y-84315832D01*
X97985195Y-84285433D01*
X97985195Y-84285432D01*
X97985196Y-84285428D01*
X98004476Y-84015851D01*
X98005610Y-84000001D01*
X98005610Y-83999998D01*
X97998422Y-83899500D01*
X97985196Y-83714572D01*
X97957718Y-83588259D01*
X97924371Y-83434962D01*
X97924370Y-83434960D01*
X97924369Y-83434954D01*
X97824367Y-83166839D01*
X97761737Y-83052142D01*
X97687229Y-82915690D01*
X97687224Y-82915682D01*
X97515745Y-82686612D01*
X97515729Y-82686594D01*
X97313405Y-82484270D01*
X97313387Y-82484254D01*
X97084317Y-82312775D01*
X97084309Y-82312770D01*
X96833166Y-82175635D01*
X96825093Y-82172624D01*
X96656165Y-82109616D01*
X96600233Y-82067745D01*
X96575816Y-82002281D01*
X96575500Y-81993435D01*
X96575500Y-81441780D01*
X96576031Y-81433678D01*
X96578848Y-81412285D01*
X96580465Y-81400000D01*
X96575766Y-81364313D01*
X96575765Y-81364294D01*
X96568651Y-81310258D01*
X96560687Y-81249764D01*
X96502698Y-81109767D01*
X96455772Y-81048612D01*
X96430579Y-80983443D01*
X96444618Y-80914999D01*
X96493432Y-80865009D01*
X96527794Y-80851960D01*
X96564898Y-80843889D01*
X96832958Y-80743908D01*
X97084047Y-80606803D01*
X97226561Y-80500116D01*
X97226562Y-80500115D01*
X96333747Y-79607300D01*
X96343409Y-79603784D01*
X96491844Y-79506157D01*
X96613764Y-79376930D01*
X96685768Y-79252215D01*
X97580115Y-80146562D01*
X97580116Y-80146561D01*
X97686803Y-80004047D01*
X97823908Y-79752958D01*
X97923890Y-79484895D01*
X97984699Y-79205362D01*
X98005108Y-78920001D01*
X98005108Y-78919998D01*
X97984699Y-78634637D01*
X97923890Y-78355104D01*
X97823908Y-78087041D01*
X97686808Y-77835961D01*
X97686807Y-77835960D01*
X97580115Y-77693436D01*
X96684803Y-78588747D01*
X96662660Y-78537413D01*
X96556567Y-78394906D01*
X96420470Y-78280706D01*
X96330781Y-78235663D01*
X97226562Y-77339883D01*
X97226561Y-77339882D01*
X97084046Y-77233196D01*
X97084038Y-77233191D01*
X96832957Y-77096091D01*
X96832958Y-77096091D01*
X96564895Y-76996109D01*
X96285362Y-76935300D01*
X96000001Y-76914891D01*
X95999999Y-76914891D01*
X95714637Y-76935300D01*
X95435104Y-76996109D01*
X95167041Y-77096091D01*
X94915961Y-77233191D01*
X94915953Y-77233196D01*
X94773436Y-77339882D01*
X94773436Y-77339883D01*
X95666251Y-78232699D01*
X95656591Y-78236216D01*
X95508156Y-78333843D01*
X95386236Y-78463070D01*
X95314231Y-78587785D01*
X94419882Y-77693436D01*
X94313196Y-77835953D01*
X94313191Y-77835961D01*
X94176091Y-78087041D01*
X94076108Y-78355106D01*
X94069505Y-78385460D01*
X94036019Y-78446782D01*
X93974694Y-78480265D01*
X93905003Y-78475278D01*
X93860659Y-78446779D01*
X91836489Y-76422609D01*
X91831136Y-76416506D01*
X91828486Y-76413053D01*
X91810451Y-76389549D01*
X91810449Y-76389547D01*
X91810448Y-76389546D01*
X91781963Y-76367689D01*
X91781952Y-76367680D01*
X91706476Y-76309765D01*
X91697697Y-76300392D01*
X91550239Y-76239314D01*
X91550237Y-76239313D01*
X91550236Y-76239313D01*
X91496906Y-76232291D01*
X91434098Y-76224023D01*
X91434083Y-76224021D01*
X91407196Y-76220482D01*
X91400000Y-76219535D01*
X91399999Y-76219535D01*
X91399998Y-76219535D01*
X91380965Y-76222040D01*
X91366317Y-76223969D01*
X91358219Y-76224500D01*
X86888742Y-76224500D01*
X86821703Y-76204815D01*
X86775948Y-76152011D01*
X86766004Y-76082853D01*
X86795029Y-76019297D01*
X86801061Y-76012819D01*
X88802735Y-74011145D01*
X90186010Y-72627870D01*
X93999500Y-72627870D01*
X93999501Y-72627876D01*
X94005908Y-72687483D01*
X94056202Y-72822328D01*
X94056206Y-72822335D01*
X94142452Y-72937544D01*
X94142455Y-72937547D01*
X94257664Y-73023793D01*
X94257671Y-73023797D01*
X94392517Y-73074091D01*
X94392516Y-73074091D01*
X94399444Y-73074835D01*
X94452127Y-73080500D01*
X97547872Y-73080499D01*
X97607483Y-73074091D01*
X97742331Y-73023796D01*
X97857546Y-72937546D01*
X97943796Y-72822331D01*
X97994091Y-72687483D01*
X98000500Y-72627873D01*
X98000499Y-69532128D01*
X97994091Y-69472517D01*
X97982531Y-69441524D01*
X97943797Y-69337671D01*
X97943793Y-69337664D01*
X97857547Y-69222455D01*
X97857544Y-69222452D01*
X97742335Y-69136206D01*
X97742328Y-69136202D01*
X97607482Y-69085908D01*
X97607483Y-69085908D01*
X97547883Y-69079501D01*
X97547881Y-69079500D01*
X97547873Y-69079500D01*
X97547864Y-69079500D01*
X94452129Y-69079500D01*
X94452123Y-69079501D01*
X94392516Y-69085908D01*
X94257671Y-69136202D01*
X94257664Y-69136206D01*
X94142455Y-69222452D01*
X94142452Y-69222455D01*
X94056206Y-69337664D01*
X94056202Y-69337671D01*
X94005908Y-69472517D01*
X93999983Y-69527635D01*
X93999501Y-69532123D01*
X93999500Y-69532135D01*
X93999500Y-72627870D01*
X90186010Y-72627870D01*
X94986506Y-67827372D01*
X95047827Y-67793889D01*
X95117519Y-67798873D01*
X95133606Y-67806220D01*
X95166839Y-67824367D01*
X95434954Y-67924369D01*
X95434960Y-67924370D01*
X95434962Y-67924371D01*
X95714566Y-67985195D01*
X95714568Y-67985195D01*
X95714572Y-67985196D01*
X95968220Y-68003337D01*
X95999999Y-68005610D01*
X96000000Y-68005610D01*
X96000001Y-68005610D01*
X96028595Y-68003564D01*
X96285428Y-67985196D01*
X96565046Y-67924369D01*
X96833161Y-67824367D01*
X97084315Y-67687226D01*
X97313395Y-67515739D01*
X97515739Y-67313395D01*
X97687226Y-67084315D01*
X97824367Y-66833161D01*
X97924369Y-66565046D01*
X97924371Y-66565037D01*
X97985195Y-66285433D01*
X97985195Y-66285432D01*
X97985196Y-66285428D01*
X98005610Y-66000000D01*
X97985196Y-65714572D01*
X97977081Y-65677270D01*
X97924371Y-65434962D01*
X97924370Y-65434960D01*
X97924369Y-65434954D01*
X97824367Y-65166839D01*
X97816009Y-65151533D01*
X97687229Y-64915690D01*
X97687224Y-64915682D01*
X97515745Y-64686612D01*
X97515729Y-64686594D01*
X97313405Y-64484270D01*
X97313387Y-64484254D01*
X97084317Y-64312775D01*
X97084309Y-64312770D01*
X96833166Y-64175635D01*
X96833167Y-64175635D01*
X96725914Y-64135632D01*
X96565046Y-64075631D01*
X96565043Y-64075630D01*
X96565037Y-64075628D01*
X96285433Y-64014804D01*
X96000001Y-63994390D01*
X95999999Y-63994390D01*
X95714566Y-64014804D01*
X95434962Y-64075628D01*
X95166833Y-64175635D01*
X94915690Y-64312770D01*
X94915682Y-64312775D01*
X94686612Y-64484254D01*
X94686594Y-64484270D01*
X94484270Y-64686594D01*
X94484254Y-64686612D01*
X94312775Y-64915682D01*
X94312770Y-64915690D01*
X94175635Y-65166833D01*
X94075628Y-65434962D01*
X94014804Y-65714566D01*
X93994390Y-65999998D01*
X93994390Y-66000001D01*
X94014804Y-66285433D01*
X94075628Y-66565037D01*
X94175634Y-66833163D01*
X94193775Y-66866385D01*
X94208627Y-66934658D01*
X94184211Y-67000123D01*
X94172624Y-67013494D01*
X85397939Y-75788181D01*
X85336616Y-75821666D01*
X85310258Y-75824500D01*
X80889742Y-75824500D01*
X80822703Y-75804815D01*
X80802061Y-75788181D01*
X80738572Y-75724692D01*
X80705087Y-75663369D01*
X80702932Y-75624049D01*
X80702933Y-75624044D01*
X80705460Y-75600000D01*
X80685674Y-75411744D01*
X80627179Y-75231716D01*
X80532533Y-75067784D01*
X80405871Y-74927112D01*
X80390369Y-74915849D01*
X80252734Y-74815851D01*
X80252729Y-74815848D01*
X80079807Y-74738857D01*
X80079802Y-74738855D01*
X79934000Y-74707865D01*
X79894646Y-74699500D01*
X79705354Y-74699500D01*
X79672897Y-74706398D01*
X79520197Y-74738855D01*
X79520192Y-74738857D01*
X79347270Y-74815848D01*
X79347265Y-74815851D01*
X79194129Y-74927111D01*
X79067466Y-75067785D01*
X78972821Y-75231715D01*
X78972818Y-75231722D01*
X78914327Y-75411740D01*
X78914326Y-75411744D01*
X78894540Y-75600000D01*
X78914326Y-75788256D01*
X78914327Y-75788259D01*
X78972818Y-75968277D01*
X78972821Y-75968284D01*
X79070716Y-76137844D01*
X79068150Y-76139325D01*
X79087250Y-76193098D01*
X79071327Y-76261129D01*
X79070680Y-76262135D01*
X79070716Y-76262156D01*
X78972821Y-76431715D01*
X78972818Y-76431722D01*
X78914327Y-76611740D01*
X78914326Y-76611744D01*
X78894540Y-76800000D01*
X78914326Y-76988256D01*
X78914327Y-76988259D01*
X78972818Y-77168277D01*
X78972821Y-77168284D01*
X79067467Y-77332216D01*
X79124165Y-77395185D01*
X79194129Y-77472888D01*
X79347265Y-77584148D01*
X79347270Y-77584151D01*
X79520192Y-77661142D01*
X79520197Y-77661144D01*
X79705354Y-77700500D01*
X79705355Y-77700500D01*
X79894644Y-77700500D01*
X79894646Y-77700500D01*
X80079803Y-77661144D01*
X80252730Y-77584151D01*
X80405871Y-77472888D01*
X80456618Y-77416527D01*
X80516105Y-77379879D01*
X80548768Y-77375500D01*
X86970540Y-77375500D01*
X87037579Y-77395185D01*
X87083334Y-77447989D01*
X87093256Y-77493600D01*
X87093861Y-77493537D01*
X87094438Y-77499035D01*
X87094540Y-77499500D01*
X87094540Y-77499996D01*
X87094540Y-77500000D01*
X87112174Y-77667784D01*
X87112242Y-77668424D01*
X87099672Y-77737154D01*
X87051940Y-77788177D01*
X87032257Y-77797566D01*
X87007913Y-77806646D01*
X86892809Y-77892813D01*
X86801331Y-78015011D01*
X86799272Y-78013469D01*
X86759418Y-78053318D01*
X86691143Y-78068164D01*
X86625681Y-78043742D01*
X86599952Y-78014049D01*
X86598669Y-78015011D01*
X86507190Y-77892812D01*
X86507187Y-77892809D01*
X86392093Y-77806649D01*
X86392086Y-77806645D01*
X86257379Y-77756403D01*
X86257372Y-77756401D01*
X86197844Y-77750000D01*
X85650000Y-77750000D01*
X85650000Y-78876000D01*
X85630315Y-78943039D01*
X85577511Y-78988794D01*
X85526000Y-79000000D01*
X85274000Y-79000000D01*
X85206961Y-78980315D01*
X85161206Y-78927511D01*
X85150000Y-78876000D01*
X85150000Y-77750000D01*
X84602155Y-77750000D01*
X84542627Y-77756401D01*
X84542620Y-77756403D01*
X84407913Y-77806645D01*
X84407906Y-77806649D01*
X84292812Y-77892809D01*
X84292809Y-77892812D01*
X84201331Y-78015011D01*
X84199272Y-78013469D01*
X84159418Y-78053318D01*
X84091143Y-78068164D01*
X84025681Y-78043742D01*
X83999952Y-78014049D01*
X83998669Y-78015011D01*
X83907190Y-77892812D01*
X83907187Y-77892809D01*
X83792093Y-77806649D01*
X83792086Y-77806645D01*
X83657379Y-77756403D01*
X83657372Y-77756401D01*
X83597844Y-77750000D01*
X83050000Y-77750000D01*
X83050000Y-78876000D01*
X83030315Y-78943039D01*
X82977511Y-78988794D01*
X82926000Y-79000000D01*
X81550000Y-79000000D01*
X81550000Y-79297844D01*
X81556401Y-79357372D01*
X81558187Y-79364930D01*
X81556542Y-79365318D01*
X81560851Y-79425656D01*
X81555943Y-79442371D01*
X81555908Y-79442520D01*
X81549501Y-79502116D01*
X81549501Y-79502123D01*
X81549500Y-79502135D01*
X81549500Y-80597870D01*
X81549501Y-80597876D01*
X81555908Y-80657483D01*
X81606202Y-80792328D01*
X81606206Y-80792335D01*
X81692452Y-80907544D01*
X81692455Y-80907547D01*
X81807664Y-80993793D01*
X81807671Y-80993797D01*
X81942517Y-81044091D01*
X81942516Y-81044091D01*
X81949444Y-81044835D01*
X82002127Y-81050500D01*
X83597872Y-81050499D01*
X83657483Y-81044091D01*
X83745041Y-81011433D01*
X83814730Y-81006449D01*
X83876053Y-81039933D01*
X85158646Y-82322526D01*
X85192131Y-82383849D01*
X85187147Y-82453541D01*
X85145275Y-82509474D01*
X85079811Y-82533891D01*
X85045185Y-82531497D01*
X84894647Y-82499500D01*
X84894646Y-82499500D01*
X84705354Y-82499500D01*
X84672897Y-82506398D01*
X84520197Y-82538855D01*
X84520192Y-82538857D01*
X84350436Y-82614439D01*
X84281186Y-82623724D01*
X84249564Y-82614439D01*
X84079807Y-82538857D01*
X84079802Y-82538855D01*
X83934000Y-82507865D01*
X83894646Y-82499500D01*
X83705354Y-82499500D01*
X83672897Y-82506398D01*
X83520197Y-82538855D01*
X83520192Y-82538857D01*
X83347270Y-82615848D01*
X83347265Y-82615851D01*
X83194129Y-82727111D01*
X83067466Y-82867785D01*
X82972821Y-83031715D01*
X82972818Y-83031722D01*
X82914327Y-83211740D01*
X82914326Y-83211744D01*
X82894540Y-83400000D01*
X82914326Y-83588256D01*
X82914327Y-83588259D01*
X82972818Y-83768277D01*
X82972821Y-83768284D01*
X83067467Y-83932216D01*
X83128501Y-84000001D01*
X83194129Y-84072888D01*
X83347265Y-84184148D01*
X83347270Y-84184151D01*
X83520192Y-84261142D01*
X83520197Y-84261144D01*
X83705354Y-84300500D01*
X83835258Y-84300500D01*
X83902297Y-84320185D01*
X83922939Y-84336819D01*
X84563520Y-84977400D01*
X84568861Y-84983490D01*
X84589549Y-85010451D01*
X84600271Y-85018678D01*
X84618486Y-85032656D01*
X84618491Y-85032660D01*
X84619732Y-85033612D01*
X84685810Y-85084315D01*
X84709767Y-85102698D01*
X84849764Y-85160687D01*
X84962280Y-85175500D01*
X84962281Y-85175500D01*
X84964294Y-85175765D01*
X84964313Y-85175766D01*
X85000000Y-85180465D01*
X85000001Y-85180465D01*
X85013265Y-85178718D01*
X85033682Y-85176030D01*
X85041781Y-85175500D01*
X87300500Y-85175500D01*
X87367539Y-85195185D01*
X87413294Y-85247989D01*
X87424500Y-85299500D01*
X87424500Y-85825500D01*
X87404815Y-85892539D01*
X87352011Y-85938294D01*
X87300501Y-85949500D01*
X87202130Y-85949500D01*
X87202123Y-85949501D01*
X87142516Y-85955908D01*
X87007671Y-86006202D01*
X87007664Y-86006206D01*
X86892455Y-86092452D01*
X86892452Y-86092455D01*
X86800888Y-86214769D01*
X86798618Y-86213070D01*
X86759420Y-86252264D01*
X86691146Y-86267111D01*
X86625683Y-86242690D01*
X86600554Y-86213689D01*
X86599112Y-86214769D01*
X86507547Y-86092455D01*
X86507544Y-86092452D01*
X86392335Y-86006206D01*
X86392328Y-86006202D01*
X86257482Y-85955908D01*
X86257483Y-85955908D01*
X86197883Y-85949501D01*
X86197881Y-85949500D01*
X86197873Y-85949500D01*
X86197865Y-85949500D01*
X85264742Y-85949500D01*
X85197703Y-85929815D01*
X85177061Y-85913181D01*
X85111489Y-85847609D01*
X85106136Y-85841506D01*
X85093854Y-85825500D01*
X85085451Y-85814549D01*
X85085449Y-85814547D01*
X85085448Y-85814546D01*
X85056963Y-85792689D01*
X85056952Y-85792680D01*
X84965232Y-85722301D01*
X84880548Y-85687224D01*
X84825236Y-85664313D01*
X84771906Y-85657291D01*
X84709098Y-85649023D01*
X84709083Y-85649021D01*
X84679071Y-85645071D01*
X84675000Y-85644535D01*
X84674999Y-85644535D01*
X84674998Y-85644535D01*
X84655965Y-85647040D01*
X84641317Y-85648969D01*
X84633219Y-85649500D01*
X81866781Y-85649500D01*
X81858682Y-85648969D01*
X81838265Y-85646281D01*
X81825001Y-85644535D01*
X81825000Y-85644535D01*
X81820929Y-85645071D01*
X81791419Y-85648955D01*
X81791406Y-85648957D01*
X81787281Y-85649500D01*
X81787280Y-85649500D01*
X81674764Y-85664313D01*
X81674763Y-85664313D01*
X81534766Y-85722301D01*
X81445845Y-85790533D01*
X81445824Y-85790549D01*
X81414548Y-85814550D01*
X81393861Y-85841507D01*
X81388510Y-85847608D01*
X79822608Y-87413510D01*
X79816507Y-87418861D01*
X79789550Y-87439548D01*
X79765549Y-87470824D01*
X79765533Y-87470845D01*
X79718511Y-87532127D01*
X79697300Y-87559769D01*
X79639313Y-87699763D01*
X79639313Y-87699764D01*
X79623957Y-87816406D01*
X79623955Y-87816419D01*
X79619535Y-87850000D01*
X79623182Y-87877705D01*
X79623969Y-87883678D01*
X79624500Y-87891780D01*
X79624500Y-95216272D01*
X79604815Y-95283311D01*
X79552011Y-95329066D01*
X79526286Y-95337561D01*
X79520199Y-95338854D01*
X79520192Y-95338857D01*
X79347270Y-95415848D01*
X79347265Y-95415851D01*
X79194129Y-95527111D01*
X79067466Y-95667785D01*
X78972821Y-95831715D01*
X78972818Y-95831722D01*
X78914327Y-96011740D01*
X78914326Y-96011744D01*
X78894540Y-96200000D01*
X78914326Y-96388256D01*
X78914333Y-96388279D01*
X78972818Y-96568277D01*
X78972821Y-96568284D01*
X79067467Y-96732216D01*
X79191349Y-96869800D01*
X79194129Y-96872888D01*
X79347265Y-96984148D01*
X79347267Y-96984149D01*
X79347270Y-96984151D01*
X79354166Y-96987221D01*
X79407403Y-97032472D01*
X79427723Y-97099322D01*
X79408677Y-97166545D01*
X79356310Y-97212800D01*
X79303729Y-97224500D01*
X78094604Y-97224500D01*
X78027565Y-97204815D01*
X77987217Y-97162499D01*
X77932536Y-97067788D01*
X77932534Y-97067785D01*
X77805870Y-96927111D01*
X77652734Y-96815851D01*
X77652729Y-96815848D01*
X77479807Y-96738857D01*
X77479802Y-96738855D01*
X77334001Y-96707865D01*
X77294646Y-96699500D01*
X77105354Y-96699500D01*
X77072897Y-96706398D01*
X76920197Y-96738855D01*
X76920192Y-96738857D01*
X76747270Y-96815848D01*
X76747265Y-96815851D01*
X76594129Y-96927111D01*
X76467466Y-97067785D01*
X76372821Y-97231715D01*
X76372818Y-97231722D01*
X76333480Y-97352793D01*
X76314326Y-97411744D01*
X76294540Y-97600000D01*
X71848404Y-97600000D01*
X71934727Y-97573814D01*
X72108538Y-97480910D01*
X72260883Y-97355883D01*
X72385910Y-97203538D01*
X72478814Y-97029727D01*
X72536024Y-96841132D01*
X72555341Y-96645000D01*
X72536024Y-96448868D01*
X72478814Y-96260273D01*
X72477677Y-96258146D01*
X72477418Y-96256904D01*
X72476483Y-96254645D01*
X72476911Y-96254467D01*
X72463435Y-96189746D01*
X72487771Y-96125379D01*
X72493796Y-96117331D01*
X72544091Y-95982483D01*
X72550500Y-95922873D01*
X72550499Y-94827128D01*
X72544091Y-94767517D01*
X72529938Y-94729572D01*
X72493797Y-94632671D01*
X72493793Y-94632664D01*
X72407547Y-94517455D01*
X72407544Y-94517452D01*
X72292335Y-94431206D01*
X72292328Y-94431202D01*
X72157482Y-94380908D01*
X72157483Y-94380908D01*
X72097883Y-94374501D01*
X72097881Y-94374500D01*
X72097873Y-94374500D01*
X72097864Y-94374500D01*
X71002129Y-94374500D01*
X71002123Y-94374501D01*
X70942516Y-94380908D01*
X70807671Y-94431202D01*
X70807666Y-94431205D01*
X70799172Y-94437564D01*
X70733707Y-94461979D01*
X70670363Y-94448493D01*
X70670162Y-94448981D01*
X70667526Y-94447889D01*
X70666407Y-94447651D01*
X70664537Y-94446651D01*
X70530000Y-94405839D01*
X70530000Y-95167327D01*
X70492129Y-95122195D01*
X70392871Y-95064888D01*
X70308436Y-95050000D01*
X70251564Y-95050000D01*
X70167129Y-95064888D01*
X70067871Y-95122195D01*
X69994199Y-95209993D01*
X69955000Y-95317694D01*
X69955000Y-95432306D01*
X69994199Y-95540007D01*
X70065517Y-95625000D01*
X69224483Y-95625000D01*
X69295801Y-95540007D01*
X69335000Y-95432306D01*
X69335000Y-95317694D01*
X69295801Y-95209993D01*
X69224483Y-95125000D01*
X69260000Y-95125000D01*
X70030000Y-95125000D01*
X70030000Y-94405839D01*
X70029999Y-94405839D01*
X69895458Y-94446652D01*
X69721746Y-94539503D01*
X69716678Y-94542890D01*
X69715641Y-94541338D01*
X69659339Y-94565242D01*
X69590473Y-94553442D01*
X69573541Y-94542560D01*
X69573322Y-94542890D01*
X69568253Y-94539503D01*
X69394541Y-94446652D01*
X69260000Y-94405839D01*
X69260000Y-95125000D01*
X69224483Y-95125000D01*
X69222129Y-95122195D01*
X69122871Y-95064888D01*
X69038436Y-95050000D01*
X68981564Y-95050000D01*
X68897129Y-95064888D01*
X68797871Y-95122195D01*
X68760000Y-95167327D01*
X68760000Y-94405839D01*
X68759999Y-94405839D01*
X68625458Y-94446652D01*
X68451742Y-94539505D01*
X68446673Y-94542893D01*
X68445556Y-94541221D01*
X68389715Y-94564921D01*
X68320851Y-94553111D01*
X68303811Y-94542158D01*
X68303601Y-94542473D01*
X68298532Y-94539086D01*
X68124733Y-94446188D01*
X68124727Y-94446186D01*
X67936132Y-94388976D01*
X67936129Y-94388975D01*
X67740000Y-94369659D01*
X67543870Y-94388975D01*
X67355266Y-94446188D01*
X67181467Y-94539086D01*
X67176399Y-94542473D01*
X67175305Y-94540836D01*
X67119337Y-94564596D01*
X67050471Y-94552795D01*
X67033843Y-94542109D01*
X67033601Y-94542473D01*
X67028532Y-94539086D01*
X66854733Y-94446188D01*
X66854727Y-94446186D01*
X66666132Y-94388976D01*
X66666129Y-94388975D01*
X66470000Y-94369659D01*
X66273870Y-94388975D01*
X66085266Y-94446188D01*
X65911467Y-94539086D01*
X65911460Y-94539090D01*
X65759116Y-94664116D01*
X65634090Y-94816460D01*
X65634086Y-94816467D01*
X65541188Y-94990266D01*
X65483975Y-95178870D01*
X65464659Y-95375000D01*
X65483975Y-95571129D01*
X65483976Y-95571132D01*
X65522226Y-95697226D01*
X65541188Y-95759733D01*
X65634086Y-95933532D01*
X65637473Y-95938601D01*
X65635836Y-95939694D01*
X65659596Y-95995663D01*
X65647795Y-96064529D01*
X65637109Y-96081156D01*
X65637473Y-96081399D01*
X65634086Y-96086467D01*
X65541188Y-96260266D01*
X65483975Y-96448870D01*
X65464659Y-96645000D01*
X58024237Y-96645000D01*
X58124602Y-96270433D01*
X58185278Y-95887338D01*
X58205578Y-95500000D01*
X58185278Y-95112662D01*
X58124602Y-94729567D01*
X58024214Y-94354913D01*
X57926362Y-94100000D01*
X76294540Y-94100000D01*
X76314326Y-94288256D01*
X76314327Y-94288259D01*
X76372818Y-94468277D01*
X76372821Y-94468284D01*
X76467467Y-94632216D01*
X76555125Y-94729570D01*
X76594129Y-94772888D01*
X76747265Y-94884148D01*
X76747270Y-94884151D01*
X76920192Y-94961142D01*
X76920197Y-94961144D01*
X77105354Y-95000500D01*
X77105355Y-95000500D01*
X77294644Y-95000500D01*
X77294646Y-95000500D01*
X77479803Y-94961144D01*
X77652730Y-94884151D01*
X77805871Y-94772888D01*
X77932533Y-94632216D01*
X78027179Y-94468284D01*
X78085674Y-94288256D01*
X78105460Y-94100000D01*
X78085674Y-93911744D01*
X78027179Y-93731716D01*
X77932533Y-93567784D01*
X77805871Y-93427112D01*
X77805870Y-93427111D01*
X77652734Y-93315851D01*
X77652729Y-93315848D01*
X77479807Y-93238857D01*
X77479802Y-93238855D01*
X77334000Y-93207865D01*
X77294646Y-93199500D01*
X77105354Y-93199500D01*
X77072897Y-93206398D01*
X76920197Y-93238855D01*
X76920192Y-93238857D01*
X76747270Y-93315848D01*
X76747265Y-93315851D01*
X76594129Y-93427111D01*
X76467466Y-93567785D01*
X76372821Y-93731715D01*
X76372818Y-93731722D01*
X76314327Y-93911740D01*
X76314326Y-93911744D01*
X76294540Y-94100000D01*
X57926362Y-94100000D01*
X57885214Y-93992806D01*
X57709125Y-93647211D01*
X57566191Y-93427112D01*
X57497877Y-93321917D01*
X57253784Y-93020488D01*
X57253781Y-93020484D01*
X56979516Y-92746219D01*
X56678084Y-92502124D01*
X56678082Y-92502122D01*
X56352793Y-92290877D01*
X56007197Y-92114787D01*
X55645094Y-91975788D01*
X55645087Y-91975786D01*
X55270433Y-91875398D01*
X55270429Y-91875397D01*
X55270428Y-91875397D01*
X54887339Y-91814722D01*
X54500001Y-91794422D01*
X54499999Y-91794422D01*
X54112660Y-91814722D01*
X53729572Y-91875397D01*
X53729570Y-91875397D01*
X53354905Y-91975788D01*
X52992802Y-92114787D01*
X52647206Y-92290877D01*
X52321917Y-92502122D01*
X52020488Y-92746215D01*
X52020480Y-92746222D01*
X51746222Y-93020480D01*
X51746215Y-93020488D01*
X51502122Y-93321917D01*
X51290877Y-93647206D01*
X51114787Y-93992802D01*
X50975788Y-94354905D01*
X50875397Y-94729570D01*
X50875397Y-94729572D01*
X50814722Y-95112660D01*
X50794422Y-95499999D01*
X50794422Y-95500000D01*
X50000500Y-95500000D01*
X50000500Y-89080001D01*
X51994891Y-89080001D01*
X52015300Y-89365362D01*
X52076109Y-89644895D01*
X52176091Y-89912958D01*
X52313191Y-90164038D01*
X52313196Y-90164046D01*
X52419882Y-90306561D01*
X52419883Y-90306562D01*
X53315195Y-89411249D01*
X53337340Y-89462587D01*
X53443433Y-89605094D01*
X53579530Y-89719294D01*
X53669216Y-89764335D01*
X52773436Y-90660115D01*
X52915960Y-90766807D01*
X52915961Y-90766808D01*
X53167042Y-90903908D01*
X53167041Y-90903908D01*
X53435104Y-91003890D01*
X53714637Y-91064699D01*
X53999999Y-91085109D01*
X54000001Y-91085109D01*
X54285362Y-91064699D01*
X54564895Y-91003890D01*
X54832958Y-90903908D01*
X55084047Y-90766803D01*
X55226561Y-90660116D01*
X55226562Y-90660115D01*
X54333748Y-89767300D01*
X54343409Y-89763784D01*
X54491844Y-89666157D01*
X54613764Y-89536930D01*
X54685768Y-89412214D01*
X55580115Y-90306562D01*
X55580116Y-90306561D01*
X55686803Y-90164047D01*
X55823908Y-89912958D01*
X55923890Y-89644895D01*
X55984699Y-89365362D01*
X56005109Y-89080001D01*
X56005109Y-89079998D01*
X55984699Y-88794637D01*
X55923890Y-88515104D01*
X55823908Y-88247041D01*
X55743618Y-88100000D01*
X57694540Y-88100000D01*
X57714326Y-88288256D01*
X57714327Y-88288259D01*
X57772818Y-88468277D01*
X57772821Y-88468284D01*
X57867467Y-88632216D01*
X57989977Y-88768277D01*
X57994129Y-88772888D01*
X58147265Y-88884148D01*
X58147270Y-88884151D01*
X58320192Y-88961142D01*
X58320197Y-88961144D01*
X58505354Y-89000500D01*
X58635258Y-89000500D01*
X58702297Y-89020185D01*
X58722938Y-89036819D01*
X61313520Y-91627400D01*
X61318861Y-91633490D01*
X61339549Y-91660451D01*
X61350271Y-91668678D01*
X61368486Y-91682656D01*
X61368491Y-91682660D01*
X61369732Y-91683612D01*
X61459768Y-91752699D01*
X61501510Y-91769989D01*
X61531028Y-91782216D01*
X61560497Y-91794422D01*
X61599764Y-91810687D01*
X61712280Y-91825500D01*
X61750000Y-91830466D01*
X61783688Y-91826030D01*
X61791786Y-91825500D01*
X75651232Y-91825500D01*
X75718271Y-91845185D01*
X75743382Y-91866528D01*
X75794129Y-91922888D01*
X75794135Y-91922893D01*
X75947265Y-92034148D01*
X75947270Y-92034151D01*
X76120192Y-92111142D01*
X76120197Y-92111144D01*
X76305354Y-92150500D01*
X76305355Y-92150500D01*
X76494644Y-92150500D01*
X76494646Y-92150500D01*
X76679803Y-92111144D01*
X76852730Y-92034151D01*
X77005871Y-91922888D01*
X77132533Y-91782216D01*
X77227179Y-91618284D01*
X77285674Y-91438256D01*
X77305460Y-91250000D01*
X77285674Y-91061744D01*
X77227179Y-90881716D01*
X77132533Y-90717784D01*
X77005871Y-90577112D01*
X76934579Y-90525316D01*
X76891916Y-90469989D01*
X76885937Y-90400375D01*
X76918542Y-90338580D01*
X76934572Y-90324688D01*
X77005871Y-90272888D01*
X77132533Y-90132216D01*
X77227179Y-89968284D01*
X77285674Y-89788256D01*
X77305460Y-89600000D01*
X77285674Y-89411744D01*
X77227179Y-89231716D01*
X77132533Y-89067784D01*
X77104652Y-89036819D01*
X77007350Y-88928753D01*
X76977120Y-88865761D01*
X76975500Y-88845781D01*
X76975500Y-87441780D01*
X76976031Y-87433678D01*
X76976896Y-87427112D01*
X76980465Y-87400000D01*
X76975766Y-87364313D01*
X76975765Y-87364294D01*
X76972259Y-87337664D01*
X76960687Y-87249764D01*
X76907749Y-87121963D01*
X76898990Y-87061551D01*
X76905460Y-87000000D01*
X76885674Y-86811744D01*
X76827179Y-86631716D01*
X76732533Y-86467784D01*
X76605871Y-86327112D01*
X76605870Y-86327111D01*
X76452734Y-86215851D01*
X76452729Y-86215848D01*
X76279807Y-86138857D01*
X76279802Y-86138855D01*
X76134001Y-86107865D01*
X76094646Y-86099500D01*
X75905354Y-86099500D01*
X75872897Y-86106398D01*
X75720197Y-86138855D01*
X75720192Y-86138857D01*
X75547271Y-86215848D01*
X75472884Y-86269893D01*
X75407077Y-86293372D01*
X75339023Y-86277546D01*
X75327125Y-86269900D01*
X75252730Y-86215849D01*
X75252729Y-86215848D01*
X75079807Y-86138857D01*
X75079802Y-86138855D01*
X74934001Y-86107865D01*
X74894646Y-86099500D01*
X74705354Y-86099500D01*
X74672897Y-86106398D01*
X74520197Y-86138855D01*
X74520192Y-86138857D01*
X74347270Y-86215848D01*
X74347265Y-86215851D01*
X74194130Y-86327110D01*
X74192151Y-86329309D01*
X74190688Y-86330210D01*
X74189300Y-86331460D01*
X74189071Y-86331206D01*
X74132663Y-86365955D01*
X74062806Y-86364622D01*
X74010889Y-86331258D01*
X74010708Y-86331460D01*
X74009471Y-86330346D01*
X74007857Y-86329309D01*
X74005877Y-86327110D01*
X73852742Y-86215851D01*
X73852737Y-86215848D01*
X73679815Y-86138857D01*
X73679810Y-86138855D01*
X73534008Y-86107865D01*
X73494654Y-86099500D01*
X73305362Y-86099500D01*
X73272905Y-86106398D01*
X73120205Y-86138855D01*
X73120200Y-86138857D01*
X72947278Y-86215848D01*
X72947273Y-86215851D01*
X72794137Y-86327111D01*
X72667474Y-86467785D01*
X72572829Y-86631715D01*
X72572826Y-86631722D01*
X72517987Y-86800500D01*
X72514334Y-86811744D01*
X72494548Y-87000000D01*
X72514334Y-87188256D01*
X72514335Y-87188259D01*
X72572826Y-87368277D01*
X72572829Y-87368284D01*
X72667475Y-87532216D01*
X72699501Y-87567784D01*
X72794137Y-87672888D01*
X72947273Y-87784148D01*
X72947278Y-87784151D01*
X73120200Y-87861142D01*
X73120205Y-87861144D01*
X73305362Y-87900500D01*
X73435194Y-87900500D01*
X73502233Y-87920185D01*
X73522875Y-87936819D01*
X73861363Y-88275307D01*
X73894848Y-88336630D01*
X73897003Y-88375945D01*
X73894476Y-88399997D01*
X73894476Y-88400000D01*
X73914262Y-88588256D01*
X73914263Y-88588259D01*
X73972754Y-88768277D01*
X73972757Y-88768284D01*
X74067403Y-88932216D01*
X74146611Y-89020185D01*
X74194065Y-89072888D01*
X74347201Y-89184148D01*
X74347206Y-89184151D01*
X74520127Y-89261142D01*
X74520129Y-89261142D01*
X74520133Y-89261144D01*
X74684749Y-89296134D01*
X74746226Y-89329324D01*
X74769341Y-89362788D01*
X74769571Y-89362656D01*
X74771207Y-89365491D01*
X74772248Y-89366997D01*
X74772822Y-89368288D01*
X74867465Y-89532214D01*
X74994129Y-89672888D01*
X75147265Y-89784148D01*
X75147270Y-89784151D01*
X75320191Y-89861142D01*
X75320193Y-89861142D01*
X75320197Y-89861144D01*
X75484742Y-89896118D01*
X75546219Y-89929309D01*
X75569344Y-89962787D01*
X75569571Y-89962656D01*
X75571187Y-89965455D01*
X75572239Y-89966978D01*
X75572820Y-89968284D01*
X75667465Y-90132214D01*
X75794129Y-90272888D01*
X75865416Y-90324681D01*
X75908082Y-90380011D01*
X75914061Y-90449624D01*
X75881455Y-90511419D01*
X75865417Y-90525317D01*
X75794131Y-90577109D01*
X75794129Y-90577111D01*
X75743382Y-90633472D01*
X75683895Y-90670121D01*
X75651232Y-90674500D01*
X62039742Y-90674500D01*
X61972703Y-90654815D01*
X61952061Y-90638181D01*
X59613880Y-88300000D01*
X62294540Y-88300000D01*
X62314326Y-88488256D01*
X62314327Y-88488259D01*
X62372818Y-88668277D01*
X62372821Y-88668284D01*
X62467467Y-88832216D01*
X62579147Y-88956249D01*
X62594129Y-88972888D01*
X62747265Y-89084148D01*
X62747270Y-89084151D01*
X62920192Y-89161142D01*
X62920197Y-89161144D01*
X63105354Y-89200500D01*
X63105355Y-89200500D01*
X63294644Y-89200500D01*
X63294646Y-89200500D01*
X63479803Y-89161144D01*
X63652730Y-89084151D01*
X63805871Y-88972888D01*
X63932533Y-88832216D01*
X64027179Y-88668284D01*
X64085674Y-88488256D01*
X64105460Y-88300000D01*
X64085674Y-88111744D01*
X64027179Y-87931716D01*
X63932533Y-87767784D01*
X63805871Y-87627112D01*
X63805870Y-87627111D01*
X63652734Y-87515851D01*
X63652729Y-87515848D01*
X63479807Y-87438857D01*
X63479802Y-87438855D01*
X63334000Y-87407865D01*
X63294646Y-87399500D01*
X63105354Y-87399500D01*
X63072897Y-87406398D01*
X62920197Y-87438855D01*
X62920192Y-87438857D01*
X62747270Y-87515848D01*
X62747265Y-87515851D01*
X62594129Y-87627111D01*
X62467466Y-87767785D01*
X62372821Y-87931715D01*
X62372818Y-87931722D01*
X62318142Y-88099999D01*
X62314326Y-88111744D01*
X62294540Y-88300000D01*
X59613880Y-88300000D01*
X59538572Y-88224692D01*
X59505087Y-88163369D01*
X59502932Y-88124049D01*
X59502937Y-88124000D01*
X59505460Y-88100000D01*
X59485674Y-87911744D01*
X59427179Y-87731716D01*
X59332533Y-87567784D01*
X59205871Y-87427112D01*
X59205870Y-87427111D01*
X59052734Y-87315851D01*
X59052729Y-87315848D01*
X58879807Y-87238857D01*
X58879802Y-87238855D01*
X58734001Y-87207865D01*
X58694646Y-87199500D01*
X58505354Y-87199500D01*
X58472897Y-87206398D01*
X58320197Y-87238855D01*
X58320192Y-87238857D01*
X58147270Y-87315848D01*
X58147265Y-87315851D01*
X57994129Y-87427111D01*
X57867466Y-87567785D01*
X57772821Y-87731715D01*
X57772818Y-87731722D01*
X57717979Y-87900500D01*
X57714326Y-87911744D01*
X57694540Y-88100000D01*
X55743618Y-88100000D01*
X55686808Y-87995961D01*
X55686807Y-87995960D01*
X55580115Y-87853436D01*
X54684803Y-88748747D01*
X54662660Y-88697413D01*
X54556567Y-88554906D01*
X54420470Y-88440706D01*
X54330782Y-88395663D01*
X55226562Y-87499883D01*
X55226561Y-87499882D01*
X55084046Y-87393196D01*
X55084038Y-87393191D01*
X54832957Y-87256091D01*
X54832958Y-87256091D01*
X54564895Y-87156109D01*
X54285362Y-87095300D01*
X54000001Y-87074891D01*
X53999999Y-87074891D01*
X53714637Y-87095300D01*
X53435104Y-87156109D01*
X53167041Y-87256091D01*
X52915961Y-87393191D01*
X52915953Y-87393196D01*
X52773437Y-87499882D01*
X52773436Y-87499883D01*
X53666252Y-88392699D01*
X53656591Y-88396216D01*
X53508156Y-88493843D01*
X53386236Y-88623070D01*
X53314232Y-88747784D01*
X52419883Y-87853436D01*
X52419882Y-87853436D01*
X52313196Y-87995953D01*
X52313191Y-87995961D01*
X52176091Y-88247041D01*
X52076109Y-88515104D01*
X52015300Y-88794637D01*
X51994891Y-89079998D01*
X51994891Y-89080001D01*
X50000500Y-89080001D01*
X50000500Y-84000001D01*
X51994390Y-84000001D01*
X52014804Y-84285433D01*
X52075628Y-84565037D01*
X52075630Y-84565043D01*
X52075631Y-84565046D01*
X52137789Y-84731697D01*
X52175635Y-84833166D01*
X52312770Y-85084309D01*
X52312774Y-85084315D01*
X52484254Y-85313387D01*
X52484270Y-85313405D01*
X52686594Y-85515729D01*
X52686612Y-85515745D01*
X52915682Y-85687224D01*
X52915690Y-85687229D01*
X53166833Y-85824364D01*
X53166832Y-85824364D01*
X53166836Y-85824365D01*
X53166839Y-85824367D01*
X53434954Y-85924369D01*
X53434960Y-85924370D01*
X53434962Y-85924371D01*
X53714566Y-85985195D01*
X53714568Y-85985195D01*
X53714572Y-85985196D01*
X53968220Y-86003337D01*
X53999999Y-86005610D01*
X54000000Y-86005610D01*
X54000001Y-86005610D01*
X54028595Y-86003564D01*
X54285428Y-85985196D01*
X54449521Y-85949500D01*
X54565037Y-85924371D01*
X54565037Y-85924370D01*
X54565046Y-85924369D01*
X54833161Y-85824367D01*
X55084315Y-85687226D01*
X55313395Y-85515739D01*
X55515739Y-85313395D01*
X55675499Y-85099981D01*
X77794559Y-85099981D01*
X77814345Y-85288237D01*
X77814346Y-85288240D01*
X77872837Y-85468258D01*
X77872840Y-85468265D01*
X77967486Y-85632197D01*
X78048617Y-85722302D01*
X78094148Y-85772869D01*
X78247284Y-85884129D01*
X78247289Y-85884132D01*
X78420211Y-85961123D01*
X78420216Y-85961125D01*
X78605373Y-86000481D01*
X78605374Y-86000481D01*
X78794663Y-86000481D01*
X78794665Y-86000481D01*
X78979822Y-85961125D01*
X79152749Y-85884132D01*
X79305890Y-85772869D01*
X79432552Y-85632197D01*
X79527198Y-85468265D01*
X79585693Y-85288237D01*
X79605479Y-85099981D01*
X79585693Y-84911725D01*
X79527198Y-84731697D01*
X79432552Y-84567765D01*
X79305890Y-84427093D01*
X79305889Y-84427092D01*
X79152753Y-84315832D01*
X79152748Y-84315829D01*
X78979826Y-84238838D01*
X78979821Y-84238836D01*
X78834020Y-84207846D01*
X78794665Y-84199481D01*
X78605373Y-84199481D01*
X78572916Y-84206379D01*
X78420216Y-84238836D01*
X78420211Y-84238838D01*
X78247289Y-84315829D01*
X78247284Y-84315832D01*
X78094148Y-84427092D01*
X77967485Y-84567766D01*
X77872840Y-84731696D01*
X77872837Y-84731703D01*
X77814346Y-84911721D01*
X77814345Y-84911725D01*
X77794559Y-85099981D01*
X55675499Y-85099981D01*
X55687226Y-85084315D01*
X55824367Y-84833161D01*
X55924369Y-84565046D01*
X55978582Y-84315832D01*
X55985195Y-84285433D01*
X55985195Y-84285432D01*
X55985196Y-84285428D01*
X56004476Y-84015851D01*
X56005610Y-84000001D01*
X56005610Y-83999998D01*
X55998422Y-83899500D01*
X55985196Y-83714572D01*
X55957718Y-83588259D01*
X55924371Y-83434962D01*
X55924370Y-83434960D01*
X55924369Y-83434954D01*
X55824367Y-83166839D01*
X55806222Y-83133610D01*
X55791371Y-83065340D01*
X55815788Y-82999875D01*
X55827367Y-82986511D01*
X56413878Y-82400000D01*
X64094540Y-82400000D01*
X64114326Y-82588256D01*
X64114327Y-82588259D01*
X64172818Y-82768277D01*
X64172821Y-82768284D01*
X64267467Y-82932216D01*
X64357063Y-83031722D01*
X64394129Y-83072888D01*
X64547265Y-83184148D01*
X64547270Y-83184151D01*
X64720192Y-83261142D01*
X64720197Y-83261144D01*
X64905354Y-83300500D01*
X64905355Y-83300500D01*
X65094644Y-83300500D01*
X65094646Y-83300500D01*
X65279803Y-83261144D01*
X65452730Y-83184151D01*
X65605871Y-83072888D01*
X65732533Y-82932216D01*
X65827179Y-82768284D01*
X65885674Y-82588256D01*
X65905460Y-82400000D01*
X65885674Y-82211744D01*
X65827179Y-82031716D01*
X65732533Y-81867784D01*
X65605871Y-81727112D01*
X65605870Y-81727111D01*
X65452734Y-81615851D01*
X65452729Y-81615848D01*
X65279807Y-81538857D01*
X65279802Y-81538855D01*
X65134001Y-81507865D01*
X65094646Y-81499500D01*
X64905354Y-81499500D01*
X64872897Y-81506398D01*
X64720197Y-81538855D01*
X64720192Y-81538857D01*
X64547270Y-81615848D01*
X64547265Y-81615851D01*
X64394129Y-81727111D01*
X64267466Y-81867785D01*
X64172821Y-82031715D01*
X64172818Y-82031722D01*
X64117776Y-82201125D01*
X64114326Y-82211744D01*
X64094540Y-82400000D01*
X56413878Y-82400000D01*
X61240466Y-77573413D01*
X61301787Y-77539930D01*
X61371479Y-77544914D01*
X61427412Y-77586786D01*
X61451829Y-77652250D01*
X61436977Y-77720523D01*
X61435533Y-77723095D01*
X61392538Y-77797566D01*
X61372820Y-77831718D01*
X61372818Y-77831722D01*
X61314327Y-78011740D01*
X61314326Y-78011744D01*
X61294540Y-78200000D01*
X61314326Y-78388256D01*
X61314327Y-78388259D01*
X61372818Y-78568277D01*
X61372821Y-78568284D01*
X61467467Y-78732216D01*
X61562990Y-78838305D01*
X61594129Y-78872888D01*
X61747265Y-78984148D01*
X61747270Y-78984151D01*
X61920192Y-79061142D01*
X61920197Y-79061144D01*
X62105354Y-79100500D01*
X62105355Y-79100500D01*
X62294644Y-79100500D01*
X62294646Y-79100500D01*
X62479803Y-79061144D01*
X62652730Y-78984151D01*
X62805871Y-78872888D01*
X62932533Y-78732216D01*
X62979972Y-78650049D01*
X64644507Y-78650049D01*
X64664293Y-78838305D01*
X64664294Y-78838308D01*
X64722785Y-79018326D01*
X64722788Y-79018333D01*
X64817434Y-79182265D01*
X64921487Y-79297827D01*
X64944096Y-79322937D01*
X65097232Y-79434197D01*
X65097237Y-79434200D01*
X65270159Y-79511191D01*
X65270164Y-79511193D01*
X65455321Y-79550549D01*
X65455322Y-79550549D01*
X65644611Y-79550549D01*
X65644613Y-79550549D01*
X65829770Y-79511193D01*
X66002697Y-79434200D01*
X66155838Y-79322937D01*
X66282500Y-79182265D01*
X66353388Y-79059483D01*
X66403952Y-79011270D01*
X66472559Y-78998046D01*
X66537424Y-79024014D01*
X66568154Y-79063474D01*
X66569572Y-79062656D01*
X66572820Y-79068282D01*
X66572821Y-79068284D01*
X66667467Y-79232216D01*
X66749153Y-79322937D01*
X66794129Y-79372888D01*
X66947265Y-79484148D01*
X66947270Y-79484151D01*
X67120192Y-79561142D01*
X67120197Y-79561144D01*
X67305354Y-79600500D01*
X67305355Y-79600500D01*
X67494644Y-79600500D01*
X67494646Y-79600500D01*
X67679803Y-79561144D01*
X67852730Y-79484151D01*
X68005871Y-79372888D01*
X68132533Y-79232216D01*
X68132534Y-79232213D01*
X68132850Y-79231863D01*
X68192336Y-79195214D01*
X68262193Y-79196544D01*
X68317150Y-79231863D01*
X68317465Y-79232213D01*
X68317467Y-79232216D01*
X68399153Y-79322937D01*
X68444129Y-79372888D01*
X68597265Y-79484148D01*
X68597270Y-79484151D01*
X68770192Y-79561142D01*
X68770197Y-79561144D01*
X68955354Y-79600500D01*
X68955355Y-79600500D01*
X69144644Y-79600500D01*
X69144646Y-79600500D01*
X69329803Y-79561144D01*
X69502730Y-79484151D01*
X69655871Y-79372888D01*
X69782533Y-79232216D01*
X69877179Y-79068284D01*
X69935674Y-78888256D01*
X69955460Y-78700000D01*
X69935674Y-78511744D01*
X69931858Y-78500000D01*
X81550000Y-78500000D01*
X82550000Y-78500000D01*
X82550000Y-77750000D01*
X82002155Y-77750000D01*
X81942627Y-77756401D01*
X81942620Y-77756403D01*
X81807913Y-77806645D01*
X81807906Y-77806649D01*
X81692812Y-77892809D01*
X81692809Y-77892812D01*
X81606649Y-78007906D01*
X81606645Y-78007913D01*
X81556403Y-78142620D01*
X81556401Y-78142627D01*
X81550000Y-78202155D01*
X81550000Y-78500000D01*
X69931858Y-78500000D01*
X69877179Y-78331716D01*
X69782533Y-78167784D01*
X69655871Y-78027112D01*
X69655870Y-78027111D01*
X69502734Y-77915851D01*
X69502729Y-77915848D01*
X69329807Y-77838857D01*
X69329802Y-77838855D01*
X69178275Y-77806648D01*
X69144646Y-77799500D01*
X68955354Y-77799500D01*
X68922897Y-77806398D01*
X68770197Y-77838855D01*
X68770192Y-77838857D01*
X68597270Y-77915848D01*
X68597265Y-77915851D01*
X68444129Y-78027111D01*
X68317150Y-78168136D01*
X68257663Y-78204785D01*
X68187806Y-78203454D01*
X68132850Y-78168136D01*
X68005870Y-78027111D01*
X67852734Y-77915851D01*
X67852729Y-77915848D01*
X67679807Y-77838857D01*
X67679802Y-77838855D01*
X67528275Y-77806648D01*
X67494646Y-77799500D01*
X67305354Y-77799500D01*
X67272897Y-77806398D01*
X67120197Y-77838855D01*
X67120192Y-77838857D01*
X66947270Y-77915848D01*
X66947265Y-77915851D01*
X66794129Y-78027111D01*
X66667465Y-78167785D01*
X66596580Y-78290563D01*
X66546013Y-78338779D01*
X66477406Y-78352002D01*
X66412541Y-78326034D01*
X66381814Y-78286573D01*
X66380395Y-78287393D01*
X66377145Y-78281764D01*
X66282500Y-78117833D01*
X66155838Y-77977161D01*
X66155837Y-77977160D01*
X66002701Y-77865900D01*
X66002696Y-77865897D01*
X65829774Y-77788906D01*
X65829769Y-77788904D01*
X65673523Y-77755694D01*
X65644613Y-77749549D01*
X65455321Y-77749549D01*
X65426411Y-77755694D01*
X65270164Y-77788904D01*
X65270159Y-77788906D01*
X65097237Y-77865897D01*
X65097232Y-77865900D01*
X64944096Y-77977160D01*
X64817433Y-78117834D01*
X64722788Y-78281764D01*
X64722785Y-78281771D01*
X64684208Y-78400500D01*
X64664293Y-78461793D01*
X64644507Y-78650049D01*
X62979972Y-78650049D01*
X63027179Y-78568284D01*
X63085674Y-78388256D01*
X63105460Y-78200000D01*
X63085674Y-78011744D01*
X63027179Y-77831716D01*
X62945492Y-77690229D01*
X62932535Y-77667787D01*
X62932534Y-77667786D01*
X62932533Y-77667784D01*
X62855715Y-77582469D01*
X62825487Y-77519481D01*
X62834112Y-77450146D01*
X62878853Y-77396480D01*
X62945506Y-77375522D01*
X62947867Y-77375500D01*
X76851232Y-77375500D01*
X76918271Y-77395185D01*
X76943382Y-77416528D01*
X76994129Y-77472888D01*
X76994135Y-77472893D01*
X77147265Y-77584148D01*
X77147270Y-77584151D01*
X77320192Y-77661142D01*
X77320197Y-77661144D01*
X77505354Y-77700500D01*
X77505355Y-77700500D01*
X77694644Y-77700500D01*
X77694646Y-77700500D01*
X77879803Y-77661144D01*
X78052730Y-77584151D01*
X78205871Y-77472888D01*
X78332533Y-77332216D01*
X78427179Y-77168284D01*
X78485674Y-76988256D01*
X78505460Y-76800000D01*
X78485674Y-76611744D01*
X78427179Y-76431716D01*
X78332533Y-76267784D01*
X78329284Y-76262156D01*
X78331934Y-76260625D01*
X78312779Y-76207456D01*
X78328395Y-76139353D01*
X78329346Y-76137872D01*
X78329284Y-76137836D01*
X78366057Y-76074142D01*
X78427179Y-75968276D01*
X78485674Y-75788248D01*
X78505460Y-75599992D01*
X78485674Y-75411736D01*
X78427179Y-75231708D01*
X78332533Y-75067776D01*
X78205871Y-74927104D01*
X78190380Y-74915849D01*
X78052734Y-74815843D01*
X78052729Y-74815840D01*
X77879807Y-74738849D01*
X77879802Y-74738847D01*
X77734000Y-74707857D01*
X77694646Y-74699492D01*
X77505354Y-74699492D01*
X77472897Y-74706390D01*
X77320197Y-74738847D01*
X77320192Y-74738849D01*
X77147270Y-74815840D01*
X77147265Y-74815843D01*
X76994129Y-74927103D01*
X76867466Y-75067777D01*
X76772821Y-75231707D01*
X76772818Y-75231714D01*
X76740326Y-75331716D01*
X76714326Y-75411736D01*
X76703815Y-75511744D01*
X76694540Y-75599994D01*
X76697067Y-75624044D01*
X76684496Y-75692774D01*
X76661428Y-75724682D01*
X76547932Y-75838180D01*
X76486609Y-75871666D01*
X76460250Y-75874500D01*
X76024835Y-75874500D01*
X75957796Y-75854815D01*
X75912041Y-75802011D01*
X75901514Y-75737540D01*
X75905460Y-75700000D01*
X75885674Y-75511744D01*
X75827179Y-75331716D01*
X75732533Y-75167784D01*
X75605871Y-75027112D01*
X75605870Y-75027111D01*
X75452734Y-74915851D01*
X75452729Y-74915848D01*
X75279807Y-74838857D01*
X75279802Y-74838855D01*
X75134001Y-74807865D01*
X75094646Y-74799500D01*
X74905354Y-74799500D01*
X74872897Y-74806398D01*
X74720197Y-74838855D01*
X74720192Y-74838857D01*
X74547270Y-74915848D01*
X74547265Y-74915851D01*
X74394129Y-75027111D01*
X74267466Y-75167785D01*
X74172821Y-75331715D01*
X74172818Y-75331722D01*
X74114327Y-75511740D01*
X74114326Y-75511744D01*
X74094540Y-75700000D01*
X74098485Y-75737540D01*
X74085917Y-75806268D01*
X74038185Y-75857292D01*
X73975165Y-75874500D01*
X64739742Y-75874500D01*
X64672703Y-75854815D01*
X64652061Y-75838181D01*
X57723885Y-68910005D01*
X63600031Y-68910005D01*
X63619874Y-69149476D01*
X63678865Y-69382428D01*
X63775391Y-69602485D01*
X63867688Y-69743757D01*
X64610549Y-69000895D01*
X64611327Y-69011265D01*
X64660887Y-69137541D01*
X64745465Y-69243599D01*
X64857547Y-69320016D01*
X64965298Y-69353252D01*
X64220572Y-70097978D01*
X64220573Y-70097980D01*
X64259204Y-70128048D01*
X64259205Y-70128049D01*
X64470544Y-70242421D01*
X64470550Y-70242423D01*
X64697823Y-70320446D01*
X64934851Y-70360000D01*
X65175149Y-70360000D01*
X65412176Y-70320446D01*
X65639449Y-70242423D01*
X65639455Y-70242421D01*
X65850795Y-70128049D01*
X65850798Y-70128047D01*
X65889425Y-70097980D01*
X65889425Y-70097979D01*
X65143230Y-69351784D01*
X65189138Y-69344865D01*
X65311357Y-69286007D01*
X65410798Y-69193740D01*
X65478625Y-69076260D01*
X65496499Y-68997945D01*
X66242311Y-69743757D01*
X66261656Y-69741751D01*
X66274037Y-69731185D01*
X66343268Y-69721760D01*
X66406604Y-69751261D01*
X66428504Y-69776533D01*
X66446429Y-69803969D01*
X66609236Y-69980825D01*
X66609239Y-69980827D01*
X66609242Y-69980830D01*
X66798924Y-70128466D01*
X66798930Y-70128470D01*
X66798933Y-70128472D01*
X67010344Y-70242882D01*
X67237703Y-70320934D01*
X67320911Y-70334819D01*
X67383794Y-70365268D01*
X67420234Y-70424882D01*
X67424500Y-70457127D01*
X67424500Y-71375500D01*
X67404815Y-71442539D01*
X67352011Y-71488294D01*
X67300500Y-71499500D01*
X67205398Y-71499500D01*
X67175589Y-71505836D01*
X67020241Y-71538855D01*
X67020236Y-71538857D01*
X66847314Y-71615848D01*
X66847309Y-71615851D01*
X66694173Y-71727111D01*
X66567510Y-71867785D01*
X66472865Y-72031715D01*
X66472862Y-72031722D01*
X66426995Y-72172888D01*
X66414370Y-72211744D01*
X66394584Y-72400000D01*
X66414370Y-72588256D01*
X66414371Y-72588259D01*
X66472862Y-72768277D01*
X66472865Y-72768284D01*
X66567511Y-72932216D01*
X66649971Y-73023797D01*
X66694173Y-73072888D01*
X66847309Y-73184148D01*
X66847314Y-73184151D01*
X67020236Y-73261142D01*
X67020238Y-73261143D01*
X67020239Y-73261143D01*
X67020241Y-73261144D01*
X67024359Y-73262019D01*
X67085842Y-73295209D01*
X67116513Y-73344991D01*
X67172819Y-73518283D01*
X67172821Y-73518287D01*
X67267467Y-73682219D01*
X67394129Y-73822891D01*
X67547265Y-73934151D01*
X67547270Y-73934154D01*
X67720192Y-74011145D01*
X67720197Y-74011147D01*
X67905354Y-74050503D01*
X67905355Y-74050503D01*
X68094644Y-74050503D01*
X68094646Y-74050503D01*
X68279803Y-74011147D01*
X68452730Y-73934154D01*
X68605871Y-73822891D01*
X68732533Y-73682219D01*
X68827179Y-73518287D01*
X68885674Y-73338259D01*
X68905460Y-73150003D01*
X68885674Y-72961747D01*
X68827179Y-72781719D01*
X68732533Y-72617787D01*
X68705943Y-72588256D01*
X68607350Y-72478756D01*
X68577120Y-72415764D01*
X68575500Y-72395784D01*
X68575500Y-70489741D01*
X68595185Y-70422702D01*
X68611815Y-70402064D01*
X69006475Y-70007403D01*
X69067796Y-69973920D01*
X69137487Y-69978904D01*
X69170316Y-69997233D01*
X69338924Y-70128466D01*
X69338930Y-70128470D01*
X69338933Y-70128472D01*
X69550344Y-70242882D01*
X69606080Y-70262016D01*
X69762296Y-70315645D01*
X69819312Y-70356030D01*
X69845443Y-70420830D01*
X69832392Y-70489470D01*
X69814185Y-70515897D01*
X69767466Y-70567785D01*
X69672821Y-70731715D01*
X69672818Y-70731722D01*
X69630961Y-70860546D01*
X69614326Y-70911744D01*
X69594540Y-71100000D01*
X69614326Y-71288256D01*
X69614327Y-71288259D01*
X69672818Y-71468277D01*
X69672821Y-71468284D01*
X69767467Y-71632216D01*
X69845873Y-71719294D01*
X69894129Y-71772888D01*
X70047265Y-71884148D01*
X70047270Y-71884151D01*
X70220192Y-71961142D01*
X70220197Y-71961144D01*
X70405354Y-72000500D01*
X70405355Y-72000500D01*
X70594644Y-72000500D01*
X70594646Y-72000500D01*
X70779803Y-71961144D01*
X70952730Y-71884151D01*
X71105871Y-71772888D01*
X71232533Y-71632216D01*
X71308868Y-71500000D01*
X78094540Y-71500000D01*
X78114326Y-71688256D01*
X78114327Y-71688259D01*
X78172818Y-71868277D01*
X78172821Y-71868284D01*
X78267467Y-72032216D01*
X78386160Y-72164038D01*
X78394129Y-72172888D01*
X78547265Y-72284148D01*
X78547270Y-72284151D01*
X78720192Y-72361142D01*
X78720197Y-72361144D01*
X78905354Y-72400500D01*
X78905355Y-72400500D01*
X79094644Y-72400500D01*
X79094646Y-72400500D01*
X79279803Y-72361144D01*
X79452730Y-72284151D01*
X79605871Y-72172888D01*
X79732533Y-72032216D01*
X79827179Y-71868284D01*
X79885674Y-71688256D01*
X79905460Y-71500000D01*
X79885674Y-71311744D01*
X79827179Y-71131716D01*
X79732533Y-70967784D01*
X79605871Y-70827112D01*
X79561173Y-70794637D01*
X79452734Y-70715851D01*
X79452729Y-70715848D01*
X79279807Y-70638857D01*
X79279802Y-70638855D01*
X79122634Y-70605449D01*
X79094646Y-70599500D01*
X78905354Y-70599500D01*
X78877366Y-70605449D01*
X78720197Y-70638855D01*
X78720192Y-70638857D01*
X78547270Y-70715848D01*
X78547265Y-70715851D01*
X78394129Y-70827111D01*
X78267466Y-70967785D01*
X78172821Y-71131715D01*
X78172818Y-71131722D01*
X78118319Y-71299454D01*
X78114326Y-71311744D01*
X78094540Y-71500000D01*
X71308868Y-71500000D01*
X71327179Y-71468284D01*
X71385674Y-71288256D01*
X71405460Y-71100000D01*
X71402932Y-71075947D01*
X71415502Y-71007218D01*
X71438569Y-70975309D01*
X71782398Y-70631480D01*
X71788489Y-70626138D01*
X71815451Y-70605451D01*
X71820018Y-70599500D01*
X71832394Y-70583370D01*
X71832405Y-70583358D01*
X71907698Y-70485233D01*
X71927105Y-70438380D01*
X71965687Y-70345236D01*
X71965688Y-70345227D01*
X71966917Y-70340642D01*
X72003280Y-70280981D01*
X72066126Y-70250450D01*
X72126956Y-70255451D01*
X72317699Y-70320933D01*
X72317701Y-70320933D01*
X72317703Y-70320934D01*
X72554808Y-70360500D01*
X72554809Y-70360500D01*
X72795191Y-70360500D01*
X72795192Y-70360500D01*
X73032297Y-70320934D01*
X73259656Y-70242882D01*
X73471067Y-70128472D01*
X73471611Y-70128049D01*
X73616843Y-70015010D01*
X73660764Y-69980825D01*
X73730225Y-69905370D01*
X81802500Y-69905370D01*
X81802501Y-69905376D01*
X81808908Y-69964983D01*
X81859202Y-70099828D01*
X81859206Y-70099835D01*
X81945452Y-70215044D01*
X81945455Y-70215047D01*
X82060664Y-70301293D01*
X82060671Y-70301297D01*
X82195517Y-70351591D01*
X82195516Y-70351591D01*
X82202444Y-70352335D01*
X82255127Y-70358000D01*
X83850872Y-70357999D01*
X83910483Y-70351591D01*
X84045331Y-70301296D01*
X84160546Y-70215046D01*
X84246796Y-70099831D01*
X84297091Y-69964983D01*
X84303500Y-69905373D01*
X84303499Y-69840911D01*
X84323183Y-69773875D01*
X84375986Y-69728119D01*
X84445144Y-69718175D01*
X84508700Y-69747199D01*
X84527817Y-69768028D01*
X84647851Y-69933241D01*
X84647857Y-69933249D01*
X84810486Y-70088737D01*
X84998266Y-70212691D01*
X85205169Y-70301124D01*
X85205178Y-70301127D01*
X85342999Y-70332584D01*
X85343000Y-70332584D01*
X85343000Y-69143001D01*
X85450685Y-69192180D01*
X85557237Y-69207500D01*
X85628763Y-69207500D01*
X85735315Y-69192180D01*
X85843000Y-69143001D01*
X85843000Y-70335049D01*
X85872267Y-70331086D01*
X85872273Y-70331085D01*
X86086268Y-70261554D01*
X86284401Y-70154934D01*
X86284404Y-70154932D01*
X86460320Y-70014645D01*
X86608352Y-69845207D01*
X86608359Y-69845199D01*
X86723759Y-69652053D01*
X86723765Y-69652042D01*
X86746007Y-69592777D01*
X86787991Y-69536928D01*
X86853505Y-69512644D01*
X86921748Y-69527635D01*
X86971053Y-69577140D01*
X86973820Y-69582545D01*
X87055167Y-69751466D01*
X87055171Y-69751474D01*
X87187473Y-69933572D01*
X87187474Y-69933574D01*
X87187477Y-69933577D01*
X87187478Y-69933578D01*
X87234885Y-69978904D01*
X87350176Y-70089133D01*
X87538033Y-70213136D01*
X87745004Y-70301600D01*
X87745007Y-70301601D01*
X87745012Y-70301603D01*
X87964463Y-70351691D01*
X88189330Y-70361790D01*
X88412387Y-70331575D01*
X88626464Y-70262017D01*
X88824681Y-70155352D01*
X89000666Y-70015008D01*
X89148765Y-69845496D01*
X89264215Y-69652264D01*
X89343307Y-69441524D01*
X89383063Y-69222455D01*
X89383500Y-69220049D01*
X89383500Y-68251352D01*
X89383500Y-68251345D01*
X89368377Y-68083312D01*
X89366426Y-68076241D01*
X89308496Y-67866339D01*
X89308491Y-67866326D01*
X89210832Y-67663533D01*
X89210828Y-67663525D01*
X89078526Y-67481427D01*
X89078525Y-67481425D01*
X88915823Y-67325866D01*
X88727966Y-67201863D01*
X88520995Y-67113399D01*
X88520982Y-67113395D01*
X88301542Y-67063310D01*
X88301538Y-67063309D01*
X88301537Y-67063309D01*
X88301536Y-67063308D01*
X88301531Y-67063308D01*
X88076674Y-67053210D01*
X88076673Y-67053210D01*
X88076670Y-67053210D01*
X87853613Y-67083425D01*
X87853610Y-67083425D01*
X87853609Y-67083426D01*
X87639534Y-67152983D01*
X87441321Y-67259646D01*
X87441318Y-67259648D01*
X87265336Y-67399989D01*
X87169541Y-67509635D01*
X87117235Y-67569504D01*
X87112411Y-67577578D01*
X87001787Y-67762731D01*
X86979449Y-67822250D01*
X86937463Y-67878097D01*
X86871948Y-67902380D01*
X86803706Y-67887388D01*
X86754402Y-67837881D01*
X86751636Y-67832479D01*
X86670401Y-67663790D01*
X86670397Y-67663783D01*
X86538148Y-67481758D01*
X86538142Y-67481750D01*
X86375513Y-67326262D01*
X86187733Y-67202308D01*
X85980830Y-67113875D01*
X85980823Y-67113873D01*
X85843000Y-67082415D01*
X85843000Y-68271998D01*
X85735315Y-68222820D01*
X85628763Y-68207500D01*
X85557237Y-68207500D01*
X85450685Y-68222820D01*
X85343000Y-68271998D01*
X85343000Y-67079949D01*
X85342999Y-67079949D01*
X85313721Y-67083915D01*
X85099731Y-67153445D01*
X84901598Y-67260065D01*
X84901595Y-67260067D01*
X84725679Y-67400354D01*
X84577647Y-67569792D01*
X84577644Y-67569796D01*
X84533946Y-67642933D01*
X84482663Y-67690386D01*
X84413865Y-67702580D01*
X84349397Y-67675644D01*
X84309725Y-67618130D01*
X84303499Y-67579332D01*
X84303499Y-67509629D01*
X84303498Y-67509623D01*
X84303497Y-67509616D01*
X84297091Y-67450017D01*
X84296489Y-67448404D01*
X84246797Y-67315171D01*
X84246793Y-67315164D01*
X84160547Y-67199955D01*
X84160544Y-67199952D01*
X84045335Y-67113706D01*
X84045328Y-67113702D01*
X83910482Y-67063408D01*
X83910483Y-67063408D01*
X83850883Y-67057001D01*
X83850881Y-67057000D01*
X83850873Y-67057000D01*
X83850864Y-67057000D01*
X82255129Y-67057000D01*
X82255123Y-67057001D01*
X82195516Y-67063408D01*
X82060671Y-67113702D01*
X82060664Y-67113706D01*
X81945455Y-67199952D01*
X81945452Y-67199955D01*
X81859206Y-67315164D01*
X81859202Y-67315171D01*
X81808908Y-67450017D01*
X81805497Y-67481750D01*
X81802501Y-67509623D01*
X81802500Y-67509635D01*
X81802500Y-69905370D01*
X73730225Y-69905370D01*
X73823571Y-69803969D01*
X73955049Y-69602728D01*
X74051610Y-69382591D01*
X74110620Y-69149563D01*
X74127653Y-68944008D01*
X74130471Y-68910005D01*
X74130471Y-68909994D01*
X74110620Y-68670440D01*
X74110620Y-68670437D01*
X74051610Y-68437409D01*
X73955049Y-68217272D01*
X73823571Y-68016031D01*
X73823570Y-68016030D01*
X73821147Y-68012321D01*
X73800959Y-67945432D01*
X73820138Y-67878246D01*
X73872597Y-67832095D01*
X73924955Y-67820499D01*
X74942871Y-67820499D01*
X74942872Y-67820499D01*
X75002483Y-67814091D01*
X75137331Y-67763796D01*
X75252546Y-67677546D01*
X75338796Y-67562331D01*
X75389091Y-67427483D01*
X75395500Y-67367873D01*
X75395499Y-65372128D01*
X75389091Y-65312517D01*
X75371315Y-65264858D01*
X75338797Y-65177671D01*
X75338793Y-65177664D01*
X75252547Y-65062455D01*
X75252544Y-65062452D01*
X75137335Y-64976206D01*
X75137328Y-64976202D01*
X75002482Y-64925908D01*
X75002483Y-64925908D01*
X74942883Y-64919501D01*
X74942881Y-64919500D01*
X74942873Y-64919500D01*
X74942864Y-64919500D01*
X72947129Y-64919500D01*
X72947123Y-64919501D01*
X72887516Y-64925908D01*
X72752671Y-64976202D01*
X72752664Y-64976206D01*
X72637455Y-65062452D01*
X72637452Y-65062455D01*
X72551206Y-65177664D01*
X72551201Y-65177674D01*
X72539017Y-65210340D01*
X72497145Y-65266273D01*
X72431680Y-65290689D01*
X72363408Y-65275836D01*
X72346673Y-65264858D01*
X72201069Y-65151529D01*
X71989657Y-65037118D01*
X71989652Y-65037116D01*
X71762300Y-64959066D01*
X71563593Y-64925908D01*
X71525192Y-64919500D01*
X71284808Y-64919500D01*
X71246407Y-64925908D01*
X71047699Y-64959066D01*
X70820347Y-65037116D01*
X70820342Y-65037118D01*
X70608930Y-65151529D01*
X70608924Y-65151533D01*
X70419242Y-65299169D01*
X70419239Y-65299172D01*
X70256430Y-65476029D01*
X70256429Y-65476031D01*
X70238807Y-65503003D01*
X70185660Y-65548358D01*
X70116429Y-65557780D01*
X70053093Y-65528277D01*
X70031193Y-65503003D01*
X70029154Y-65499883D01*
X70013571Y-65476031D01*
X69850764Y-65299175D01*
X69850759Y-65299171D01*
X69850757Y-65299169D01*
X69661075Y-65151533D01*
X69661069Y-65151529D01*
X69449657Y-65037118D01*
X69449652Y-65037116D01*
X69222300Y-64959066D01*
X69023593Y-64925908D01*
X68985192Y-64919500D01*
X68744808Y-64919500D01*
X68706407Y-64925908D01*
X68507699Y-64959066D01*
X68280347Y-65037116D01*
X68280342Y-65037118D01*
X68068930Y-65151529D01*
X68068924Y-65151533D01*
X67879242Y-65299169D01*
X67879239Y-65299172D01*
X67716430Y-65476029D01*
X67716429Y-65476031D01*
X67698807Y-65503003D01*
X67645660Y-65548358D01*
X67576429Y-65557780D01*
X67513093Y-65528277D01*
X67491193Y-65503003D01*
X67489154Y-65499883D01*
X67473571Y-65476031D01*
X67310764Y-65299175D01*
X67310759Y-65299171D01*
X67310757Y-65299169D01*
X67121075Y-65151533D01*
X67121069Y-65151529D01*
X66909657Y-65037118D01*
X66909652Y-65037116D01*
X66682300Y-64959066D01*
X66483593Y-64925908D01*
X66445192Y-64919500D01*
X66204808Y-64919500D01*
X66166407Y-64925908D01*
X65967699Y-64959066D01*
X65740347Y-65037116D01*
X65740342Y-65037118D01*
X65528930Y-65151529D01*
X65528924Y-65151533D01*
X65339242Y-65299169D01*
X65339239Y-65299172D01*
X65176430Y-65476029D01*
X65176427Y-65476033D01*
X65044951Y-65677270D01*
X64948389Y-65897410D01*
X64889379Y-66130440D01*
X64869529Y-66369994D01*
X64869529Y-66370005D01*
X64889379Y-66609559D01*
X64948389Y-66842589D01*
X65044951Y-67062729D01*
X65179179Y-67268178D01*
X65199367Y-67335067D01*
X65180188Y-67402253D01*
X65127729Y-67448404D01*
X65075371Y-67460000D01*
X64934851Y-67460000D01*
X64697823Y-67499553D01*
X64470550Y-67577576D01*
X64470544Y-67577578D01*
X64259204Y-67691950D01*
X64259198Y-67691954D01*
X64220573Y-67722017D01*
X64220573Y-67722019D01*
X64966768Y-68468215D01*
X64920862Y-68475135D01*
X64798643Y-68533993D01*
X64699202Y-68626260D01*
X64631375Y-68743740D01*
X64613500Y-68822054D01*
X63867687Y-68076241D01*
X63775392Y-68217511D01*
X63678865Y-68437571D01*
X63619874Y-68670523D01*
X63600031Y-68909994D01*
X63600031Y-68910005D01*
X57723885Y-68910005D01*
X55827375Y-67013495D01*
X55793890Y-66952172D01*
X55798874Y-66882480D01*
X55806224Y-66866386D01*
X55806225Y-66866385D01*
X55824367Y-66833161D01*
X55924369Y-66565046D01*
X55924371Y-66565037D01*
X55985195Y-66285433D01*
X55985195Y-66285432D01*
X55985196Y-66285428D01*
X56005610Y-66000000D01*
X55985196Y-65714572D01*
X55977081Y-65677270D01*
X55924371Y-65434962D01*
X55924370Y-65434960D01*
X55924369Y-65434954D01*
X55824367Y-65166839D01*
X55816009Y-65151533D01*
X55687229Y-64915690D01*
X55687224Y-64915682D01*
X55515745Y-64686612D01*
X55515729Y-64686594D01*
X55313405Y-64484270D01*
X55313387Y-64484254D01*
X55084317Y-64312775D01*
X55084309Y-64312770D01*
X54833166Y-64175635D01*
X54833167Y-64175635D01*
X54725914Y-64135632D01*
X54565046Y-64075631D01*
X54565043Y-64075630D01*
X54565037Y-64075628D01*
X54285433Y-64014804D01*
X54000001Y-63994390D01*
X53999999Y-63994390D01*
X53714566Y-64014804D01*
X53434962Y-64075628D01*
X53166833Y-64175635D01*
X52915690Y-64312770D01*
X52915682Y-64312775D01*
X52686612Y-64484254D01*
X52686594Y-64484270D01*
X52484270Y-64686594D01*
X52484254Y-64686612D01*
X52312775Y-64915682D01*
X52312770Y-64915690D01*
X52175635Y-65166833D01*
X52075628Y-65434962D01*
X52014804Y-65714566D01*
X51994390Y-65999998D01*
X51994390Y-66000001D01*
X52014804Y-66285433D01*
X52075628Y-66565037D01*
X52175635Y-66833166D01*
X52312770Y-67084309D01*
X52312775Y-67084317D01*
X52484254Y-67313387D01*
X52484270Y-67313405D01*
X52686594Y-67515729D01*
X52686612Y-67515745D01*
X52915682Y-67687224D01*
X52915690Y-67687229D01*
X53166833Y-67824364D01*
X53166832Y-67824364D01*
X53166836Y-67824365D01*
X53166839Y-67824367D01*
X53434954Y-67924369D01*
X53434960Y-67924370D01*
X53434962Y-67924371D01*
X53714566Y-67985195D01*
X53714568Y-67985195D01*
X53714572Y-67985196D01*
X53968220Y-68003337D01*
X53999999Y-68005610D01*
X54000000Y-68005610D01*
X54000001Y-68005610D01*
X54028595Y-68003564D01*
X54285428Y-67985196D01*
X54565046Y-67924369D01*
X54833161Y-67824367D01*
X54866387Y-67806223D01*
X54934659Y-67791372D01*
X55000124Y-67815788D01*
X55013495Y-67827375D01*
X63198939Y-76012819D01*
X63232424Y-76074142D01*
X63227440Y-76143834D01*
X63185568Y-76199767D01*
X63120104Y-76224184D01*
X63111258Y-76224500D01*
X61241786Y-76224500D01*
X61233688Y-76223969D01*
X61200000Y-76219534D01*
X61162280Y-76224500D01*
X61142173Y-76227147D01*
X61049767Y-76239312D01*
X61049764Y-76239312D01*
X61049764Y-76239313D01*
X61049762Y-76239314D01*
X60991776Y-76263332D01*
X60909772Y-76297298D01*
X60909767Y-76297301D01*
X60820845Y-76365533D01*
X60820824Y-76365549D01*
X60789548Y-76389550D01*
X60768861Y-76416507D01*
X60763510Y-76422608D01*
X55013494Y-82172624D01*
X54952171Y-82206109D01*
X54882479Y-82201125D01*
X54866385Y-82193775D01*
X54833163Y-82175634D01*
X54833162Y-82175633D01*
X54833161Y-82175633D01*
X54565046Y-82075631D01*
X54565043Y-82075630D01*
X54565037Y-82075628D01*
X54285433Y-82014804D01*
X54000001Y-81994390D01*
X53999999Y-81994390D01*
X53714566Y-82014804D01*
X53434962Y-82075628D01*
X53166833Y-82175635D01*
X52915690Y-82312770D01*
X52915682Y-82312775D01*
X52686612Y-82484254D01*
X52686594Y-82484270D01*
X52484270Y-82686594D01*
X52484254Y-82686612D01*
X52312775Y-82915682D01*
X52312770Y-82915690D01*
X52175635Y-83166833D01*
X52075628Y-83434962D01*
X52014804Y-83714566D01*
X51994390Y-83999998D01*
X51994390Y-84000001D01*
X50000500Y-84000001D01*
X50000500Y-80467870D01*
X51999500Y-80467870D01*
X51999501Y-80467876D01*
X52005908Y-80527483D01*
X52056202Y-80662328D01*
X52056206Y-80662335D01*
X52142452Y-80777544D01*
X52142455Y-80777547D01*
X52257664Y-80863793D01*
X52257671Y-80863797D01*
X52392517Y-80914091D01*
X52392516Y-80914091D01*
X52399444Y-80914835D01*
X52452127Y-80920500D01*
X55547872Y-80920499D01*
X55607483Y-80914091D01*
X55742331Y-80863796D01*
X55857546Y-80777546D01*
X55943796Y-80662331D01*
X55994091Y-80527483D01*
X56000500Y-80467873D01*
X56000499Y-77372128D01*
X55994091Y-77312517D01*
X55964506Y-77233196D01*
X55943797Y-77177671D01*
X55943793Y-77177664D01*
X55857547Y-77062455D01*
X55857544Y-77062452D01*
X55742335Y-76976206D01*
X55742328Y-76976202D01*
X55607482Y-76925908D01*
X55607483Y-76925908D01*
X55547883Y-76919501D01*
X55547881Y-76919500D01*
X55547873Y-76919500D01*
X55547864Y-76919500D01*
X52452129Y-76919500D01*
X52452123Y-76919501D01*
X52392516Y-76925908D01*
X52257671Y-76976202D01*
X52257664Y-76976206D01*
X52142455Y-77062452D01*
X52142452Y-77062455D01*
X52056206Y-77177664D01*
X52056202Y-77177671D01*
X52005908Y-77312517D01*
X51999501Y-77372116D01*
X51999501Y-77372123D01*
X51999500Y-77372135D01*
X51999500Y-80467870D01*
X50000500Y-80467870D01*
X50000500Y-71080001D01*
X51994891Y-71080001D01*
X52015300Y-71365362D01*
X52076109Y-71644895D01*
X52176091Y-71912958D01*
X52313191Y-72164038D01*
X52313196Y-72164046D01*
X52419882Y-72306561D01*
X52419883Y-72306562D01*
X53315195Y-71411250D01*
X53337340Y-71462587D01*
X53443433Y-71605094D01*
X53579530Y-71719294D01*
X53669216Y-71764335D01*
X52773436Y-72660115D01*
X52915960Y-72766807D01*
X52915961Y-72766808D01*
X53167042Y-72903908D01*
X53167041Y-72903908D01*
X53435104Y-73003890D01*
X53714637Y-73064699D01*
X53999999Y-73085109D01*
X54000001Y-73085109D01*
X54285362Y-73064699D01*
X54564895Y-73003890D01*
X54832958Y-72903908D01*
X55084047Y-72766803D01*
X55226561Y-72660116D01*
X55226562Y-72660115D01*
X54333748Y-71767300D01*
X54343409Y-71763784D01*
X54491844Y-71666157D01*
X54613764Y-71536930D01*
X54685768Y-71412215D01*
X55580115Y-72306562D01*
X55580116Y-72306561D01*
X55686803Y-72164047D01*
X55823908Y-71912958D01*
X55923890Y-71644895D01*
X55984699Y-71365362D01*
X56005109Y-71080001D01*
X56005109Y-71079998D01*
X55984699Y-70794637D01*
X55923890Y-70515104D01*
X55823908Y-70247041D01*
X55686808Y-69995961D01*
X55686807Y-69995960D01*
X55580115Y-69853436D01*
X54684803Y-70748747D01*
X54662660Y-70697413D01*
X54556567Y-70554906D01*
X54420470Y-70440706D01*
X54330782Y-70395663D01*
X55226562Y-69499883D01*
X55226561Y-69499882D01*
X55084046Y-69393196D01*
X55084038Y-69393191D01*
X54832957Y-69256091D01*
X54832958Y-69256091D01*
X54564895Y-69156109D01*
X54285362Y-69095300D01*
X54000001Y-69074891D01*
X53999999Y-69074891D01*
X53714637Y-69095300D01*
X53435104Y-69156109D01*
X53167041Y-69256091D01*
X52915961Y-69393191D01*
X52915953Y-69393196D01*
X52773437Y-69499882D01*
X52773436Y-69499883D01*
X53666252Y-70392699D01*
X53656591Y-70396216D01*
X53508156Y-70493843D01*
X53386236Y-70623070D01*
X53314231Y-70747784D01*
X52419883Y-69853436D01*
X52419882Y-69853437D01*
X52313196Y-69995953D01*
X52313191Y-69995961D01*
X52176091Y-70247041D01*
X52076109Y-70515104D01*
X52015300Y-70794637D01*
X51994891Y-71079998D01*
X51994891Y-71080001D01*
X50000500Y-71080001D01*
X50000500Y-63080004D01*
X59919451Y-63080004D01*
X59939616Y-63349101D01*
X59999664Y-63612188D01*
X59999666Y-63612195D01*
X60098254Y-63863392D01*
X60098257Y-63863398D01*
X60233185Y-64097102D01*
X60369080Y-64267509D01*
X60401442Y-64308089D01*
X60588183Y-64481358D01*
X60599259Y-64491635D01*
X60822226Y-64643651D01*
X61065359Y-64760738D01*
X61323228Y-64840280D01*
X61323229Y-64840280D01*
X61323232Y-64840281D01*
X61590063Y-64880499D01*
X61590068Y-64880499D01*
X61590071Y-64880500D01*
X61590072Y-64880500D01*
X61859928Y-64880500D01*
X61859929Y-64880500D01*
X61859936Y-64880499D01*
X62126767Y-64840281D01*
X62126768Y-64840280D01*
X62126772Y-64840280D01*
X62384641Y-64760738D01*
X62627775Y-64643651D01*
X62850741Y-64491635D01*
X63004259Y-64349190D01*
X63048557Y-64308089D01*
X63048557Y-64308087D01*
X63048561Y-64308085D01*
X63216815Y-64097102D01*
X63351743Y-63863398D01*
X63402450Y-63734198D01*
X63445267Y-63678984D01*
X63511137Y-63655683D01*
X63517879Y-63655500D01*
X75482121Y-63655500D01*
X75549160Y-63675185D01*
X75594915Y-63727989D01*
X75597549Y-63734198D01*
X75648254Y-63863392D01*
X75648256Y-63863396D01*
X75648257Y-63863398D01*
X75783185Y-64097102D01*
X75919080Y-64267509D01*
X75951442Y-64308089D01*
X76138183Y-64481358D01*
X76149259Y-64491635D01*
X76372226Y-64643651D01*
X76615359Y-64760738D01*
X76873228Y-64840280D01*
X76873229Y-64840280D01*
X76873232Y-64840281D01*
X77140063Y-64880499D01*
X77140068Y-64880499D01*
X77140071Y-64880500D01*
X77140072Y-64880500D01*
X77409928Y-64880500D01*
X77409929Y-64880500D01*
X77409936Y-64880499D01*
X77676767Y-64840281D01*
X77676768Y-64840280D01*
X77676772Y-64840280D01*
X77934641Y-64760738D01*
X78177775Y-64643651D01*
X78400741Y-64491635D01*
X78554259Y-64349190D01*
X78598557Y-64308089D01*
X78598557Y-64308087D01*
X78598561Y-64308085D01*
X78766815Y-64097102D01*
X78901743Y-63863398D01*
X79000334Y-63612195D01*
X79060383Y-63349103D01*
X79080549Y-63080000D01*
X79068596Y-62920500D01*
X79060383Y-62810898D01*
X79045093Y-62743908D01*
X79000334Y-62547805D01*
X78901743Y-62296602D01*
X78766815Y-62062898D01*
X78598561Y-61851915D01*
X78598560Y-61851914D01*
X78598557Y-61851910D01*
X78400741Y-61668365D01*
X78395144Y-61664549D01*
X78177775Y-61516349D01*
X78177769Y-61516346D01*
X78177768Y-61516345D01*
X78177767Y-61516344D01*
X77934643Y-61399263D01*
X77934645Y-61399263D01*
X77676773Y-61319720D01*
X77676767Y-61319718D01*
X77409936Y-61279500D01*
X77409929Y-61279500D01*
X77140071Y-61279500D01*
X77140063Y-61279500D01*
X76873232Y-61319718D01*
X76873218Y-61319722D01*
X76871814Y-61320155D01*
X76871290Y-61320162D01*
X76868706Y-61320752D01*
X76868579Y-61320198D01*
X76801951Y-61321094D01*
X76742670Y-61284113D01*
X76712793Y-61220953D01*
X76721806Y-61151667D01*
X76734433Y-61129511D01*
X76820196Y-61009637D01*
X76866281Y-60920001D01*
X93994891Y-60920001D01*
X94015300Y-61205362D01*
X94076109Y-61484895D01*
X94176091Y-61752958D01*
X94313191Y-62004038D01*
X94313196Y-62004046D01*
X94419882Y-62146561D01*
X94419883Y-62146562D01*
X95315195Y-61251250D01*
X95337340Y-61302587D01*
X95443433Y-61445094D01*
X95579530Y-61559294D01*
X95669216Y-61604335D01*
X94773436Y-62500115D01*
X94915960Y-62606807D01*
X94915961Y-62606808D01*
X95167042Y-62743908D01*
X95167041Y-62743908D01*
X95435104Y-62843890D01*
X95714637Y-62904699D01*
X95999999Y-62925109D01*
X96000001Y-62925109D01*
X96285362Y-62904699D01*
X96564895Y-62843890D01*
X96832958Y-62743908D01*
X97084047Y-62606803D01*
X97226561Y-62500116D01*
X97226562Y-62500115D01*
X96333748Y-61607300D01*
X96343409Y-61603784D01*
X96491844Y-61506157D01*
X96613764Y-61376930D01*
X96685768Y-61252215D01*
X97580115Y-62146562D01*
X97580116Y-62146561D01*
X97686803Y-62004047D01*
X97823908Y-61752958D01*
X97923890Y-61484895D01*
X97984699Y-61205362D01*
X98005108Y-60920001D01*
X98005108Y-60919998D01*
X97984699Y-60634637D01*
X97923890Y-60355104D01*
X97823908Y-60087041D01*
X97686808Y-59835961D01*
X97686807Y-59835960D01*
X97580115Y-59693436D01*
X96684803Y-60588747D01*
X96662660Y-60537413D01*
X96556567Y-60394906D01*
X96420470Y-60280706D01*
X96330782Y-60235663D01*
X97226562Y-59339883D01*
X97226561Y-59339882D01*
X97084046Y-59233196D01*
X97084038Y-59233191D01*
X96832957Y-59096091D01*
X96832958Y-59096091D01*
X96564895Y-58996109D01*
X96285362Y-58935300D01*
X96000001Y-58914891D01*
X95999999Y-58914891D01*
X95714637Y-58935300D01*
X95435104Y-58996109D01*
X95167041Y-59096091D01*
X94915961Y-59233191D01*
X94915953Y-59233196D01*
X94773437Y-59339882D01*
X94773436Y-59339883D01*
X95666252Y-60232699D01*
X95656591Y-60236216D01*
X95508156Y-60333843D01*
X95386236Y-60463070D01*
X95314231Y-60587784D01*
X94419883Y-59693436D01*
X94419882Y-59693437D01*
X94313196Y-59835953D01*
X94313191Y-59835961D01*
X94176091Y-60087041D01*
X94076109Y-60355104D01*
X94015300Y-60634637D01*
X93994891Y-60919998D01*
X93994891Y-60920001D01*
X76866281Y-60920001D01*
X76945727Y-60765479D01*
X77034370Y-60505646D01*
X77084236Y-60235674D01*
X77094262Y-59961320D01*
X77064236Y-59688429D01*
X76994796Y-59422818D01*
X76887423Y-59170148D01*
X76744405Y-58935804D01*
X76736170Y-58925909D01*
X76568800Y-58724792D01*
X76568795Y-58724787D01*
X76568791Y-58724782D01*
X76462385Y-58629441D01*
X76364327Y-58541580D01*
X76364324Y-58541578D01*
X76364323Y-58541577D01*
X76135359Y-58390096D01*
X75886779Y-58273567D01*
X75739362Y-58229216D01*
X75623879Y-58194472D01*
X75490915Y-58174904D01*
X75352269Y-58154500D01*
X75146453Y-58154500D01*
X75146448Y-58154500D01*
X74941195Y-58169523D01*
X74941185Y-58169524D01*
X74673229Y-58229214D01*
X74673224Y-58229216D01*
X74416799Y-58327290D01*
X74177392Y-58461652D01*
X74177387Y-58461655D01*
X73960097Y-58629441D01*
X73960088Y-58629450D01*
X73769549Y-58827080D01*
X73769547Y-58827082D01*
X73609805Y-59050361D01*
X73609802Y-59050366D01*
X73484275Y-59294515D01*
X73484271Y-59294525D01*
X73395632Y-59554344D01*
X73395629Y-59554358D01*
X73345765Y-59824314D01*
X73345763Y-59824334D01*
X73335737Y-60098678D01*
X73365762Y-60371559D01*
X73365763Y-60371569D01*
X73435202Y-60637178D01*
X73536481Y-60875509D01*
X73542577Y-60889852D01*
X73642066Y-61052871D01*
X73685592Y-61124191D01*
X73685599Y-61124201D01*
X73861199Y-61335207D01*
X73861204Y-61335212D01*
X73861209Y-61335218D01*
X73861216Y-61335224D01*
X74065672Y-61518419D01*
X74065674Y-61518420D01*
X74065677Y-61518423D01*
X74294641Y-61669904D01*
X74543221Y-61786433D01*
X74806119Y-61865527D01*
X75077731Y-61905500D01*
X75077736Y-61905500D01*
X75283552Y-61905500D01*
X75335744Y-61901679D01*
X75488805Y-61890477D01*
X75670960Y-61849900D01*
X75740676Y-61854537D01*
X75796817Y-61896129D01*
X75821560Y-61961470D01*
X75807049Y-62029817D01*
X75794871Y-62048243D01*
X75783186Y-62062895D01*
X75648258Y-62296599D01*
X75648254Y-62296607D01*
X75597549Y-62425802D01*
X75554733Y-62481016D01*
X75488863Y-62504317D01*
X75482121Y-62504500D01*
X63517879Y-62504500D01*
X63450840Y-62484815D01*
X63405085Y-62432011D01*
X63402451Y-62425802D01*
X63351745Y-62296607D01*
X63351741Y-62296599D01*
X63216814Y-62062897D01*
X63207027Y-62050625D01*
X63180619Y-61985940D01*
X63193374Y-61917244D01*
X63241244Y-61866350D01*
X63309030Y-61849415D01*
X63339699Y-61854570D01*
X63376111Y-61865525D01*
X63376115Y-61865525D01*
X63376119Y-61865527D01*
X63647731Y-61905500D01*
X63647736Y-61905500D01*
X63853552Y-61905500D01*
X63905744Y-61901679D01*
X64058805Y-61890477D01*
X64326775Y-61830784D01*
X64583198Y-61732711D01*
X64822609Y-61598347D01*
X65039904Y-61430557D01*
X65230454Y-61232916D01*
X65390196Y-61009637D01*
X65515727Y-60765479D01*
X65604370Y-60505646D01*
X65654236Y-60235674D01*
X65664262Y-59961320D01*
X65634236Y-59688429D01*
X65564796Y-59422818D01*
X65457423Y-59170148D01*
X65314405Y-58935804D01*
X65306170Y-58925909D01*
X65138800Y-58724792D01*
X65138795Y-58724787D01*
X65138791Y-58724782D01*
X65032385Y-58629441D01*
X64934327Y-58541580D01*
X64934324Y-58541578D01*
X64934323Y-58541577D01*
X64705359Y-58390096D01*
X64456779Y-58273567D01*
X64309362Y-58229216D01*
X64193879Y-58194472D01*
X64060915Y-58174904D01*
X63922269Y-58154500D01*
X63921693Y-58154500D01*
X63921503Y-58154444D01*
X63917744Y-58154169D01*
X63917803Y-58153357D01*
X63854654Y-58134815D01*
X63808899Y-58082011D01*
X63798955Y-58012853D01*
X63827980Y-57949297D01*
X63862675Y-57921445D01*
X63968323Y-57864271D01*
X64157366Y-57717134D01*
X64319612Y-57540887D01*
X64450636Y-57340340D01*
X64546864Y-57120962D01*
X64605672Y-56888737D01*
X64623127Y-56678084D01*
X64625454Y-56650006D01*
X71834546Y-56650006D01*
X71854326Y-56888729D01*
X71854328Y-56888737D01*
X71913136Y-57120963D01*
X71971397Y-57253784D01*
X72009364Y-57340340D01*
X72140388Y-57540887D01*
X72302634Y-57717134D01*
X72360951Y-57762523D01*
X72491668Y-57864265D01*
X72491674Y-57864269D01*
X72491677Y-57864271D01*
X72702359Y-57978287D01*
X72928935Y-58056070D01*
X73165222Y-58095500D01*
X73165223Y-58095500D01*
X73404777Y-58095500D01*
X73404778Y-58095500D01*
X73641065Y-58056070D01*
X73867641Y-57978287D01*
X74078323Y-57864271D01*
X74267366Y-57717134D01*
X74429612Y-57540887D01*
X74560636Y-57340340D01*
X74656864Y-57120962D01*
X74715672Y-56888737D01*
X74733127Y-56678084D01*
X74735454Y-56650006D01*
X74735454Y-56649993D01*
X74715673Y-56411270D01*
X74715671Y-56411262D01*
X74715669Y-56411251D01*
X74705638Y-56371638D01*
X74708262Y-56301818D01*
X74748217Y-56244500D01*
X74812818Y-56217883D01*
X74881555Y-56230417D01*
X74902000Y-56243340D01*
X75031677Y-56344271D01*
X75242359Y-56458287D01*
X75468935Y-56536070D01*
X75705222Y-56575500D01*
X75705223Y-56575500D01*
X75944777Y-56575500D01*
X75944778Y-56575500D01*
X76181065Y-56536070D01*
X76407641Y-56458287D01*
X76618323Y-56344271D01*
X76807366Y-56197134D01*
X76969612Y-56020887D01*
X77100636Y-55820340D01*
X77196864Y-55600962D01*
X77255672Y-55368737D01*
X77255673Y-55368729D01*
X77275454Y-55130006D01*
X77275454Y-55129993D01*
X77255673Y-54891270D01*
X77255672Y-54891267D01*
X77255672Y-54891263D01*
X77196864Y-54659038D01*
X77100636Y-54439660D01*
X76969612Y-54239113D01*
X76807366Y-54062866D01*
X76777882Y-54039918D01*
X76726597Y-54000001D01*
X81454891Y-54000001D01*
X81475300Y-54285362D01*
X81536109Y-54564895D01*
X81636091Y-54832958D01*
X81773191Y-55084038D01*
X81773196Y-55084046D01*
X81879882Y-55226561D01*
X81879883Y-55226562D01*
X82775195Y-54331250D01*
X82797340Y-54382587D01*
X82903433Y-54525094D01*
X83039530Y-54639294D01*
X83129216Y-54684335D01*
X82233436Y-55580115D01*
X82375960Y-55686807D01*
X82375961Y-55686808D01*
X82627042Y-55823908D01*
X82627041Y-55823908D01*
X82895104Y-55923890D01*
X83174637Y-55984699D01*
X83459999Y-56005109D01*
X83460001Y-56005109D01*
X83745362Y-55984699D01*
X84024895Y-55923890D01*
X84292958Y-55823908D01*
X84544047Y-55686803D01*
X84686561Y-55580116D01*
X84686562Y-55580115D01*
X84654317Y-55547870D01*
X86539500Y-55547870D01*
X86539501Y-55547876D01*
X86545908Y-55607483D01*
X86596202Y-55742328D01*
X86596206Y-55742335D01*
X86682452Y-55857544D01*
X86682455Y-55857547D01*
X86797664Y-55943793D01*
X86797671Y-55943797D01*
X86932517Y-55994091D01*
X86932516Y-55994091D01*
X86939444Y-55994835D01*
X86992127Y-56000500D01*
X90087872Y-56000499D01*
X90147483Y-55994091D01*
X90282331Y-55943796D01*
X90397546Y-55857546D01*
X90483796Y-55742331D01*
X90534091Y-55607483D01*
X90540500Y-55547873D01*
X90540500Y-54500000D01*
X91794422Y-54500000D01*
X91814722Y-54887339D01*
X91871200Y-55243930D01*
X91875398Y-55270433D01*
X91949738Y-55547876D01*
X91975788Y-55645094D01*
X92114787Y-56007197D01*
X92290877Y-56352793D01*
X92502122Y-56678082D01*
X92718401Y-56945164D01*
X92746219Y-56979516D01*
X93020484Y-57253781D01*
X93127375Y-57340340D01*
X93321917Y-57497877D01*
X93388147Y-57540887D01*
X93647211Y-57709125D01*
X93992806Y-57885214D01*
X94354913Y-58024214D01*
X94729567Y-58124602D01*
X95112662Y-58185278D01*
X95478576Y-58204455D01*
X95499999Y-58205578D01*
X95500000Y-58205578D01*
X95500001Y-58205578D01*
X95520301Y-58204514D01*
X95887338Y-58185278D01*
X96270433Y-58124602D01*
X96645087Y-58024214D01*
X97007194Y-57885214D01*
X97352789Y-57709125D01*
X97678084Y-57497876D01*
X97979516Y-57253781D01*
X98253781Y-56979516D01*
X98497876Y-56678084D01*
X98709125Y-56352789D01*
X98885214Y-56007194D01*
X99024214Y-55645087D01*
X99124602Y-55270433D01*
X99185278Y-54887338D01*
X99205578Y-54500000D01*
X99185278Y-54112662D01*
X99124602Y-53729567D01*
X99024214Y-53354913D01*
X98885214Y-52992806D01*
X98709125Y-52647211D01*
X98709122Y-52647206D01*
X98497877Y-52321917D01*
X98282708Y-52056206D01*
X98253781Y-52020484D01*
X97979516Y-51746219D01*
X97945164Y-51718401D01*
X97678082Y-51502122D01*
X97352793Y-51290877D01*
X97007197Y-51114787D01*
X96645094Y-50975788D01*
X96645087Y-50975786D01*
X96270433Y-50875398D01*
X96270429Y-50875397D01*
X96270428Y-50875397D01*
X95887339Y-50814722D01*
X95500001Y-50794422D01*
X95499999Y-50794422D01*
X95112660Y-50814722D01*
X94729572Y-50875397D01*
X94729570Y-50875397D01*
X94354905Y-50975788D01*
X93992802Y-51114787D01*
X93647206Y-51290877D01*
X93321917Y-51502122D01*
X93020488Y-51746215D01*
X93020480Y-51746222D01*
X92746222Y-52020480D01*
X92746215Y-52020488D01*
X92502122Y-52321917D01*
X92290877Y-52647206D01*
X92114787Y-52992802D01*
X91975788Y-53354905D01*
X91875397Y-53729570D01*
X91875397Y-53729572D01*
X91814722Y-54112660D01*
X91794422Y-54499999D01*
X91794422Y-54500000D01*
X90540500Y-54500000D01*
X90540499Y-52452128D01*
X90534091Y-52392517D01*
X90514707Y-52340547D01*
X90483797Y-52257671D01*
X90483793Y-52257664D01*
X90397547Y-52142455D01*
X90397544Y-52142452D01*
X90282335Y-52056206D01*
X90282328Y-52056202D01*
X90147482Y-52005908D01*
X90147483Y-52005908D01*
X90087883Y-51999501D01*
X90087881Y-51999500D01*
X90087873Y-51999500D01*
X90087864Y-51999500D01*
X86992129Y-51999500D01*
X86992123Y-51999501D01*
X86932516Y-52005908D01*
X86797671Y-52056202D01*
X86797664Y-52056206D01*
X86682455Y-52142452D01*
X86682452Y-52142455D01*
X86596206Y-52257664D01*
X86596202Y-52257671D01*
X86545908Y-52392517D01*
X86539501Y-52452116D01*
X86539501Y-52452123D01*
X86539500Y-52452135D01*
X86539500Y-55547870D01*
X84654317Y-55547870D01*
X83793748Y-54687300D01*
X83803409Y-54683784D01*
X83951844Y-54586157D01*
X84073764Y-54456930D01*
X84145768Y-54332215D01*
X85040115Y-55226562D01*
X85040116Y-55226561D01*
X85146803Y-55084047D01*
X85283908Y-54832958D01*
X85383890Y-54564895D01*
X85444699Y-54285362D01*
X85465109Y-54000001D01*
X85465109Y-53999998D01*
X85444699Y-53714637D01*
X85383890Y-53435104D01*
X85283908Y-53167041D01*
X85146808Y-52915961D01*
X85146807Y-52915960D01*
X85040115Y-52773436D01*
X84144803Y-53668747D01*
X84122660Y-53617413D01*
X84016567Y-53474906D01*
X83880470Y-53360706D01*
X83790781Y-53315663D01*
X84686562Y-52419883D01*
X84686561Y-52419882D01*
X84544046Y-52313196D01*
X84544038Y-52313191D01*
X84292957Y-52176091D01*
X84292958Y-52176091D01*
X84024895Y-52076109D01*
X83745362Y-52015300D01*
X83460001Y-51994891D01*
X83459999Y-51994891D01*
X83174637Y-52015300D01*
X82895104Y-52076109D01*
X82627041Y-52176091D01*
X82375961Y-52313191D01*
X82375953Y-52313196D01*
X82233436Y-52419882D01*
X82233436Y-52419883D01*
X83126251Y-53312699D01*
X83116591Y-53316216D01*
X82968156Y-53413843D01*
X82846236Y-53543070D01*
X82774231Y-53667784D01*
X81879883Y-52773436D01*
X81879882Y-52773437D01*
X81773196Y-52915953D01*
X81773191Y-52915961D01*
X81636091Y-53167041D01*
X81536109Y-53435104D01*
X81475300Y-53714637D01*
X81454891Y-53999998D01*
X81454891Y-54000001D01*
X76726597Y-54000001D01*
X76618331Y-53915734D01*
X76618325Y-53915730D01*
X76407642Y-53801713D01*
X76407637Y-53801711D01*
X76181067Y-53723930D01*
X76019266Y-53696930D01*
X75944778Y-53684500D01*
X75705222Y-53684500D01*
X75646150Y-53694357D01*
X75468932Y-53723930D01*
X75242362Y-53801711D01*
X75242357Y-53801713D01*
X75031674Y-53915730D01*
X75031668Y-53915734D01*
X74842641Y-54062860D01*
X74842631Y-54062869D01*
X74680385Y-54239116D01*
X74549362Y-54439663D01*
X74453136Y-54659036D01*
X74394328Y-54891262D01*
X74394326Y-54891270D01*
X74374546Y-55129993D01*
X74374546Y-55130006D01*
X74394326Y-55368729D01*
X74394328Y-55368741D01*
X74404362Y-55408362D01*
X74401736Y-55478183D01*
X74361780Y-55535500D01*
X74297179Y-55562116D01*
X74228443Y-55549581D01*
X74207994Y-55536655D01*
X74078331Y-55435734D01*
X74078325Y-55435730D01*
X73867642Y-55321713D01*
X73867637Y-55321711D01*
X73641067Y-55243930D01*
X73483540Y-55217643D01*
X73404778Y-55204500D01*
X73165222Y-55204500D01*
X73106150Y-55214357D01*
X72928932Y-55243930D01*
X72702362Y-55321711D01*
X72702357Y-55321713D01*
X72491674Y-55435730D01*
X72491668Y-55435734D01*
X72302641Y-55582860D01*
X72302631Y-55582869D01*
X72140385Y-55759116D01*
X72009362Y-55959663D01*
X71913136Y-56179036D01*
X71854328Y-56411262D01*
X71854326Y-56411270D01*
X71834546Y-56649993D01*
X71834546Y-56650006D01*
X64625454Y-56650006D01*
X64625454Y-56649993D01*
X64605673Y-56411270D01*
X64605671Y-56411262D01*
X64605669Y-56411251D01*
X64595638Y-56371638D01*
X64598262Y-56301818D01*
X64638217Y-56244500D01*
X64702818Y-56217883D01*
X64771555Y-56230417D01*
X64792000Y-56243340D01*
X64921677Y-56344271D01*
X65132359Y-56458287D01*
X65358935Y-56536070D01*
X65595222Y-56575500D01*
X65595223Y-56575500D01*
X65834777Y-56575500D01*
X65834778Y-56575500D01*
X66071065Y-56536070D01*
X66297641Y-56458287D01*
X66508323Y-56344271D01*
X66697366Y-56197134D01*
X66859612Y-56020887D01*
X66990636Y-55820340D01*
X67086864Y-55600962D01*
X67145672Y-55368737D01*
X67145673Y-55368729D01*
X67165454Y-55130006D01*
X67165454Y-55129993D01*
X67145673Y-54891270D01*
X67145672Y-54891267D01*
X67145672Y-54891263D01*
X67086864Y-54659038D01*
X66990636Y-54439660D01*
X66859612Y-54239113D01*
X66697366Y-54062866D01*
X66667882Y-54039918D01*
X66508331Y-53915734D01*
X66508325Y-53915730D01*
X66297642Y-53801713D01*
X66297637Y-53801711D01*
X66071067Y-53723930D01*
X65909266Y-53696930D01*
X65834778Y-53684500D01*
X65595222Y-53684500D01*
X65536150Y-53694357D01*
X65358932Y-53723930D01*
X65132362Y-53801711D01*
X65132357Y-53801713D01*
X64921674Y-53915730D01*
X64921668Y-53915734D01*
X64732641Y-54062860D01*
X64732631Y-54062869D01*
X64570385Y-54239116D01*
X64439362Y-54439663D01*
X64343136Y-54659036D01*
X64284328Y-54891262D01*
X64284326Y-54891270D01*
X64264546Y-55129993D01*
X64264546Y-55130006D01*
X64284326Y-55368729D01*
X64284328Y-55368741D01*
X64294362Y-55408362D01*
X64291736Y-55478183D01*
X64251780Y-55535500D01*
X64187179Y-55562116D01*
X64118443Y-55549581D01*
X64097994Y-55536655D01*
X63968331Y-55435734D01*
X63968325Y-55435730D01*
X63757642Y-55321713D01*
X63757637Y-55321711D01*
X63531067Y-55243930D01*
X63373540Y-55217643D01*
X63294778Y-55204500D01*
X63055222Y-55204500D01*
X62996150Y-55214357D01*
X62818932Y-55243930D01*
X62592362Y-55321711D01*
X62592357Y-55321713D01*
X62381674Y-55435730D01*
X62381668Y-55435734D01*
X62192641Y-55582860D01*
X62192631Y-55582869D01*
X62030385Y-55759116D01*
X61899362Y-55959663D01*
X61803136Y-56179036D01*
X61744328Y-56411262D01*
X61744326Y-56411270D01*
X61724546Y-56649993D01*
X61724546Y-56650006D01*
X61744326Y-56888729D01*
X61744328Y-56888737D01*
X61803136Y-57120963D01*
X61861397Y-57253784D01*
X61899364Y-57340340D01*
X62030388Y-57540887D01*
X62192634Y-57717134D01*
X62250951Y-57762523D01*
X62381668Y-57864265D01*
X62381674Y-57864269D01*
X62381677Y-57864271D01*
X62592359Y-57978287D01*
X62818935Y-58056070D01*
X62979419Y-58082850D01*
X63042303Y-58113301D01*
X63078742Y-58172915D01*
X63077167Y-58242767D01*
X63038077Y-58300679D01*
X63003307Y-58320976D01*
X62986801Y-58327289D01*
X62747392Y-58461652D01*
X62747387Y-58461655D01*
X62530097Y-58629441D01*
X62530088Y-58629450D01*
X62339549Y-58827080D01*
X62339547Y-58827082D01*
X62179805Y-59050361D01*
X62179802Y-59050366D01*
X62054275Y-59294515D01*
X62054271Y-59294525D01*
X61965632Y-59554344D01*
X61965629Y-59554358D01*
X61915765Y-59824314D01*
X61915763Y-59824334D01*
X61905737Y-60098678D01*
X61935762Y-60371559D01*
X61935763Y-60371569D01*
X62005202Y-60637178D01*
X62106481Y-60875509D01*
X62112577Y-60889852D01*
X62212066Y-61052871D01*
X62255598Y-61124201D01*
X62257788Y-61127262D01*
X62280790Y-61193237D01*
X62264471Y-61261174D01*
X62214013Y-61309504D01*
X62145436Y-61322882D01*
X62129355Y-61320309D01*
X62126771Y-61319719D01*
X61859936Y-61279500D01*
X61859929Y-61279500D01*
X61590071Y-61279500D01*
X61590063Y-61279500D01*
X61323232Y-61319718D01*
X61323226Y-61319720D01*
X61065358Y-61399262D01*
X60822230Y-61516346D01*
X60599258Y-61668365D01*
X60401442Y-61851910D01*
X60233185Y-62062898D01*
X60098258Y-62296599D01*
X60098256Y-62296603D01*
X59999666Y-62547804D01*
X59999664Y-62547811D01*
X59939616Y-62810898D01*
X59919451Y-63079995D01*
X59919451Y-63080004D01*
X50000500Y-63080004D01*
X50000500Y-62467870D01*
X51999500Y-62467870D01*
X51999501Y-62467876D01*
X52005908Y-62527483D01*
X52056202Y-62662328D01*
X52056206Y-62662335D01*
X52142452Y-62777544D01*
X52142455Y-62777547D01*
X52257664Y-62863793D01*
X52257671Y-62863797D01*
X52392517Y-62914091D01*
X52392516Y-62914091D01*
X52399444Y-62914835D01*
X52452127Y-62920500D01*
X55547872Y-62920499D01*
X55607483Y-62914091D01*
X55742331Y-62863796D01*
X55857546Y-62777546D01*
X55943796Y-62662331D01*
X55994091Y-62527483D01*
X56000500Y-62467873D01*
X56000499Y-59372128D01*
X55994091Y-59312517D01*
X55987380Y-59294525D01*
X55943797Y-59177671D01*
X55943793Y-59177664D01*
X55857547Y-59062455D01*
X55857544Y-59062452D01*
X55742335Y-58976206D01*
X55742328Y-58976202D01*
X55607482Y-58925908D01*
X55607483Y-58925908D01*
X55547883Y-58919501D01*
X55547881Y-58919500D01*
X55547873Y-58919500D01*
X55547864Y-58919500D01*
X52452129Y-58919500D01*
X52452123Y-58919501D01*
X52392516Y-58925908D01*
X52257671Y-58976202D01*
X52257664Y-58976206D01*
X52142455Y-59062452D01*
X52142452Y-59062455D01*
X52056206Y-59177664D01*
X52056202Y-59177671D01*
X52005908Y-59312517D01*
X51999501Y-59372116D01*
X51999501Y-59372123D01*
X51999500Y-59372135D01*
X51999500Y-62467870D01*
X50000500Y-62467870D01*
X50000500Y-54500000D01*
X50794422Y-54500000D01*
X50814722Y-54887339D01*
X50871200Y-55243930D01*
X50875398Y-55270433D01*
X50949738Y-55547876D01*
X50975788Y-55645094D01*
X51114787Y-56007197D01*
X51290877Y-56352793D01*
X51502122Y-56678082D01*
X51718401Y-56945164D01*
X51746219Y-56979516D01*
X52020484Y-57253781D01*
X52127375Y-57340340D01*
X52321917Y-57497877D01*
X52388147Y-57540887D01*
X52647211Y-57709125D01*
X52992806Y-57885214D01*
X53354913Y-58024214D01*
X53729567Y-58124602D01*
X54112662Y-58185278D01*
X54478576Y-58204455D01*
X54499999Y-58205578D01*
X54500000Y-58205578D01*
X54500001Y-58205578D01*
X54520300Y-58204514D01*
X54887338Y-58185278D01*
X55270433Y-58124602D01*
X55645087Y-58024214D01*
X56007194Y-57885214D01*
X56352789Y-57709125D01*
X56678084Y-57497876D01*
X56979516Y-57253781D01*
X57253781Y-56979516D01*
X57497876Y-56678084D01*
X57709125Y-56352789D01*
X57885214Y-56007194D01*
X58024214Y-55645087D01*
X58124602Y-55270433D01*
X58185278Y-54887338D01*
X58205578Y-54500000D01*
X58185278Y-54112662D01*
X58124602Y-53729567D01*
X58024214Y-53354913D01*
X57885214Y-52992806D01*
X57709125Y-52647211D01*
X57709122Y-52647206D01*
X57497877Y-52321917D01*
X57282708Y-52056206D01*
X57253781Y-52020484D01*
X56979516Y-51746219D01*
X56945164Y-51718401D01*
X56678082Y-51502122D01*
X56352793Y-51290877D01*
X56007197Y-51114787D01*
X55645094Y-50975788D01*
X55645087Y-50975786D01*
X55270433Y-50875398D01*
X55270429Y-50875397D01*
X55270428Y-50875397D01*
X54887339Y-50814722D01*
X54500001Y-50794422D01*
X54499999Y-50794422D01*
X54112660Y-50814722D01*
X53729572Y-50875397D01*
X53729570Y-50875397D01*
X53354905Y-50975788D01*
X52992802Y-51114787D01*
X52647206Y-51290877D01*
X52321917Y-51502122D01*
X52020488Y-51746215D01*
X52020480Y-51746222D01*
X51746222Y-52020480D01*
X51746215Y-52020488D01*
X51502122Y-52321917D01*
X51290877Y-52647206D01*
X51114787Y-52992802D01*
X50975788Y-53354905D01*
X50875397Y-53729570D01*
X50875397Y-53729572D01*
X50814722Y-54112660D01*
X50794422Y-54499999D01*
X50794422Y-54500000D01*
X50000500Y-54500000D01*
X50000500Y-54001439D01*
X50000566Y-53998576D01*
X50008487Y-53827238D01*
X50013562Y-53723930D01*
X50018302Y-53627446D01*
X50018818Y-53621955D01*
X50044670Y-53436633D01*
X50072331Y-53250162D01*
X50073292Y-53245137D01*
X50116689Y-53060626D01*
X50161993Y-52879764D01*
X50163323Y-52875216D01*
X50223915Y-52694431D01*
X50286457Y-52519641D01*
X50288100Y-52515527D01*
X50365368Y-52340530D01*
X50444615Y-52172977D01*
X50446444Y-52169423D01*
X50539781Y-52001852D01*
X50634990Y-51843005D01*
X50636979Y-51839904D01*
X50745570Y-51681381D01*
X50855924Y-51532586D01*
X50857928Y-51530033D01*
X50980875Y-51381973D01*
X51105351Y-51244636D01*
X51107361Y-51242526D01*
X51242526Y-51107361D01*
X51244636Y-51105351D01*
X51381973Y-50980875D01*
X51530033Y-50857928D01*
X51532586Y-50855924D01*
X51681381Y-50745570D01*
X51839904Y-50636979D01*
X51843005Y-50634990D01*
X52001858Y-50539778D01*
X52169423Y-50446444D01*
X52172977Y-50444615D01*
X52340530Y-50365368D01*
X52515538Y-50288095D01*
X52519641Y-50286457D01*
X52694431Y-50223915D01*
X52875216Y-50163323D01*
X52879764Y-50161993D01*
X53060626Y-50116689D01*
X53245137Y-50073292D01*
X53250162Y-50072331D01*
X53436651Y-50044667D01*
X53621955Y-50018818D01*
X53627446Y-50018302D01*
X53826958Y-50008500D01*
X53968945Y-50001935D01*
X53998577Y-50000566D01*
X54001440Y-50000500D01*
X95998560Y-50000500D01*
X96001423Y-50000566D01*
G37*
%TD.AperFunction*%
%TD*%
M02*
